STARTFONT 2.1
COMMENT
COMMENT Converted from OpenType font "STXIHEI.TTF" by "otf2bdf.exe 3.0".
COMMENT
FONT -FreeType-STXihei-Medium-R-Normal--14-720-14-14-P-115-ISO10646-1
SIZE 72 14 14
FONTBOUNDINGBOX 18 21 -1 -5
STARTPROPERTIES 19
FOUNDRY "FreeType"
FAMILY_NAME "STXihei"
WEIGHT_NAME "Medium"
SLANT "R"
SETWIDTH_NAME "Normal"
ADD_STYLE_NAME ""
PIXEL_SIZE 14
POINT_SIZE 720
RESOLUTION_X 14
RESOLUTION_Y 14
SPACING "P"
AVERAGE_WIDTH 115
CHARSET_REGISTRY "ISO10646"
CHARSET_ENCODING "1"
FONT_ASCENT 14
FONT_DESCENT 4
COPYRIGHT "Copyright (c) 1991-1998, Changzhou SinoType Technology Co., Ltd.  All rights reserved."
_OTF_FONTFILE "STXIHEI.TTF"
_OTF_PSNAME "STXihei"
ENDPROPERTIES
CHARS 24367
STARTCHAR 0020
ENCODING 32
SWIDTH 285 0
DWIDTH 4 0
BBX 0 0 0 0
BITMAP
ENDCHAR
STARTCHAR 0021
ENCODING 33
SWIDTH 285 0
DWIDTH 4 0
BBX 2 11 1 0
BITMAP
80
80
80
80
80
80
80
80
00
C0
C0
ENDCHAR
STARTCHAR 0022
ENCODING 34
SWIDTH 285 0
DWIDTH 4 0
BBX 4 3 0 8
BITMAP
90
90
90
ENDCHAR
STARTCHAR 0023
ENCODING 35
SWIDTH 642 0
DWIDTH 9 0
BBX 7 11 1 0
BITMAP
24
24
24
FE
24
44
48
FE
48
48
48
ENDCHAR
STARTCHAR 0024
ENCODING 36
SWIDTH 500 0
DWIDTH 7 0
BBX 5 14 1 -2
BITMAP
70
B8
A0
A0
60
30
30
28
28
B8
70
20
20
20
ENDCHAR
STARTCHAR 0025
ENCODING 37
SWIDTH 714 0
DWIDTH 10 0
BBX 10 12 0 -1
BITMAP
7F00
8900
8A00
8A00
7400
0800
0B80
1440
1440
2440
2380
4000
ENDCHAR
STARTCHAR 0026
ENCODING 38
SWIDTH 785 0
DWIDTH 11 0
BBX 9 10 1 0
BITMAP
3800
4400
4400
2800
3000
6800
8500
8300
8700
7880
ENDCHAR
STARTCHAR 0027
ENCODING 39
SWIDTH 214 0
DWIDTH 3 0
BBX 1 3 1 8
BITMAP
80
80
80
ENDCHAR
STARTCHAR 0028
ENCODING 40
SWIDTH 357 0
DWIDTH 5 0
BBX 2 14 2 -3
BITMAP
40
40
40
80
80
80
80
80
80
80
80
80
40
40
ENDCHAR
STARTCHAR 0029
ENCODING 41
SWIDTH 357 0
DWIDTH 5 0
BBX 2 14 1 -3
BITMAP
80
80
80
40
40
40
40
40
40
40
40
40
80
80
ENDCHAR
STARTCHAR 002A
ENCODING 42
SWIDTH 428 0
DWIDTH 6 0
BBX 4 3 1 7
BITMAP
D0
60
D0
ENDCHAR
STARTCHAR 002B
ENCODING 43
SWIDTH 642 0
DWIDTH 9 0
BBX 7 7 1 2
BITMAP
10
10
10
FE
10
10
10
ENDCHAR
STARTCHAR 002C
ENCODING 44
SWIDTH 285 0
DWIDTH 4 0
BBX 2 3 1 -2
BITMAP
40
80
80
ENDCHAR
STARTCHAR 002D
ENCODING 45
SWIDTH 285 0
DWIDTH 4 0
BBX 4 1 0 3
BITMAP
F0
ENDCHAR
STARTCHAR 002E
ENCODING 46
SWIDTH 285 0
DWIDTH 4 0
BBX 2 2 1 0
BITMAP
C0
C0
ENDCHAR
STARTCHAR 002F
ENCODING 47
SWIDTH 428 0
DWIDTH 6 0
BBX 5 12 1 -1
BITMAP
18
10
10
30
20
20
40
40
40
80
80
80
ENDCHAR
STARTCHAR 0030
ENCODING 48
SWIDTH 500 0
DWIDTH 7 0
BBX 7 11 0 0
BITMAP
38
44
84
82
82
82
82
82
86
44
38
ENDCHAR
STARTCHAR 0031
ENCODING 49
SWIDTH 571 0
DWIDTH 8 0
BBX 2 11 3 0
BITMAP
C0
40
40
40
40
40
40
40
40
40
40
ENDCHAR
STARTCHAR 0032
ENCODING 50
SWIDTH 571 0
DWIDTH 8 0
BBX 6 11 1 0
BITMAP
70
88
84
84
04
08
18
30
20
40
FC
ENDCHAR
STARTCHAR 0033
ENCODING 51
SWIDTH 571 0
DWIDTH 8 0
BBX 7 11 0 0
BITMAP
38
44
44
04
18
04
02
02
82
44
38
ENDCHAR
STARTCHAR 0034
ENCODING 52
SWIDTH 500 0
DWIDTH 7 0
BBX 7 11 0 0
BITMAP
04
04
0C
0C
14
34
24
44
FE
04
04
ENDCHAR
STARTCHAR 0035
ENCODING 53
SWIDTH 571 0
DWIDTH 8 0
BBX 6 11 1 0
BITMAP
7C
40
40
40
78
08
04
04
84
88
70
ENDCHAR
STARTCHAR 0036
ENCODING 54
SWIDTH 571 0
DWIDTH 8 0
BBX 6 10 1 1
BITMAP
18
10
20
60
78
CC
84
84
CC
78
ENDCHAR
STARTCHAR 0037
ENCODING 55
SWIDTH 571 0
DWIDTH 8 0
BBX 6 11 1 0
BITMAP
FC
04
08
08
10
10
20
20
40
40
80
ENDCHAR
STARTCHAR 0038
ENCODING 56
SWIDTH 500 0
DWIDTH 7 0
BBX 7 11 0 0
BITMAP
38
44
44
44
38
44
82
82
82
44
38
ENDCHAR
STARTCHAR 0039
ENCODING 57
SWIDTH 571 0
DWIDTH 8 0
BBX 6 10 1 0
BITMAP
78
CC
84
84
CC
78
18
10
20
20
ENDCHAR
STARTCHAR 003A
ENCODING 58
SWIDTH 285 0
DWIDTH 4 0
BBX 2 8 1 0
BITMAP
C0
C0
00
00
00
00
C0
C0
ENDCHAR
STARTCHAR 003B
ENCODING 59
SWIDTH 285 0
DWIDTH 4 0
BBX 2 9 1 -2
BITMAP
C0
C0
00
00
00
00
40
80
80
ENDCHAR
STARTCHAR 003C
ENCODING 60
SWIDTH 642 0
DWIDTH 9 0
BBX 7 7 1 2
BITMAP
02
0C
30
C0
60
18
06
ENDCHAR
STARTCHAR 003D
ENCODING 61
SWIDTH 642 0
DWIDTH 9 0
BBX 7 4 1 3
BITMAP
FE
00
00
FE
ENDCHAR
STARTCHAR 003E
ENCODING 62
SWIDTH 642 0
DWIDTH 9 0
BBX 7 7 1 2
BITMAP
80
60
18
06
0C
30
C0
ENDCHAR
STARTCHAR 003F
ENCODING 63
SWIDTH 571 0
DWIDTH 8 0
BBX 6 11 1 0
BITMAP
78
C4
84
0C
30
40
4C
38
00
30
30
ENDCHAR
STARTCHAR 0040
ENCODING 64
SWIDTH 928 0
DWIDTH 13 0
BBX 11 11 2 0
BITMAP
1F00
20C0
4040
9D20
9120
A220
A220
B240
5F80
2080
1F00
ENDCHAR
STARTCHAR 0041
ENCODING 65
SWIDTH 714 0
DWIDTH 10 0
BBX 9 11 1 0
BITMAP
0800
1800
1800
1400
2400
2200
7E00
4100
8100
8100
8080
ENDCHAR
STARTCHAR 0042
ENCODING 66
SWIDTH 571 0
DWIDTH 8 0
BBX 6 11 1 0
BITMAP
F0
88
88
88
98
F0
8C
84
84
8C
F8
ENDCHAR
STARTCHAR 0043
ENCODING 67
SWIDTH 857 0
DWIDTH 12 0
BBX 9 11 1 0
BITMAP
1F00
2180
4000
8000
8000
8000
8000
8000
4000
2080
1F00
ENDCHAR
STARTCHAR 0044
ENCODING 68
SWIDTH 714 0
DWIDTH 10 0
BBX 8 11 1 0
BITMAP
F8
86
82
81
81
81
81
81
82
86
FC
ENDCHAR
STARTCHAR 0045
ENCODING 69
SWIDTH 500 0
DWIDTH 7 0
BBX 6 11 1 0
BITMAP
FC
80
80
80
80
FC
80
80
80
80
FC
ENDCHAR
STARTCHAR 0046
ENCODING 70
SWIDTH 500 0
DWIDTH 7 0
BBX 5 11 1 0
BITMAP
F8
80
80
80
80
F8
80
80
80
80
80
ENDCHAR
STARTCHAR 0047
ENCODING 71
SWIDTH 857 0
DWIDTH 12 0
BBX 11 11 1 0
BITMAP
1F00
30C0
4040
8000
8000
8000
81E0
8020
4040
30C0
1F00
ENDCHAR
STARTCHAR 0048
ENCODING 72
SWIDTH 642 0
DWIDTH 9 0
BBX 7 11 1 0
BITMAP
82
82
82
82
82
FE
82
82
82
82
82
ENDCHAR
STARTCHAR 0049
ENCODING 73
SWIDTH 214 0
DWIDTH 3 0
BBX 1 11 1 0
BITMAP
80
80
80
80
80
80
80
80
80
80
80
ENDCHAR
STARTCHAR 004A
ENCODING 74
SWIDTH 428 0
DWIDTH 6 0
BBX 5 11 0 0
BITMAP
08
08
08
08
08
08
08
08
08
88
70
ENDCHAR
STARTCHAR 004B
ENCODING 75
SWIDTH 571 0
DWIDTH 8 0
BBX 6 11 1 0
BITMAP
8C
88
90
A0
C0
C0
A0
B0
98
88
84
ENDCHAR
STARTCHAR 004C
ENCODING 76
SWIDTH 428 0
DWIDTH 6 0
BBX 5 11 1 0
BITMAP
80
80
80
80
80
80
80
80
80
80
F8
ENDCHAR
STARTCHAR 004D
ENCODING 77
SWIDTH 928 0
DWIDTH 13 0
BBX 11 11 1 0
BITMAP
4040
4040
40C0
60C0
61C0
9140
9120
8A20
8A20
8420
8420
ENDCHAR
STARTCHAR 004E
ENCODING 78
SWIDTH 714 0
DWIDTH 10 0
BBX 8 11 1 0
BITMAP
81
81
C1
A1
B1
99
89
85
83
81
81
ENDCHAR
STARTCHAR 004F
ENCODING 79
SWIDTH 928 0
DWIDTH 13 0
BBX 11 11 1 0
BITMAP
1F00
2080
4040
8020
8020
8020
8020
8020
4040
2080
1F00
ENDCHAR
STARTCHAR 0050
ENCODING 80
SWIDTH 571 0
DWIDTH 8 0
BBX 6 11 1 0
BITMAP
F8
8C
84
84
8C
F8
80
80
80
80
80
ENDCHAR
STARTCHAR 0051
ENCODING 81
SWIDTH 928 0
DWIDTH 13 0
BBX 11 12 1 -1
BITMAP
1F00
2080
4040
8020
8020
8020
8620
8320
4140
2180
1F40
0040
ENDCHAR
STARTCHAR 0052
ENCODING 82
SWIDTH 571 0
DWIDTH 8 0
BBX 6 11 1 0
BITMAP
F8
8C
84
84
8C
F8
A0
90
90
88
84
ENDCHAR
STARTCHAR 0053
ENCODING 83
SWIDTH 500 0
DWIDTH 7 0
BBX 5 11 1 0
BITMAP
70
98
80
80
60
30
10
08
08
98
70
ENDCHAR
STARTCHAR 0054
ENCODING 84
SWIDTH 428 0
DWIDTH 6 0
BBX 6 11 0 0
BITMAP
FC
20
20
20
20
20
20
20
20
20
20
ENDCHAR
STARTCHAR 0055
ENCODING 85
SWIDTH 642 0
DWIDTH 9 0
BBX 7 11 1 0
BITMAP
82
82
82
82
82
82
82
82
82
44
38
ENDCHAR
STARTCHAR 0056
ENCODING 86
SWIDTH 714 0
DWIDTH 10 0
BBX 8 10 1 0
BITMAP
81
81
C2
42
46
24
24
28
18
18
ENDCHAR
STARTCHAR 0057
ENCODING 87
SWIDTH 928 0
DWIDTH 13 0
BBX 12 11 1 0
BITMAP
8410
8420
8620
4A20
4A20
4940
5140
3140
30C0
2080
2000
ENDCHAR
STARTCHAR 0058
ENCODING 88
SWIDTH 642 0
DWIDTH 9 0
BBX 7 11 1 0
BITMAP
86
44
48
28
30
10
38
68
4C
C4
82
ENDCHAR
STARTCHAR 0059
ENCODING 89
SWIDTH 642 0
DWIDTH 9 0
BBX 7 11 1 0
BITMAP
82
44
44
28
38
10
10
10
10
10
10
ENDCHAR
STARTCHAR 005A
ENCODING 90
SWIDTH 500 0
DWIDTH 7 0
BBX 5 11 1 0
BITMAP
F8
18
10
10
20
20
60
40
40
80
F8
ENDCHAR
STARTCHAR 005B
ENCODING 91
SWIDTH 357 0
DWIDTH 5 0
BBX 2 14 2 -3
BITMAP
C0
80
80
80
80
80
80
80
80
80
80
80
80
C0
ENDCHAR
STARTCHAR 005C
ENCODING 92
SWIDTH 571 0
DWIDTH 8 0
BBX 7 12 1 -1
BITMAP
80
80
40
40
20
20
10
08
08
04
04
02
ENDCHAR
STARTCHAR 005D
ENCODING 93
SWIDTH 357 0
DWIDTH 5 0
BBX 2 14 1 -3
BITMAP
C0
40
40
40
40
40
40
40
40
40
40
40
40
C0
ENDCHAR
STARTCHAR 005E
ENCODING 94
SWIDTH 642 0
DWIDTH 9 0
BBX 7 8 1 3
BITMAP
10
18
28
24
44
42
82
82
ENDCHAR
STARTCHAR 005F
ENCODING 95
SWIDTH 500 0
DWIDTH 7 0
BBX 7 1 0 -2
BITMAP
FE
ENDCHAR
STARTCHAR 0060
ENCODING 96
SWIDTH 357 0
DWIDTH 5 0
BBX 2 2 1 9
BITMAP
C0
40
ENDCHAR
STARTCHAR 0061
ENCODING 97
SWIDTH 714 0
DWIDTH 10 0
BBX 8 8 1 0
BITMAP
3D
43
81
81
81
81
43
3D
ENDCHAR
STARTCHAR 0062
ENCODING 98
SWIDTH 714 0
DWIDTH 10 0
BBX 8 11 1 0
BITMAP
80
80
80
BC
C2
81
81
81
81
C2
BC
ENDCHAR
STARTCHAR 0063
ENCODING 99
SWIDTH 642 0
DWIDTH 9 0
BBX 7 8 1 0
BITMAP
3C
42
80
80
80
80
42
3C
ENDCHAR
STARTCHAR 0064
ENCODING 100
SWIDTH 714 0
DWIDTH 10 0
BBX 8 11 1 0
BITMAP
01
01
01
3D
43
81
81
81
81
43
3D
ENDCHAR
STARTCHAR 0065
ENCODING 101
SWIDTH 642 0
DWIDTH 9 0
BBX 8 8 1 0
BITMAP
3C
42
82
FF
80
82
42
3C
ENDCHAR
STARTCHAR 0066
ENCODING 102
SWIDTH 357 0
DWIDTH 5 0
BBX 4 11 1 0
BITMAP
70
40
40
F0
40
40
40
40
40
40
40
ENDCHAR
STARTCHAR 0067
ENCODING 103
SWIDTH 714 0
DWIDTH 10 0
BBX 8 11 1 -3
BITMAP
3D
43
81
81
81
81
43
3D
01
42
3C
ENDCHAR
STARTCHAR 0068
ENCODING 104
SWIDTH 642 0
DWIDTH 9 0
BBX 7 11 1 0
BITMAP
80
80
80
BC
C6
82
82
82
82
82
82
ENDCHAR
STARTCHAR 0069
ENCODING 105
SWIDTH 214 0
DWIDTH 3 0
BBX 2 11 1 0
BITMAP
C0
C0
00
80
80
80
80
80
80
80
80
ENDCHAR
STARTCHAR 006A
ENCODING 106
SWIDTH 214 0
DWIDTH 3 0
BBX 3 14 0 -3
BITMAP
60
60
00
40
40
40
40
40
40
40
40
40
40
C0
ENDCHAR
STARTCHAR 006B
ENCODING 107
SWIDTH 500 0
DWIDTH 7 0
BBX 6 11 1 0
BITMAP
80
80
80
88
90
A0
C0
C0
A0
98
8C
ENDCHAR
STARTCHAR 006C
ENCODING 108
SWIDTH 214 0
DWIDTH 3 0
BBX 1 11 1 0
BITMAP
80
80
80
80
80
80
80
80
80
80
80
ENDCHAR
STARTCHAR 006D
ENCODING 109
SWIDTH 928 0
DWIDTH 13 0
BBX 11 8 1 0
BITMAP
B9C0
CE20
8420
8420
8420
8420
8420
8420
ENDCHAR
STARTCHAR 006E
ENCODING 110
SWIDTH 642 0
DWIDTH 9 0
BBX 7 8 1 0
BITMAP
BC
C6
82
82
82
82
82
82
ENDCHAR
STARTCHAR 006F
ENCODING 111
SWIDTH 714 0
DWIDTH 10 0
BBX 8 8 1 0
BITMAP
3C
42
81
81
81
81
42
3C
ENDCHAR
STARTCHAR 0070
ENCODING 112
SWIDTH 714 0
DWIDTH 10 0
BBX 8 11 1 -3
BITMAP
BC
C2
81
81
81
81
C2
BC
80
80
80
ENDCHAR
STARTCHAR 0071
ENCODING 113
SWIDTH 714 0
DWIDTH 10 0
BBX 8 11 1 -3
BITMAP
3D
43
81
81
81
81
43
3D
01
01
01
ENDCHAR
STARTCHAR 0072
ENCODING 114
SWIDTH 357 0
DWIDTH 5 0
BBX 3 8 1 0
BITMAP
A0
C0
80
80
80
80
80
80
ENDCHAR
STARTCHAR 0073
ENCODING 115
SWIDTH 428 0
DWIDTH 6 0
BBX 4 8 1 0
BITMAP
60
90
80
40
30
10
90
E0
ENDCHAR
STARTCHAR 0074
ENCODING 116
SWIDTH 357 0
DWIDTH 5 0
BBX 4 11 1 0
BITMAP
40
40
40
F0
40
40
40
40
40
40
40
ENDCHAR
STARTCHAR 0075
ENCODING 117
SWIDTH 642 0
DWIDTH 9 0
BBX 7 8 1 0
BITMAP
82
82
82
82
82
82
44
3C
ENDCHAR
STARTCHAR 0076
ENCODING 118
SWIDTH 571 0
DWIDTH 8 0
BBX 6 7 1 0
BITMAP
84
84
88
48
50
30
30
ENDCHAR
STARTCHAR 0077
ENCODING 119
SWIDTH 857 0
DWIDTH 12 0
BBX 11 8 0 0
BITMAP
8420
4420
4620
4A40
2940
3180
1080
1080
ENDCHAR
STARTCHAR 0078
ENCODING 120
SWIDTH 500 0
DWIDTH 7 0
BBX 6 8 0 0
BITMAP
44
48
28
10
30
28
44
C4
ENDCHAR
STARTCHAR 0079
ENCODING 121
SWIDTH 571 0
DWIDTH 8 0
BBX 7 11 0 -3
BITMAP
82
42
44
24
28
18
18
10
10
20
20
ENDCHAR
STARTCHAR 007A
ENCODING 122
SWIDTH 357 0
DWIDTH 5 0
BBX 5 8 0 0
BITMAP
F8
10
10
20
20
40
80
F8
ENDCHAR
STARTCHAR 007B
ENCODING 123
SWIDTH 285 0
DWIDTH 4 0
BBX 4 14 0 -3
BITMAP
30
40
40
40
40
40
40
80
40
40
40
40
40
30
ENDCHAR
STARTCHAR 007C
ENCODING 124
SWIDTH 642 0
DWIDTH 9 0
BBX 1 14 4 -3
BITMAP
80
80
80
80
80
80
80
80
80
80
80
80
80
80
ENDCHAR
STARTCHAR 007D
ENCODING 125
SWIDTH 357 0
DWIDTH 5 0
BBX 4 14 0 -3
BITMAP
C0
40
40
40
40
40
60
30
40
40
40
40
40
C0
ENDCHAR
STARTCHAR 007E
ENCODING 126
SWIDTH 642 0
DWIDTH 9 0
BBX 7 2 1 4
BITMAP
E0
1E
ENDCHAR
STARTCHAR 007F
ENCODING 127
SWIDTH 500 0
DWIDTH 7 0
BBX 0 0 0 0
BITMAP
ENDCHAR
STARTCHAR 00A0
ENCODING 160
SWIDTH 285 0
DWIDTH 4 0
BBX 0 0 0 0
BITMAP
ENDCHAR
STARTCHAR 00A1
ENCODING 161
SWIDTH 285 0
DWIDTH 4 0
BBX 2 11 1 -3
BITMAP
C0
C0
00
80
80
80
80
80
80
80
80
ENDCHAR
STARTCHAR 00A2
ENCODING 162
SWIDTH 571 0
DWIDTH 8 0
BBX 6 10 1 -1
BITMAP
04
3C
4C
88
90
90
A0
64
7C
40
ENDCHAR
STARTCHAR 00A3
ENCODING 163
SWIDTH 500 0
DWIDTH 7 0
BBX 7 11 0 0
BITMAP
18
24
24
20
20
F8
10
10
72
92
EC
ENDCHAR
STARTCHAR 00A4
ENCODING 164
SWIDTH 1000 0
DWIDTH 14 0
BBX 10 11 2 -1
BITMAP
9E40
6180
4080
8040
8040
8040
8040
8040
4080
6180
1E40
ENDCHAR
STARTCHAR 00A5
ENCODING 165
SWIDTH 571 0
DWIDTH 8 0
BBX 6 11 1 0
BITMAP
84
C4
48
68
28
10
FC
10
FC
10
10
ENDCHAR
STARTCHAR 00A6
ENCODING 166
SWIDTH 642 0
DWIDTH 9 0
BBX 1 14 4 -3
BITMAP
80
80
80
80
80
80
00
80
80
80
80
80
80
80
ENDCHAR
STARTCHAR 00A7
ENCODING 167
SWIDTH 1000 0
DWIDTH 14 0
BBX 5 13 4 -2
BITMAP
70
88
80
40
70
98
88
48
30
10
08
88
70
ENDCHAR
STARTCHAR 00A8
ENCODING 168
SWIDTH 928 0
DWIDTH 13 0
BBX 5 1 4 8
BITMAP
88
ENDCHAR
STARTCHAR 00A9
ENCODING 169
SWIDTH 785 0
DWIDTH 11 0
BBX 11 11 0 0
BITMAP
1F00
2080
4E40
9920
9020
9020
9120
9920
4E40
2080
1F00
ENDCHAR
STARTCHAR 00AA
ENCODING 170
SWIDTH 357 0
DWIDTH 5 0
BBX 4 5 0 6
BITMAP
70
90
90
90
70
ENDCHAR
STARTCHAR 00AB
ENCODING 171
SWIDTH 428 0
DWIDTH 6 0
BBX 6 8 0 0
BITMAP
44
48
48
90
90
48
48
44
ENDCHAR
STARTCHAR 00AC
ENCODING 172
SWIDTH 642 0
DWIDTH 9 0
BBX 7 4 1 2
BITMAP
FE
02
02
02
ENDCHAR
STARTCHAR 00AD
ENCODING 173
SWIDTH 285 0
DWIDTH 4 0
BBX 4 1 0 3
BITMAP
F0
ENDCHAR
STARTCHAR 00AE
ENCODING 174
SWIDTH 785 0
DWIDTH 11 0
BBX 11 11 0 0
BITMAP
1F00
2080
5E40
9120
9120
9E20
9120
9120
5140
2080
1F00
ENDCHAR
STARTCHAR 00AF
ENCODING 175
SWIDTH 500 0
DWIDTH 7 0
BBX 7 1 0 12
BITMAP
FE
ENDCHAR
STARTCHAR 00B0
ENCODING 176
SWIDTH 1071 0
DWIDTH 15 0
BBX 4 4 2 7
BITMAP
60
90
90
60
ENDCHAR
STARTCHAR 00B1
ENCODING 177
SWIDTH 1000 0
DWIDTH 14 0
BBX 8 10 3 -1
BITMAP
08
08
08
FF
08
08
08
08
00
FF
ENDCHAR
STARTCHAR 00B2
ENCODING 178
SWIDTH 285 0
DWIDTH 4 0
BBX 4 6 0 5
BITMAP
60
90
10
20
40
F0
ENDCHAR
STARTCHAR 00B3
ENCODING 179
SWIDTH 285 0
DWIDTH 4 0
BBX 4 6 0 5
BITMAP
70
10
20
10
90
60
ENDCHAR
STARTCHAR 00B4
ENCODING 180
SWIDTH 357 0
DWIDTH 5 0
BBX 2 2 2 9
BITMAP
40
80
ENDCHAR
STARTCHAR 00B5
ENCODING 181
SWIDTH 642 0
DWIDTH 9 0
BBX 7 11 1 -3
BITMAP
82
82
82
82
82
82
C6
FA
80
80
80
ENDCHAR
STARTCHAR 00B6
ENCODING 182
SWIDTH 571 0
DWIDTH 8 0
BBX 7 13 0 -2
BITMAP
3E
74
F4
F4
74
74
14
14
14
14
14
14
14
ENDCHAR
STARTCHAR 00B7
ENCODING 183
SWIDTH 1000 0
DWIDTH 14 0
BBX 2 2 6 4
BITMAP
C0
C0
ENDCHAR
STARTCHAR 00B8
ENCODING 184
SWIDTH 357 0
DWIDTH 5 0
BBX 3 3 1 -3
BITMAP
40
20
E0
ENDCHAR
STARTCHAR 00B9
ENCODING 185
SWIDTH 357 0
DWIDTH 5 0
BBX 2 6 1 5
BITMAP
C0
40
40
40
40
40
ENDCHAR
STARTCHAR 00BA
ENCODING 186
SWIDTH 357 0
DWIDTH 5 0
BBX 5 5 0 6
BITMAP
70
88
88
88
70
ENDCHAR
STARTCHAR 00BB
ENCODING 187
SWIDTH 428 0
DWIDTH 6 0
BBX 6 8 0 0
BITMAP
90
48
48
44
44
48
48
90
ENDCHAR
STARTCHAR 00BC
ENCODING 188
SWIDTH 857 0
DWIDTH 12 0
BBX 11 11 1 0
BITMAP
C080
4100
4100
4200
4400
4400
0840
08C0
1140
13E0
2040
ENDCHAR
STARTCHAR 00BD
ENCODING 189
SWIDTH 857 0
DWIDTH 12 0
BBX 10 11 1 0
BITMAP
C100
4200
4200
4400
4400
4980
0A40
1040
2080
2100
43C0
ENDCHAR
STARTCHAR 00BE
ENCODING 190
SWIDTH 785 0
DWIDTH 11 0
BBX 11 11 0 0
BITMAP
7080
1100
2100
1200
9200
6400
0440
08C0
1140
13E0
0040
ENDCHAR
STARTCHAR 00BF
ENCODING 191
SWIDTH 571 0
DWIDTH 8 0
BBX 6 11 1 -3
BITMAP
30
30
70
C8
88
18
30
C0
84
8C
78
ENDCHAR
STARTCHAR 00C0
ENCODING 192
SWIDTH 714 0
DWIDTH 10 0
BBX 9 14 1 0
BITMAP
1000
1000
0800
0800
1800
1800
1400
2400
2200
7E00
4100
8100
8100
8080
ENDCHAR
STARTCHAR 00C1
ENCODING 193
SWIDTH 714 0
DWIDTH 10 0
BBX 9 14 1 0
BITMAP
0C00
0800
1000
0800
1800
1800
1400
2400
2200
7E00
4100
8100
8100
8080
ENDCHAR
STARTCHAR 00C2
ENCODING 194
SWIDTH 714 0
DWIDTH 10 0
BBX 9 13 1 1
BITMAP
1800
2400
0800
1800
1800
1400
2400
2200
7E00
4100
8100
8100
8080
ENDCHAR
STARTCHAR 00C3
ENCODING 195
SWIDTH 714 0
DWIDTH 10 0
BBX 9 13 1 0
BITMAP
3000
0C00
0800
1800
1800
1400
2400
2200
7E00
4100
8100
8100
8080
ENDCHAR
STARTCHAR 00C4
ENCODING 196
SWIDTH 714 0
DWIDTH 10 0
BBX 8 13 1 0
BITMAP
24
24
00
18
18
24
24
24
7E
42
C1
81
81
ENDCHAR
STARTCHAR 00C5
ENCODING 197
SWIDTH 785 0
DWIDTH 11 0
BBX 9 14 1 0
BITMAP
1C00
1400
1C00
0800
0800
1400
1400
2200
2200
3E00
4100
4100
8080
8080
ENDCHAR
STARTCHAR 00C6
ENCODING 198
SWIDTH 1000 0
DWIDTH 14 0
BBX 13 11 0 0
BITMAP
03F8
0300
0500
0D00
0900
19F8
1100
3F00
6100
4100
81F8
ENDCHAR
STARTCHAR 00C7
ENCODING 199
SWIDTH 785 0
DWIDTH 11 0
BBX 9 14 1 -3
BITMAP
1F00
2180
4080
8000
8000
8000
8000
8000
4000
6180
1F00
0800
0400
1C00
ENDCHAR
STARTCHAR 00C8
ENCODING 200
SWIDTH 500 0
DWIDTH 7 0
BBX 6 14 1 1
BITMAP
60
20
10
FC
80
80
80
80
FC
80
80
80
80
FC
ENDCHAR
STARTCHAR 00C9
ENCODING 201
SWIDTH 500 0
DWIDTH 7 0
BBX 6 14 1 1
BITMAP
18
10
20
FC
80
80
80
80
FC
80
80
80
80
FC
ENDCHAR
STARTCHAR 00CA
ENCODING 202
SWIDTH 500 0
DWIDTH 7 0
BBX 6 14 1 0
BITMAP
30
30
48
FC
80
80
80
80
FC
80
80
80
80
FC
ENDCHAR
STARTCHAR 00CB
ENCODING 203
SWIDTH 500 0
DWIDTH 7 0
BBX 6 13 1 0
BITMAP
48
48
FC
80
80
80
80
FC
80
80
80
80
FC
ENDCHAR
STARTCHAR 00CC
ENCODING 204
SWIDTH 214 0
DWIDTH 3 0
BBX 2 14 0 0
BITMAP
80
40
40
40
40
40
40
40
40
40
40
40
40
40
ENDCHAR
STARTCHAR 00CD
ENCODING 205
SWIDTH 214 0
DWIDTH 3 0
BBX 2 14 1 0
BITMAP
40
80
80
80
80
80
80
80
80
80
80
80
80
80
ENDCHAR
STARTCHAR 00CE
ENCODING 206
SWIDTH 214 0
DWIDTH 3 0
BBX 5 14 -1 0
BITMAP
20
70
D8
20
20
20
20
20
20
20
20
20
20
20
ENDCHAR
STARTCHAR 00CF
ENCODING 207
SWIDTH 214 0
DWIDTH 3 0
BBX 5 13 -1 0
BITMAP
D8
D8
20
20
20
20
20
20
20
20
20
20
20
ENDCHAR
STARTCHAR 00D0
ENCODING 208
SWIDTH 785 0
DWIDTH 11 0
BBX 10 11 0 0
BITMAP
7E00
4180
4080
4040
4040
F840
4040
4040
4080
4180
7E00
ENDCHAR
STARTCHAR 00D1
ENCODING 209
SWIDTH 714 0
DWIDTH 10 0
BBX 8 13 1 0
BITMAP
30
0C
81
81
C1
A1
B1
99
89
85
83
81
81
ENDCHAR
STARTCHAR 00D2
ENCODING 210
SWIDTH 928 0
DWIDTH 13 0
BBX 11 14 1 0
BITMAP
0800
0400
0000
1F00
2080
4040
8020
8020
8020
8020
8020
4040
2080
1F00
ENDCHAR
STARTCHAR 00D3
ENCODING 211
SWIDTH 928 0
DWIDTH 13 0
BBX 11 14 1 0
BITMAP
0200
0400
0000
1F00
2080
4040
8020
8020
8020
8020
8020
4040
2080
1F00
ENDCHAR
STARTCHAR 00D4
ENCODING 212
SWIDTH 928 0
DWIDTH 13 0
BBX 11 13 1 1
BITMAP
0E00
0000
1F00
2080
4040
8020
8020
8020
8020
8020
4040
2080
1F00
ENDCHAR
STARTCHAR 00D5
ENCODING 213
SWIDTH 928 0
DWIDTH 13 0
BBX 11 13 1 0
BITMAP
1F00
0000
1F00
2080
4040
8020
8020
8020
8020
8020
4040
2080
1F00
ENDCHAR
STARTCHAR 00D6
ENCODING 214
SWIDTH 928 0
DWIDTH 13 0
BBX 11 13 1 0
BITMAP
1B00
1B00
1F00
2080
4040
8020
8020
8020
8020
8020
4040
2080
1F00
ENDCHAR
STARTCHAR 00D7
ENCODING 215
SWIDTH 1000 0
DWIDTH 14 0
BBX 8 9 3 -1
BITMAP
81
81
42
24
18
18
24
42
81
ENDCHAR
STARTCHAR 00D8
ENCODING 216
SWIDTH 928 0
DWIDTH 13 0
BBX 11 11 1 0
BITMAP
1F60
20C0
40C0
8120
8220
8420
8820
9820
7040
2080
5F00
ENDCHAR
STARTCHAR 00D9
ENCODING 217
SWIDTH 642 0
DWIDTH 9 0
BBX 7 14 1 0
BITMAP
20
10
00
82
82
82
82
82
82
82
82
82
44
38
ENDCHAR
STARTCHAR 00DA
ENCODING 218
SWIDTH 642 0
DWIDTH 9 0
BBX 7 14 1 0
BITMAP
08
10
00
82
82
82
82
82
82
82
82
82
44
38
ENDCHAR
STARTCHAR 00DB
ENCODING 219
SWIDTH 642 0
DWIDTH 9 0
BBX 7 13 1 1
BITMAP
38
00
82
82
82
82
82
82
82
82
82
44
38
ENDCHAR
STARTCHAR 00DC
ENCODING 220
SWIDTH 642 0
DWIDTH 9 0
BBX 7 13 1 0
BITMAP
6C
68
82
82
82
82
82
82
82
82
84
44
38
ENDCHAR
STARTCHAR 00DD
ENCODING 221
SWIDTH 642 0
DWIDTH 9 0
BBX 7 14 1 0
BITMAP
08
10
10
82
44
44
28
38
10
10
10
10
10
10
ENDCHAR
STARTCHAR 00DE
ENCODING 222
SWIDTH 571 0
DWIDTH 8 0
BBX 6 11 1 0
BITMAP
80
80
80
F8
84
84
84
8C
F8
80
80
ENDCHAR
STARTCHAR 00DF
ENCODING 223
SWIDTH 571 0
DWIDTH 8 0
BBX 6 11 1 0
BITMAP
78
C4
84
8C
B0
88
84
84
84
8C
B8
ENDCHAR
STARTCHAR 00E0
ENCODING 224
SWIDTH 714 0
DWIDTH 10 0
BBX 8 11 1 1
BITMAP
18
00
00
3D
43
81
81
81
81
43
3D
ENDCHAR
STARTCHAR 00E1
ENCODING 225
SWIDTH 714 0
DWIDTH 10 0
BBX 8 11 1 1
BITMAP
08
00
00
3D
43
81
81
81
81
43
3D
ENDCHAR
STARTCHAR 00E2
ENCODING 226
SWIDTH 714 0
DWIDTH 10 0
BBX 8 11 1 0
BITMAP
18
24
00
3D
43
81
81
81
81
43
3D
ENDCHAR
STARTCHAR 00E3
ENCODING 227
SWIDTH 714 0
DWIDTH 10 0
BBX 8 11 1 0
BITMAP
3E
00
00
3D
43
81
81
81
81
43
3D
ENDCHAR
STARTCHAR 00E4
ENCODING 228
SWIDTH 714 0
DWIDTH 10 0
BBX 8 11 1 0
BITMAP
24
24
00
3D
43
81
81
81
81
43
3D
ENDCHAR
STARTCHAR 00E5
ENCODING 229
SWIDTH 714 0
DWIDTH 10 0
BBX 8 13 1 0
BITMAP
18
24
24
18
00
3D
43
81
81
81
81
43
3D
ENDCHAR
STARTCHAR 00E6
ENCODING 230
SWIDTH 1214 0
DWIDTH 17 0
BBX 15 8 1 0
BITMAP
3D78
4384
8104
81FE
8100
8100
4384
3D78
ENDCHAR
STARTCHAR 00E7
ENCODING 231
SWIDTH 642 0
DWIDTH 9 0
BBX 7 11 1 -3
BITMAP
3C
42
80
80
80
80
42
3C
10
08
38
ENDCHAR
STARTCHAR 00E8
ENCODING 232
SWIDTH 642 0
DWIDTH 9 0
BBX 8 11 1 1
BITMAP
10
00
00
3C
42
82
FF
80
82
42
3C
ENDCHAR
STARTCHAR 00E9
ENCODING 233
SWIDTH 642 0
DWIDTH 9 0
BBX 8 11 1 1
BITMAP
18
00
00
3C
42
82
FF
80
82
42
3C
ENDCHAR
STARTCHAR 00EA
ENCODING 234
SWIDTH 642 0
DWIDTH 9 0
BBX 8 11 1 0
BITMAP
18
24
00
3C
42
82
FF
80
82
42
3C
ENDCHAR
STARTCHAR 00EB
ENCODING 235
SWIDTH 642 0
DWIDTH 9 0
BBX 8 11 1 0
BITMAP
64
64
00
3C
42
82
FF
80
82
42
3C
ENDCHAR
STARTCHAR 00EC
ENCODING 236
SWIDTH 214 0
DWIDTH 3 0
BBX 2 11 0 0
BITMAP
80
40
00
40
40
40
40
40
40
40
40
ENDCHAR
STARTCHAR 00ED
ENCODING 237
SWIDTH 214 0
DWIDTH 3 0
BBX 2 11 1 0
BITMAP
40
80
00
80
80
80
80
80
80
80
80
ENDCHAR
STARTCHAR 00EE
ENCODING 238
SWIDTH 214 0
DWIDTH 3 0
BBX 3 11 0 0
BITMAP
60
A0
00
40
40
40
40
40
40
40
40
ENDCHAR
STARTCHAR 00EF
ENCODING 239
SWIDTH 142 0
DWIDTH 2 0
BBX 4 11 -1 0
BITMAP
D0
D0
00
20
20
20
20
20
20
20
20
ENDCHAR
STARTCHAR 00F0
ENCODING 240
SWIDTH 714 0
DWIDTH 10 0
BBX 8 11 2 0
BITMAP
14
38
04
3E
42
81
81
81
81
42
3C
ENDCHAR
STARTCHAR 00F1
ENCODING 241
SWIDTH 642 0
DWIDTH 9 0
BBX 7 11 1 0
BITMAP
7C
00
00
BC
C6
82
82
82
82
82
82
ENDCHAR
STARTCHAR 00F2
ENCODING 242
SWIDTH 714 0
DWIDTH 10 0
BBX 8 11 1 1
BITMAP
18
00
00
3C
42
81
81
81
81
42
3C
ENDCHAR
STARTCHAR 00F3
ENCODING 243
SWIDTH 714 0
DWIDTH 10 0
BBX 8 11 1 1
BITMAP
18
00
00
3C
42
81
81
81
81
42
3C
ENDCHAR
STARTCHAR 00F4
ENCODING 244
SWIDTH 714 0
DWIDTH 10 0
BBX 8 11 1 0
BITMAP
18
24
00
3C
42
81
81
81
81
42
3C
ENDCHAR
STARTCHAR 00F5
ENCODING 245
SWIDTH 714 0
DWIDTH 10 0
BBX 8 11 1 0
BITMAP
7C
00
00
3C
42
81
81
81
81
42
3C
ENDCHAR
STARTCHAR 00F6
ENCODING 246
SWIDTH 714 0
DWIDTH 10 0
BBX 8 11 1 0
BITMAP
6C
6C
00
3C
42
81
81
81
81
42
3C
ENDCHAR
STARTCHAR 00F7
ENCODING 247
SWIDTH 1000 0
DWIDTH 14 0
BBX 10 7 2 1
BITMAP
0800
0800
0000
FFC0
0000
0800
0800
ENDCHAR
STARTCHAR 00F8
ENCODING 248
SWIDTH 714 0
DWIDTH 10 0
BBX 8 8 1 0
BITMAP
3D
42
85
89
91
B1
62
7C
ENDCHAR
STARTCHAR 00F9
ENCODING 249
SWIDTH 642 0
DWIDTH 9 0
BBX 7 12 1 0
BITMAP
20
10
00
00
82
82
82
82
82
82
44
3C
ENDCHAR
STARTCHAR 00FA
ENCODING 250
SWIDTH 642 0
DWIDTH 9 0
BBX 7 12 1 0
BITMAP
08
10
00
00
82
82
82
82
82
82
44
3C
ENDCHAR
STARTCHAR 00FB
ENCODING 251
SWIDTH 642 0
DWIDTH 9 0
BBX 7 11 1 0
BITMAP
38
6C
00
82
82
82
82
82
82
44
3C
ENDCHAR
STARTCHAR 00FC
ENCODING 252
SWIDTH 642 0
DWIDTH 9 0
BBX 7 11 1 0
BITMAP
6C
68
00
82
82
82
82
82
84
44
78
ENDCHAR
STARTCHAR 00FD
ENCODING 253
SWIDTH 571 0
DWIDTH 8 0
BBX 7 14 0 -3
BITMAP
08
10
00
82
42
44
24
2C
18
18
10
10
20
20
ENDCHAR
STARTCHAR 00FE
ENCODING 254
SWIDTH 714 0
DWIDTH 10 0
BBX 8 14 1 -3
BITMAP
80
80
80
BC
C2
81
81
81
81
C2
BC
80
80
80
ENDCHAR
STARTCHAR 00FF
ENCODING 255
SWIDTH 500 0
DWIDTH 7 0
BBX 6 14 1 -3
BITMAP
48
48
00
84
84
C8
48
50
30
30
20
20
40
40
ENDCHAR
STARTCHAR 0100
ENCODING 256
SWIDTH 785 0
DWIDTH 11 0
BBX 9 13 1 0
BITMAP
3E00
0000
0800
0800
1400
1400
2200
2200
3F00
4100
4100
8080
8080
ENDCHAR
STARTCHAR 0101
ENCODING 257
SWIDTH 714 0
DWIDTH 10 0
BBX 8 11 1 0
BITMAP
7C
00
00
3D
43
81
81
81
81
43
3D
ENDCHAR
STARTCHAR 0102
ENCODING 258
SWIDTH 714 0
DWIDTH 10 0
BBX 9 13 1 1
BITMAP
2400
1C00
0800
1800
1800
1400
2400
2200
7E00
4100
8100
8100
8080
ENDCHAR
STARTCHAR 0103
ENCODING 259
SWIDTH 714 0
DWIDTH 10 0
BBX 8 11 1 0
BITMAP
3C
00
00
3D
43
81
81
81
81
43
3D
ENDCHAR
STARTCHAR 0104
ENCODING 260
SWIDTH 714 0
DWIDTH 10 0
BBX 10 13 0 -2
BITMAP
0C00
0C00
1A00
1200
1100
3F00
2180
4080
4080
C040
0080
0080
00C0
ENDCHAR
STARTCHAR 0105
ENCODING 261
SWIDTH 714 0
DWIDTH 10 0
BBX 8 11 1 -3
BITMAP
3D
43
81
81
81
81
43
3D
02
02
03
ENDCHAR
STARTCHAR 0106
ENCODING 262
SWIDTH 857 0
DWIDTH 12 0
BBX 9 14 1 0
BITMAP
0200
0400
0000
1F00
2180
4000
8000
8000
8000
8000
8000
4000
2080
1F00
ENDCHAR
STARTCHAR 0107
ENCODING 263
SWIDTH 642 0
DWIDTH 9 0
BBX 7 11 1 1
BITMAP
08
00
00
3C
42
80
80
80
80
42
3C
ENDCHAR
STARTCHAR 0108
ENCODING 264
SWIDTH 857 0
DWIDTH 12 0
BBX 9 13 1 1
BITMAP
1E00
0000
1F00
2180
4000
8000
8000
8000
8000
8000
4000
2080
1F00
ENDCHAR
STARTCHAR 0109
ENCODING 265
SWIDTH 642 0
DWIDTH 9 0
BBX 7 11 1 0
BITMAP
18
24
00
3C
42
80
80
80
80
42
3C
ENDCHAR
STARTCHAR 010A
ENCODING 266
SWIDTH 857 0
DWIDTH 12 0
BBX 9 13 1 0
BITMAP
0C00
0C00
1F00
2080
4000
8000
8000
8000
8000
8000
4000
2080
1F00
ENDCHAR
STARTCHAR 010B
ENCODING 267
SWIDTH 571 0
DWIDTH 8 0
BBX 7 11 1 0
BITMAP
10
10
00
3C
46
80
80
80
80
46
3C
ENDCHAR
STARTCHAR 010C
ENCODING 268
SWIDTH 857 0
DWIDTH 12 0
BBX 9 13 1 1
BITMAP
0E00
0000
1F00
2180
4000
8000
8000
8000
8000
8000
4000
2080
1F00
ENDCHAR
STARTCHAR 010D
ENCODING 269
SWIDTH 642 0
DWIDTH 9 0
BBX 7 11 1 0
BITMAP
24
18
00
3C
42
80
80
80
80
42
3C
ENDCHAR
STARTCHAR 010E
ENCODING 270
SWIDTH 714 0
DWIDTH 10 0
BBX 8 14 1 0
BITMAP
48
38
30
F8
86
82
81
81
81
81
81
82
86
FC
ENDCHAR
STARTCHAR 010F
ENCODING 271
SWIDTH 714 0
DWIDTH 10 0
BBX 9 11 1 0
BITMAP
0180
0180
0180
3D00
4300
8100
8100
8100
8100
4300
3D00
ENDCHAR
STARTCHAR 0110
ENCODING 272
SWIDTH 785 0
DWIDTH 11 0
BBX 10 11 0 0
BITMAP
7E00
4180
4080
4040
4040
F840
4040
4040
4080
4180
7E00
ENDCHAR
STARTCHAR 0111
ENCODING 273
SWIDTH 714 0
DWIDTH 10 0
BBX 9 11 1 0
BITMAP
0100
0780
0100
3D00
4300
8100
8100
8100
8100
4300
3D00
ENDCHAR
STARTCHAR 0112
ENCODING 274
SWIDTH 500 0
DWIDTH 7 0
BBX 6 13 1 0
BITMAP
F8
00
FC
80
80
80
80
FC
80
80
80
80
FC
ENDCHAR
STARTCHAR 0113
ENCODING 275
SWIDTH 642 0
DWIDTH 9 0
BBX 8 11 1 0
BITMAP
7C
00
00
3C
46
82
FF
80
82
46
3C
ENDCHAR
STARTCHAR 0114
ENCODING 276
SWIDTH 500 0
DWIDTH 7 0
BBX 6 14 1 0
BITMAP
88
C8
70
FC
80
80
80
80
FC
80
80
80
80
FC
ENDCHAR
STARTCHAR 0115
ENCODING 277
SWIDTH 642 0
DWIDTH 9 0
BBX 8 11 1 0
BITMAP
3C
00
00
3C
42
82
FF
80
82
42
3C
ENDCHAR
STARTCHAR 0116
ENCODING 278
SWIDTH 500 0
DWIDTH 7 0
BBX 6 13 1 0
BITMAP
30
30
FC
80
80
80
80
FC
80
80
80
80
FC
ENDCHAR
STARTCHAR 0117
ENCODING 279
SWIDTH 642 0
DWIDTH 9 0
BBX 8 11 1 0
BITMAP
10
10
00
3C
46
82
FF
80
82
46
3C
ENDCHAR
STARTCHAR 0118
ENCODING 280
SWIDTH 500 0
DWIDTH 7 0
BBX 6 14 1 -3
BITMAP
FC
80
80
80
80
FC
80
80
80
80
FC
10
10
1C
ENDCHAR
STARTCHAR 0119
ENCODING 281
SWIDTH 642 0
DWIDTH 9 0
BBX 8 11 1 -3
BITMAP
3C
42
82
FF
80
82
42
3C
10
10
18
ENDCHAR
STARTCHAR 011A
ENCODING 282
SWIDTH 500 0
DWIDTH 7 0
BBX 6 14 1 0
BITMAP
48
78
30
FC
80
80
80
80
FC
80
80
80
80
FC
ENDCHAR
STARTCHAR 011B
ENCODING 283
SWIDTH 642 0
DWIDTH 9 0
BBX 8 11 1 0
BITMAP
24
18
00
3C
42
82
FF
80
82
42
3C
ENDCHAR
STARTCHAR 011C
ENCODING 284
SWIDTH 857 0
DWIDTH 12 0
BBX 11 13 1 1
BITMAP
0F00
0000
1F00
30C0
4040
8000
8000
8000
81E0
8020
4040
30C0
1F00
ENDCHAR
STARTCHAR 011D
ENCODING 285
SWIDTH 714 0
DWIDTH 10 0
BBX 8 14 1 -3
BITMAP
18
24
00
3D
43
81
81
81
81
43
3D
01
42
3C
ENDCHAR
STARTCHAR 011E
ENCODING 286
SWIDTH 928 0
DWIDTH 13 0
BBX 11 13 1 0
BITMAP
1F00
0000
1F00
30C0
4040
8000
8000
8000
81E0
8020
4040
30C0
1F00
ENDCHAR
STARTCHAR 011F
ENCODING 287
SWIDTH 714 0
DWIDTH 10 0
BBX 8 14 1 -3
BITMAP
3C
00
00
3D
43
81
81
81
81
43
3D
01
42
3C
ENDCHAR
STARTCHAR 0120
ENCODING 288
SWIDTH 785 0
DWIDTH 11 0
BBX 10 13 1 0
BITMAP
0400
0400
1E00
2180
4080
8000
8000
8000
83C0
8040
40C0
2180
1F00
ENDCHAR
STARTCHAR 0121
ENCODING 289
SWIDTH 714 0
DWIDTH 10 0
BBX 8 14 1 -3
BITMAP
18
18
00
3D
43
81
81
81
81
43
3D
01
42
3C
ENDCHAR
STARTCHAR 0122
ENCODING 290
SWIDTH 857 0
DWIDTH 12 0
BBX 11 14 1 -3
BITMAP
1F00
30C0
4040
8000
8000
8000
81E0
8020
4040
30C0
1F00
0400
0200
0E00
ENDCHAR
STARTCHAR 0123
ENCODING 291
SWIDTH 714 0
DWIDTH 10 0
BBX 8 16 1 -3
BITMAP
08
10
08
08
00
3D
43
81
81
81
81
43
3D
01
42
3C
ENDCHAR
STARTCHAR 0124
ENCODING 292
SWIDTH 642 0
DWIDTH 9 0
BBX 7 13 1 0
BITMAP
10
28
82
82
82
82
82
FE
82
82
82
82
82
ENDCHAR
STARTCHAR 0125
ENCODING 293
SWIDTH 642 0
DWIDTH 9 0
BBX 7 13 1 1
BITMAP
38
6C
80
80
80
BC
C6
82
82
82
82
82
82
ENDCHAR
STARTCHAR 0126
ENCODING 294
SWIDTH 642 0
DWIDTH 9 0
BBX 9 11 0 0
BITMAP
4100
4100
FF80
4100
4100
7F00
4100
4100
4100
4100
4100
ENDCHAR
STARTCHAR 0127
ENCODING 295
SWIDTH 642 0
DWIDTH 9 0
BBX 8 11 0 0
BITMAP
40
F8
40
5E
63
41
41
41
41
41
41
ENDCHAR
STARTCHAR 0128
ENCODING 296
SWIDTH 214 0
DWIDTH 3 0
BBX 5 13 -1 0
BITMAP
C8
B8
20
20
20
20
20
20
20
20
20
20
20
ENDCHAR
STARTCHAR 0129
ENCODING 297
SWIDTH 214 0
DWIDTH 3 0
BBX 5 11 -1 0
BITMAP
F8
00
00
20
20
20
20
20
20
20
20
ENDCHAR
STARTCHAR 012A
ENCODING 298
SWIDTH 214 0
DWIDTH 3 0
BBX 5 13 -1 0
BITMAP
F8
00
20
20
20
20
20
20
20
20
20
20
20
ENDCHAR
STARTCHAR 012B
ENCODING 299
SWIDTH 214 0
DWIDTH 3 0
BBX 3 11 0 0
BITMAP
E0
00
00
40
40
40
40
40
40
40
40
ENDCHAR
STARTCHAR 012C
ENCODING 300
SWIDTH 214 0
DWIDTH 3 0
BBX 5 13 -1 0
BITMAP
88
70
20
20
20
20
20
20
20
20
20
20
20
ENDCHAR
STARTCHAR 012D
ENCODING 301
SWIDTH 214 0
DWIDTH 3 0
BBX 4 11 -1 0
BITMAP
F0
00
00
20
20
20
20
20
20
20
20
ENDCHAR
STARTCHAR 012E
ENCODING 302
SWIDTH 214 0
DWIDTH 3 0
BBX 3 14 0 -3
BITMAP
40
40
40
40
40
40
40
40
40
40
40
80
80
E0
ENDCHAR
STARTCHAR 012F
ENCODING 303
SWIDTH 214 0
DWIDTH 3 0
BBX 2 14 0 -3
BITMAP
C0
C0
00
40
40
40
40
40
40
40
40
80
80
C0
ENDCHAR
STARTCHAR 0130
ENCODING 304
SWIDTH 214 0
DWIDTH 3 0
BBX 1 13 1 0
BITMAP
80
80
80
80
80
80
80
80
80
80
80
80
80
ENDCHAR
STARTCHAR 0131
ENCODING 305
SWIDTH 214 0
DWIDTH 3 0
BBX 1 8 1 0
BITMAP
80
80
80
80
80
80
80
80
ENDCHAR
STARTCHAR 0132
ENCODING 306
SWIDTH 714 0
DWIDTH 10 0
BBX 8 11 1 0
BITMAP
81
81
81
81
81
81
81
81
81
91
8E
ENDCHAR
STARTCHAR 0133
ENCODING 307
SWIDTH 428 0
DWIDTH 6 0
BBX 4 14 1 -3
BITMAP
D0
D0
00
90
90
90
90
90
90
90
90
10
10
30
ENDCHAR
STARTCHAR 0134
ENCODING 308
SWIDTH 428 0
DWIDTH 6 0
BBX 6 13 0 1
BITMAP
3C
00
08
08
08
08
08
08
08
08
08
88
70
ENDCHAR
STARTCHAR 0135
ENCODING 309
SWIDTH 214 0
DWIDTH 3 0
BBX 4 14 -1 -3
BITMAP
20
D0
00
20
20
20
20
20
20
20
20
20
20
60
ENDCHAR
STARTCHAR 0136
ENCODING 310
SWIDTH 571 0
DWIDTH 8 0
BBX 6 14 1 -3
BITMAP
84
88
90
A0
C0
C0
A0
B0
98
8C
84
00
30
70
ENDCHAR
STARTCHAR 0137
ENCODING 311
SWIDTH 500 0
DWIDTH 7 0
BBX 6 14 1 -3
BITMAP
80
80
80
8C
98
A0
C0
E0
B0
98
84
00
30
70
ENDCHAR
STARTCHAR 0138
ENCODING 312
SWIDTH 500 0
DWIDTH 7 0
BBX 6 8 1 0
BITMAP
88
90
A0
C0
C0
A0
98
8C
ENDCHAR
STARTCHAR 0139
ENCODING 313
SWIDTH 428 0
DWIDTH 6 0
BBX 5 14 1 0
BITMAP
30
20
40
80
80
80
80
80
80
80
80
80
80
F8
ENDCHAR
STARTCHAR 013A
ENCODING 314
SWIDTH 214 0
DWIDTH 3 0
BBX 2 14 1 0
BITMAP
40
C0
80
80
80
80
80
80
80
80
80
80
80
80
ENDCHAR
STARTCHAR 013B
ENCODING 315
SWIDTH 428 0
DWIDTH 6 0
BBX 5 14 1 -3
BITMAP
80
80
80
80
80
80
80
80
80
80
F8
00
60
60
ENDCHAR
STARTCHAR 013C
ENCODING 316
SWIDTH 214 0
DWIDTH 3 0
BBX 3 14 0 -3
BITMAP
40
40
40
40
40
40
40
40
40
40
40
00
60
E0
ENDCHAR
STARTCHAR 013D
ENCODING 317
SWIDTH 428 0
DWIDTH 6 0
BBX 5 11 1 0
BITMAP
A0
A0
A0
A0
80
80
80
80
80
80
F8
ENDCHAR
STARTCHAR 013E
ENCODING 318
SWIDTH 285 0
DWIDTH 4 0
BBX 3 11 1 0
BITMAP
A0
A0
A0
A0
80
80
80
80
80
80
80
ENDCHAR
STARTCHAR 013F
ENCODING 319
SWIDTH 428 0
DWIDTH 6 0
BBX 5 11 1 0
BITMAP
80
80
80
80
80
A0
A0
80
80
80
F8
ENDCHAR
STARTCHAR 0140
ENCODING 320
SWIDTH 285 0
DWIDTH 4 0
BBX 3 11 1 0
BITMAP
80
80
80
80
80
A0
A0
80
80
80
80
ENDCHAR
STARTCHAR 0141
ENCODING 321
SWIDTH 500 0
DWIDTH 7 0
BBX 6 11 1 0
BITMAP
40
40
40
50
60
40
C0
40
40
40
7C
ENDCHAR
STARTCHAR 0142
ENCODING 322
SWIDTH 357 0
DWIDTH 5 0
BBX 3 11 1 0
BITMAP
40
40
40
60
40
C0
40
40
40
40
40
ENDCHAR
STARTCHAR 0143
ENCODING 323
SWIDTH 714 0
DWIDTH 10 0
BBX 8 14 1 0
BITMAP
0C
08
10
81
81
C1
A1
B1
99
89
85
83
81
81
ENDCHAR
STARTCHAR 0144
ENCODING 324
SWIDTH 642 0
DWIDTH 9 0
BBX 7 11 1 1
BITMAP
10
30
00
BC
C6
82
82
82
82
82
82
ENDCHAR
STARTCHAR 0145
ENCODING 325
SWIDTH 714 0
DWIDTH 10 0
BBX 8 14 1 -3
BITMAP
81
81
C1
A1
B1
99
89
85
83
81
81
00
18
38
ENDCHAR
STARTCHAR 0146
ENCODING 326
SWIDTH 642 0
DWIDTH 9 0
BBX 7 11 1 -3
BITMAP
BC
C6
82
82
82
82
82
82
00
30
30
ENDCHAR
STARTCHAR 0147
ENCODING 327
SWIDTH 714 0
DWIDTH 10 0
BBX 8 13 1 0
BITMAP
24
18
81
81
C1
A1
B1
99
89
85
83
81
81
ENDCHAR
STARTCHAR 0148
ENCODING 328
SWIDTH 642 0
DWIDTH 9 0
BBX 7 11 1 0
BITMAP
6C
38
00
BC
C6
82
82
82
82
82
82
ENDCHAR
STARTCHAR 0149
ENCODING 329
SWIDTH 642 0
DWIDTH 9 0
BBX 8 11 0 0
BITMAP
80
80
80
AE
33
21
21
21
21
21
21
ENDCHAR
STARTCHAR 014A
ENCODING 330
SWIDTH 785 0
DWIDTH 11 0
BBX 9 11 1 0
BITMAP
BC00
C300
8100
8080
8080
8080
8080
8080
8100
9300
9E00
ENDCHAR
STARTCHAR 014B
ENCODING 331
SWIDTH 642 0
DWIDTH 9 0
BBX 7 11 1 -3
BITMAP
BC
C6
82
82
82
82
82
82
02
02
06
ENDCHAR
STARTCHAR 014C
ENCODING 332
SWIDTH 928 0
DWIDTH 13 0
BBX 11 13 1 0
BITMAP
1F00
0000
1F00
2080
4040
8020
8020
8020
8020
8020
4040
2080
1F00
ENDCHAR
STARTCHAR 014D
ENCODING 333
SWIDTH 714 0
DWIDTH 10 0
BBX 8 11 1 0
BITMAP
7C
00
00
3C
42
81
81
81
81
42
3C
ENDCHAR
STARTCHAR 014E
ENCODING 334
SWIDTH 928 0
DWIDTH 13 0
BBX 11 13 1 1
BITMAP
0E00
0000
1F00
2080
4040
8020
8020
8020
8020
8020
4040
2080
1F00
ENDCHAR
STARTCHAR 014F
ENCODING 335
SWIDTH 714 0
DWIDTH 10 0
BBX 8 11 1 0
BITMAP
3C
00
00
3C
42
81
81
81
81
42
3C
ENDCHAR
STARTCHAR 0150
ENCODING 336
SWIDTH 928 0
DWIDTH 13 0
BBX 11 14 1 0
BITMAP
0580
0B00
0000
1F00
2080
4040
8020
8020
8020
8020
8020
4040
2080
1F00
ENDCHAR
STARTCHAR 0151
ENCODING 337
SWIDTH 714 0
DWIDTH 10 0
BBX 8 12 1 0
BITMAP
1A
14
00
00
3C
42
81
81
81
81
42
3C
ENDCHAR
STARTCHAR 0152
ENCODING 338
SWIDTH 1214 0
DWIDTH 17 0
BBX 16 11 1 0
BITMAP
1F3F
20A0
4060
8020
8020
803F
8020
8020
4060
20E0
1F3F
ENDCHAR
STARTCHAR 0153
ENCODING 339
SWIDTH 1142 0
DWIDTH 16 0
BBX 15 8 1 0
BITMAP
3C78
4284
8104
81FE
8100
8104
4284
3C78
ENDCHAR
STARTCHAR 0154
ENCODING 340
SWIDTH 571 0
DWIDTH 8 0
BBX 6 14 1 1
BITMAP
18
10
20
F8
8C
84
84
8C
F8
A0
90
90
88
84
ENDCHAR
STARTCHAR 0155
ENCODING 341
SWIDTH 357 0
DWIDTH 5 0
BBX 4 11 1 1
BITMAP
20
40
00
B0
C0
80
80
80
80
80
80
ENDCHAR
STARTCHAR 0156
ENCODING 342
SWIDTH 571 0
DWIDTH 8 0
BBX 6 14 1 -3
BITMAP
F8
8C
84
84
8C
F8
A0
90
90
88
84
00
30
70
ENDCHAR
STARTCHAR 0157
ENCODING 343
SWIDTH 285 0
DWIDTH 4 0
BBX 3 11 1 -3
BITMAP
E0
C0
80
80
80
80
80
80
00
40
C0
ENDCHAR
STARTCHAR 0158
ENCODING 344
SWIDTH 571 0
DWIDTH 8 0
BBX 6 14 1 0
BITMAP
C8
50
20
F8
8C
84
84
8C
F8
A0
90
90
88
84
ENDCHAR
STARTCHAR 0159
ENCODING 345
SWIDTH 357 0
DWIDTH 5 0
BBX 4 11 1 0
BITMAP
B0
60
00
B0
C0
80
80
80
80
80
80
ENDCHAR
STARTCHAR 015A
ENCODING 346
SWIDTH 500 0
DWIDTH 7 0
BBX 5 14 1 0
BITMAP
10
20
00
70
98
80
80
60
30
10
08
08
98
70
ENDCHAR
STARTCHAR 015B
ENCODING 347
SWIDTH 428 0
DWIDTH 6 0
BBX 4 11 1 1
BITMAP
40
00
00
60
90
80
40
30
10
90
E0
ENDCHAR
STARTCHAR 015C
ENCODING 348
SWIDTH 500 0
DWIDTH 7 0
BBX 5 13 1 1
BITMAP
70
00
70
98
80
80
40
30
10
08
08
98
70
ENDCHAR
STARTCHAR 015D
ENCODING 349
SWIDTH 428 0
DWIDTH 6 0
BBX 4 11 1 0
BITMAP
60
90
00
60
90
80
40
30
10
90
E0
ENDCHAR
STARTCHAR 015E
ENCODING 350
SWIDTH 500 0
DWIDTH 7 0
BBX 5 14 1 -3
BITMAP
70
88
80
C0
60
30
10
08
08
98
70
20
10
70
ENDCHAR
STARTCHAR 015F
ENCODING 351
SWIDTH 428 0
DWIDTH 6 0
BBX 4 11 1 -3
BITMAP
60
90
80
C0
60
10
10
90
60
60
60
ENDCHAR
STARTCHAR 0160
ENCODING 352
SWIDTH 500 0
DWIDTH 7 0
BBX 5 13 1 1
BITMAP
70
00
70
98
80
80
60
30
18
08
08
98
70
ENDCHAR
STARTCHAR 0161
ENCODING 353
SWIDTH 428 0
DWIDTH 6 0
BBX 4 11 1 0
BITMAP
90
60
00
60
90
80
40
30
10
90
E0
ENDCHAR
STARTCHAR 0162
ENCODING 354
SWIDTH 428 0
DWIDTH 6 0
BBX 6 14 0 -4
BITMAP
FC
20
20
20
20
20
20
20
20
20
20
00
20
20
ENDCHAR
STARTCHAR 0163
ENCODING 355
SWIDTH 357 0
DWIDTH 5 0
BBX 4 14 1 -4
BITMAP
40
40
40
F0
40
40
40
40
40
40
40
00
40
40
ENDCHAR
STARTCHAR 0164
ENCODING 356
SWIDTH 428 0
DWIDTH 6 0
BBX 6 14 0 0
BITMAP
CC
58
30
FC
20
20
20
20
20
20
20
20
20
20
ENDCHAR
STARTCHAR 0165
ENCODING 357
SWIDTH 357 0
DWIDTH 5 0
BBX 4 11 1 0
BITMAP
50
50
40
F0
40
40
40
40
40
40
40
ENDCHAR
STARTCHAR 0166
ENCODING 358
SWIDTH 428 0
DWIDTH 6 0
BBX 6 11 0 0
BITMAP
FC
20
20
20
20
F8
20
20
20
20
20
ENDCHAR
STARTCHAR 0167
ENCODING 359
SWIDTH 285 0
DWIDTH 4 0
BBX 4 11 0 0
BITMAP
40
40
40
F0
40
40
40
F0
40
40
40
ENDCHAR
STARTCHAR 0168
ENCODING 360
SWIDTH 642 0
DWIDTH 9 0
BBX 7 13 1 0
BITMAP
7C
00
82
82
82
82
82
82
82
82
82
44
38
ENDCHAR
STARTCHAR 0169
ENCODING 361
SWIDTH 642 0
DWIDTH 9 0
BBX 7 11 1 0
BITMAP
7C
00
00
82
82
82
82
82
82
44
3C
ENDCHAR
STARTCHAR 016A
ENCODING 362
SWIDTH 642 0
DWIDTH 9 0
BBX 7 13 1 0
BITMAP
7C
00
82
82
82
82
82
82
82
82
82
44
38
ENDCHAR
STARTCHAR 016B
ENCODING 363
SWIDTH 642 0
DWIDTH 9 0
BBX 7 11 1 0
BITMAP
7C
00
00
82
82
82
82
82
82
44
3C
ENDCHAR
STARTCHAR 016C
ENCODING 364
SWIDTH 642 0
DWIDTH 9 0
BBX 7 13 1 0
BITMAP
7C
00
82
82
82
82
82
82
82
82
82
44
38
ENDCHAR
STARTCHAR 016D
ENCODING 365
SWIDTH 642 0
DWIDTH 9 0
BBX 7 11 1 0
BITMAP
7C
00
00
82
82
82
82
82
82
44
3C
ENDCHAR
STARTCHAR 016E
ENCODING 366
SWIDTH 642 0
DWIDTH 9 0
BBX 7 15 1 0
BITMAP
30
48
48
30
82
82
82
82
82
82
82
82
82
44
38
ENDCHAR
STARTCHAR 016F
ENCODING 367
SWIDTH 642 0
DWIDTH 9 0
BBX 7 13 1 0
BITMAP
30
48
48
30
00
82
82
82
82
82
82
44
3C
ENDCHAR
STARTCHAR 0170
ENCODING 368
SWIDTH 642 0
DWIDTH 9 0
BBX 7 14 1 0
BITMAP
16
24
00
82
82
82
82
82
82
82
82
82
44
38
ENDCHAR
STARTCHAR 0171
ENCODING 369
SWIDTH 642 0
DWIDTH 9 0
BBX 7 12 1 0
BITMAP
1E
24
00
00
82
82
82
82
82
82
44
3C
ENDCHAR
STARTCHAR 0172
ENCODING 370
SWIDTH 642 0
DWIDTH 9 0
BBX 7 14 1 -3
BITMAP
82
82
82
82
82
82
82
82
82
C4
78
20
20
38
ENDCHAR
STARTCHAR 0173
ENCODING 371
SWIDTH 642 0
DWIDTH 9 0
BBX 7 11 1 -3
BITMAP
82
82
82
82
82
82
82
7C
10
20
38
ENDCHAR
STARTCHAR 0174
ENCODING 372
SWIDTH 928 0
DWIDTH 13 0
BBX 12 13 1 0
BITMAP
0E00
0000
8410
8420
8620
4A20
4A20
4940
5140
3140
30C0
2080
2000
ENDCHAR
STARTCHAR 0175
ENCODING 373
SWIDTH 857 0
DWIDTH 12 0
BBX 11 11 0 0
BITMAP
0600
0900
0000
8420
4420
4620
4A40
2940
3180
1080
1080
ENDCHAR
STARTCHAR 0176
ENCODING 374
SWIDTH 642 0
DWIDTH 9 0
BBX 7 13 1 0
BITMAP
10
68
82
44
44
28
38
10
10
10
10
10
10
ENDCHAR
STARTCHAR 0177
ENCODING 375
SWIDTH 571 0
DWIDTH 8 0
BBX 7 14 0 -3
BITMAP
18
2C
00
82
42
44
24
2C
18
18
10
10
20
20
ENDCHAR
STARTCHAR 0178
ENCODING 376
SWIDTH 571 0
DWIDTH 8 0
BBX 6 13 1 0
BITMAP
68
68
84
C4
48
28
28
10
10
10
10
10
10
ENDCHAR
STARTCHAR 0179
ENCODING 377
SWIDTH 500 0
DWIDTH 7 0
BBX 5 14 1 1
BITMAP
30
20
40
F8
18
10
10
20
20
60
40
40
80
F8
ENDCHAR
STARTCHAR 017A
ENCODING 378
SWIDTH 357 0
DWIDTH 5 0
BBX 5 12 0 0
BITMAP
10
30
20
00
F8
10
10
20
20
40
80
F8
ENDCHAR
STARTCHAR 017B
ENCODING 379
SWIDTH 500 0
DWIDTH 7 0
BBX 5 13 1 0
BITMAP
40
40
F8
18
10
30
20
60
40
40
80
80
F8
ENDCHAR
STARTCHAR 017C
ENCODING 380
SWIDTH 357 0
DWIDTH 5 0
BBX 5 11 0 0
BITMAP
60
60
00
F8
10
10
20
40
40
80
F8
ENDCHAR
STARTCHAR 017D
ENCODING 381
SWIDTH 500 0
DWIDTH 7 0
BBX 5 14 1 0
BITMAP
88
50
20
F8
18
10
10
20
20
60
40
40
80
F8
ENDCHAR
STARTCHAR 017E
ENCODING 382
SWIDTH 357 0
DWIDTH 5 0
BBX 5 11 0 0
BITMAP
D0
60
00
F8
10
10
20
20
40
80
F8
ENDCHAR
STARTCHAR 017F
ENCODING 383
SWIDTH 214 0
DWIDTH 3 0
BBX 3 11 1 0
BITMAP
E0
80
80
80
80
80
80
80
80
80
80
ENDCHAR
STARTCHAR 0192
ENCODING 402
SWIDTH 571 0
DWIDTH 8 0
BBX 6 14 0 -3
BITMAP
0C
08
08
10
10
3C
10
10
10
10
20
20
20
C0
ENDCHAR
STARTCHAR 01CE
ENCODING 462
SWIDTH 714 0
DWIDTH 10 0
BBX 8 11 1 0
BITMAP
24
18
00
3D
43
81
81
81
81
43
3D
ENDCHAR
STARTCHAR 01D0
ENCODING 464
SWIDTH 214 0
DWIDTH 3 0
BBX 4 11 0 0
BITMAP
B0
60
00
40
40
40
40
40
40
40
40
ENDCHAR
STARTCHAR 01D2
ENCODING 466
SWIDTH 714 0
DWIDTH 10 0
BBX 8 11 1 0
BITMAP
24
18
00
3C
42
81
81
81
81
42
3C
ENDCHAR
STARTCHAR 01D4
ENCODING 468
SWIDTH 642 0
DWIDTH 9 0
BBX 7 11 1 0
BITMAP
6C
18
00
82
82
82
82
82
82
44
3C
ENDCHAR
STARTCHAR 01D6
ENCODING 470
SWIDTH 642 0
DWIDTH 9 0
BBX 7 12 1 0
BITMAP
7C
00
6C
6C
82
82
82
82
82
82
44
78
ENDCHAR
STARTCHAR 01D8
ENCODING 472
SWIDTH 642 0
DWIDTH 9 0
BBX 7 12 1 0
BITMAP
08
10
6C
48
82
82
82
82
82
84
44
78
ENDCHAR
STARTCHAR 01DA
ENCODING 474
SWIDTH 642 0
DWIDTH 9 0
BBX 7 12 1 0
BITMAP
6C
38
6C
00
82
82
82
82
82
84
44
78
ENDCHAR
STARTCHAR 01DC
ENCODING 476
SWIDTH 642 0
DWIDTH 9 0
BBX 7 12 1 0
BITMAP
60
10
6C
48
82
82
82
82
82
84
44
78
ENDCHAR
STARTCHAR 01FA
ENCODING 506
SWIDTH 785 0
DWIDTH 11 0
BBX 9 16 1 0
BITMAP
0C00
0800
0800
1400
1400
0800
0800
1400
1400
2400
2200
3E00
4100
4100
8080
8080
ENDCHAR
STARTCHAR 01FB
ENCODING 507
SWIDTH 714 0
DWIDTH 10 0
BBX 8 15 1 0
BITMAP
0C
08
10
18
24
18
00
3D
43
81
81
81
81
43
3D
ENDCHAR
STARTCHAR 01FC
ENCODING 508
SWIDTH 1000 0
DWIDTH 14 0
BBX 13 14 0 1
BITMAP
0040
0080
0080
03F8
0300
0500
0D00
0900
19F8
1100
3F00
6100
4100
81F8
ENDCHAR
STARTCHAR 01FD
ENCODING 509
SWIDTH 1214 0
DWIDTH 17 0
BBX 15 12 1 0
BITMAP
0080
0100
0000
0000
3D78
4384
8106
81FE
8100
8100
4384
3D78
ENDCHAR
STARTCHAR 01FE
ENCODING 510
SWIDTH 928 0
DWIDTH 13 0
BBX 11 14 1 -1
BITMAP
0200
0400
0000
1F60
20C0
40C0
8120
8220
8420
8820
9820
7040
2080
5F00
ENDCHAR
STARTCHAR 01FF
ENCODING 511
SWIDTH 714 0
DWIDTH 10 0
BBX 8 11 1 0
BITMAP
18
00
00
3D
42
85
89
91
B1
62
7C
ENDCHAR
STARTCHAR 0251
ENCODING 593
SWIDTH 714 0
DWIDTH 10 0
BBX 8 8 1 0
BITMAP
3D
43
81
81
81
81
43
3D
ENDCHAR
STARTCHAR 0261
ENCODING 609
SWIDTH 571 0
DWIDTH 8 0
BBX 6 11 1 -3
BITMAP
70
CC
84
84
84
84
4C
74
04
8C
78
ENDCHAR
STARTCHAR 02C6
ENCODING 710
SWIDTH 500 0
DWIDTH 7 0
BBX 4 2 2 9
BITMAP
60
B0
ENDCHAR
STARTCHAR 02C7
ENCODING 711
SWIDTH 1000 0
DWIDTH 14 0
BBX 4 3 5 9
BITMAP
90
60
60
ENDCHAR
STARTCHAR 02C9
ENCODING 713
SWIDTH 1000 0
DWIDTH 14 0
BBX 6 1 4 8
BITMAP
FC
ENDCHAR
STARTCHAR 02CA
ENCODING 714
SWIDTH 1000 0
DWIDTH 14 0
BBX 4 4 5 6
BITMAP
10
30
40
80
ENDCHAR
STARTCHAR 02CB
ENCODING 715
SWIDTH 1000 0
DWIDTH 14 0
BBX 4 3 5 7
BITMAP
80
60
10
ENDCHAR
STARTCHAR 02D8
ENCODING 728
SWIDTH 428 0
DWIDTH 6 0
BBX 4 1 1 10
BITMAP
F0
ENDCHAR
STARTCHAR 02D9
ENCODING 729
SWIDTH 1000 0
DWIDTH 14 0
BBX 2 2 6 9
BITMAP
C0
C0
ENDCHAR
STARTCHAR 02DA
ENCODING 730
SWIDTH 357 0
DWIDTH 5 0
BBX 3 3 1 9
BITMAP
E0
A0
E0
ENDCHAR
STARTCHAR 02DB
ENCODING 731
SWIDTH 285 0
DWIDTH 4 0
BBX 2 3 1 -3
BITMAP
40
80
C0
ENDCHAR
STARTCHAR 02DC
ENCODING 732
SWIDTH 428 0
DWIDTH 6 0
BBX 4 1 1 10
BITMAP
F0
ENDCHAR
STARTCHAR 02DD
ENCODING 733
SWIDTH 571 0
DWIDTH 8 0
BBX 4 2 2 10
BITMAP
50
A0
ENDCHAR
STARTCHAR 0384
ENCODING 900
SWIDTH 357 0
DWIDTH 5 0
BBX 1 2 2 10
BITMAP
80
80
ENDCHAR
STARTCHAR 0385
ENCODING 901
SWIDTH 357 0
DWIDTH 5 0
BBX 4 2 1 11
BITMAP
20
B0
ENDCHAR
STARTCHAR 0386
ENCODING 902
SWIDTH 714 0
DWIDTH 10 0
BBX 9 11 1 0
BITMAP
4800
5800
5800
1400
2400
2200
7E00
4100
8100
8100
8080
ENDCHAR
STARTCHAR 0387
ENCODING 903
SWIDTH 285 0
DWIDTH 4 0
BBX 2 2 1 6
BITMAP
C0
C0
ENDCHAR
STARTCHAR 0388
ENCODING 904
SWIDTH 571 0
DWIDTH 8 0
BBX 9 11 -1 0
BITMAP
DF80
1000
1000
1000
1000
1F80
1000
1000
1000
1000
1F80
ENDCHAR
STARTCHAR 0389
ENCODING 905
SWIDTH 714 0
DWIDTH 10 0
BBX 9 11 0 0
BITMAP
A080
A080
2080
2080
2080
3F80
2080
2080
2080
2080
2080
ENDCHAR
STARTCHAR 038A
ENCODING 906
SWIDTH 285 0
DWIDTH 4 0
BBX 3 11 0 0
BITMAP
A0
A0
20
20
20
20
20
20
20
20
20
ENDCHAR
STARTCHAR 038C
ENCODING 908
SWIDTH 928 0
DWIDTH 13 0
BBX 12 11 0 0
BITMAP
8F80
9040
2020
4010
4010
4010
4010
4010
2020
1040
0F80
ENDCHAR
STARTCHAR 038E
ENCODING 910
SWIDTH 642 0
DWIDTH 9 0
BBX 9 11 -1 0
BITMAP
A080
9100
1100
0A00
0E00
0400
0400
0400
0400
0400
0400
ENDCHAR
STARTCHAR 038F
ENCODING 911
SWIDTH 857 0
DWIDTH 12 0
BBX 12 11 -1 0
BITMAP
C780
5860
1020
2010
2010
2010
2010
1020
1860
0CC0
3CF0
ENDCHAR
STARTCHAR 0390
ENCODING 912
SWIDTH 142 0
DWIDTH 2 0
BBX 4 11 -1 1
BITMAP
B0
20
00
20
20
20
20
20
20
20
20
ENDCHAR
STARTCHAR 0391
ENCODING 913
SWIDTH 714 0
DWIDTH 10 0
BBX 9 11 1 0
BITMAP
0800
1800
1800
1400
2400
2200
7E00
4100
8100
8100
8080
ENDCHAR
STARTCHAR 0392
ENCODING 914
SWIDTH 571 0
DWIDTH 8 0
BBX 6 11 1 0
BITMAP
F0
88
88
88
98
F0
8C
84
84
8C
F8
ENDCHAR
STARTCHAR 0393
ENCODING 915
SWIDTH 428 0
DWIDTH 6 0
BBX 5 11 1 0
BITMAP
F8
80
80
80
80
80
80
80
80
80
80
ENDCHAR
STARTCHAR 0394
ENCODING 916
SWIDTH 642 0
DWIDTH 9 0
BBX 8 10 0 1
BITMAP
08
08
1C
24
24
26
42
42
81
FF
ENDCHAR
STARTCHAR 0395
ENCODING 917
SWIDTH 500 0
DWIDTH 7 0
BBX 6 11 1 0
BITMAP
FC
80
80
80
80
FC
80
80
80
80
FC
ENDCHAR
STARTCHAR 0396
ENCODING 918
SWIDTH 500 0
DWIDTH 7 0
BBX 5 11 1 0
BITMAP
F8
18
10
10
20
20
60
40
40
80
F8
ENDCHAR
STARTCHAR 0397
ENCODING 919
SWIDTH 642 0
DWIDTH 9 0
BBX 7 11 1 0
BITMAP
82
82
82
82
82
FE
82
82
82
82
82
ENDCHAR
STARTCHAR 0398
ENCODING 920
SWIDTH 928 0
DWIDTH 13 0
BBX 11 11 1 0
BITMAP
1F00
2080
4040
8020
8020
9F20
8020
8020
4040
2080
1F00
ENDCHAR
STARTCHAR 0399
ENCODING 921
SWIDTH 214 0
DWIDTH 3 0
BBX 1 11 1 0
BITMAP
80
80
80
80
80
80
80
80
80
80
80
ENDCHAR
STARTCHAR 039A
ENCODING 922
SWIDTH 571 0
DWIDTH 8 0
BBX 6 11 1 0
BITMAP
8C
88
90
A0
C0
C0
A0
B0
98
88
84
ENDCHAR
STARTCHAR 039B
ENCODING 923
SWIDTH 714 0
DWIDTH 10 0
BBX 8 10 1 1
BITMAP
18
18
38
24
24
42
42
C2
81
81
ENDCHAR
STARTCHAR 039C
ENCODING 924
SWIDTH 928 0
DWIDTH 13 0
BBX 11 11 1 0
BITMAP
4040
4040
40C0
60C0
61C0
9140
9120
8A20
8A20
8420
8420
ENDCHAR
STARTCHAR 039D
ENCODING 925
SWIDTH 714 0
DWIDTH 10 0
BBX 8 11 1 0
BITMAP
81
81
C1
A1
B1
99
89
85
83
81
81
ENDCHAR
STARTCHAR 039E
ENCODING 926
SWIDTH 571 0
DWIDTH 8 0
BBX 6 11 1 0
BITMAP
FC
00
00
00
00
FC
00
00
00
00
FC
ENDCHAR
STARTCHAR 039F
ENCODING 927
SWIDTH 928 0
DWIDTH 13 0
BBX 11 11 1 0
BITMAP
1F00
2080
4040
8020
8020
8020
8020
8020
4040
2080
1F00
ENDCHAR
STARTCHAR 03A0
ENCODING 928
SWIDTH 642 0
DWIDTH 9 0
BBX 7 11 1 0
BITMAP
FE
82
82
82
82
82
82
82
82
82
82
ENDCHAR
STARTCHAR 03A1
ENCODING 929
SWIDTH 571 0
DWIDTH 8 0
BBX 6 11 1 0
BITMAP
F8
84
84
84
8C
F8
80
80
80
80
80
ENDCHAR
STARTCHAR 03A3
ENCODING 931
SWIDTH 500 0
DWIDTH 7 0
BBX 6 11 0 0
BITMAP
FC
40
20
20
10
10
10
20
60
40
FC
ENDCHAR
STARTCHAR 03A4
ENCODING 932
SWIDTH 428 0
DWIDTH 6 0
BBX 6 11 0 0
BITMAP
FC
20
20
20
20
20
20
20
20
20
20
ENDCHAR
STARTCHAR 03A5
ENCODING 933
SWIDTH 642 0
DWIDTH 9 0
BBX 7 11 1 0
BITMAP
82
44
44
28
38
10
10
10
10
10
10
ENDCHAR
STARTCHAR 03A6
ENCODING 934
SWIDTH 928 0
DWIDTH 13 0
BBX 11 11 1 0
BITMAP
0400
1F00
64C0
8460
8420
8420
8420
C420
6440
3F80
0400
ENDCHAR
STARTCHAR 03A7
ENCODING 935
SWIDTH 642 0
DWIDTH 9 0
BBX 7 11 1 0
BITMAP
86
44
48
28
30
10
38
68
4C
C4
82
ENDCHAR
STARTCHAR 03A8
ENCODING 936
SWIDTH 785 0
DWIDTH 11 0
BBX 9 11 1 0
BITMAP
8880
8880
8880
8880
8880
8880
4900
3E00
0800
0800
0800
ENDCHAR
STARTCHAR 03A9
ENCODING 937
SWIDTH 785 0
DWIDTH 11 0
BBX 9 11 1 0
BITMAP
3E00
6300
4100
8080
8080
8080
8080
8080
4100
6300
F780
ENDCHAR
STARTCHAR 03AA
ENCODING 938
SWIDTH 142 0
DWIDTH 2 0
BBX 4 13 -1 0
BITMAP
D0
D0
20
20
20
20
20
20
20
20
20
20
20
ENDCHAR
STARTCHAR 03AB
ENCODING 939
SWIDTH 571 0
DWIDTH 8 0
BBX 6 13 1 0
BITMAP
68
68
84
C4
48
28
28
10
10
10
10
10
10
ENDCHAR
STARTCHAR 03AC
ENCODING 940
SWIDTH 714 0
DWIDTH 10 0
BBX 8 12 1 0
BITMAP
08
08
00
00
3D
43
81
81
81
81
43
3D
ENDCHAR
STARTCHAR 03AD
ENCODING 941
SWIDTH 428 0
DWIDTH 6 0
BBX 5 12 1 0
BITMAP
20
20
00
00
70
80
80
60
80
80
88
70
ENDCHAR
STARTCHAR 03AE
ENCODING 942
SWIDTH 642 0
DWIDTH 9 0
BBX 7 14 1 -2
BITMAP
10
10
00
BC
C6
82
82
82
82
82
82
02
02
02
ENDCHAR
STARTCHAR 03AF
ENCODING 943
SWIDTH 214 0
DWIDTH 3 0
BBX 1 11 1 1
BITMAP
80
80
00
80
80
80
80
80
80
80
80
ENDCHAR
STARTCHAR 03B0
ENCODING 944
SWIDTH 642 0
DWIDTH 9 0
BBX 7 12 1 0
BITMAP
10
58
00
00
88
84
82
82
82
82
44
78
ENDCHAR
STARTCHAR 03B1
ENCODING 945
SWIDTH 714 0
DWIDTH 10 0
BBX 8 8 1 0
BITMAP
3D
43
81
81
81
81
43
3D
ENDCHAR
STARTCHAR 03B2
ENCODING 946
SWIDTH 642 0
DWIDTH 9 0
BBX 7 14 1 -3
BITMAP
70
88
88
88
90
B8
84
82
82
C6
B8
80
80
80
ENDCHAR
STARTCHAR 03B3
ENCODING 947
SWIDTH 500 0
DWIDTH 7 0
BBX 7 11 0 -3
BITMAP
82
44
44
48
28
28
10
10
10
10
10
ENDCHAR
STARTCHAR 03B4
ENCODING 948
SWIDTH 642 0
DWIDTH 9 0
BBX 7 11 1 0
BITMAP
3C
20
30
18
7C
C4
82
82
82
44
38
ENDCHAR
STARTCHAR 03B5
ENCODING 949
SWIDTH 428 0
DWIDTH 6 0
BBX 5 8 1 0
BITMAP
70
80
80
60
80
80
88
70
ENDCHAR
STARTCHAR 03B6
ENCODING 950
SWIDTH 500 0
DWIDTH 7 0
BBX 6 14 1 -3
BITMAP
7C
08
10
20
40
80
80
80
80
40
38
04
04
38
ENDCHAR
STARTCHAR 03B7
ENCODING 951
SWIDTH 642 0
DWIDTH 9 0
BBX 7 11 1 -3
BITMAP
BC
C6
82
82
82
82
82
82
02
02
02
ENDCHAR
STARTCHAR 03B8
ENCODING 952
SWIDTH 714 0
DWIDTH 10 0
BBX 8 11 1 0
BITMAP
3C
42
82
81
81
FF
81
81
82
42
3C
ENDCHAR
STARTCHAR 03B9
ENCODING 953
SWIDTH 214 0
DWIDTH 3 0
BBX 1 8 1 0
BITMAP
80
80
80
80
80
80
80
80
ENDCHAR
STARTCHAR 03BA
ENCODING 954
SWIDTH 500 0
DWIDTH 7 0
BBX 6 8 1 0
BITMAP
88
90
A0
C0
C0
A0
98
8C
ENDCHAR
STARTCHAR 03BB
ENCODING 955
SWIDTH 571 0
DWIDTH 8 0
BBX 7 11 0 0
BITMAP
20
10
10
10
18
38
24
24
44
42
82
ENDCHAR
STARTCHAR 03BC
ENCODING 956
SWIDTH 571 0
DWIDTH 8 0
BBX 6 11 1 -3
BITMAP
84
84
84
84
84
84
CC
FC
80
80
80
ENDCHAR
STARTCHAR 03BD
ENCODING 957
SWIDTH 571 0
DWIDTH 8 0
BBX 6 7 1 0
BITMAP
84
84
88
48
50
30
30
ENDCHAR
STARTCHAR 03BE
ENCODING 958
SWIDTH 500 0
DWIDTH 7 0
BBX 6 14 1 -3
BITMAP
3C
40
40
60
38
40
80
80
80
60
38
04
04
38
ENDCHAR
STARTCHAR 03BF
ENCODING 959
SWIDTH 714 0
DWIDTH 10 0
BBX 8 8 1 0
BITMAP
3C
42
81
81
81
81
42
3C
ENDCHAR
STARTCHAR 03C0
ENCODING 960
SWIDTH 571 0
DWIDTH 8 0
BBX 8 8 0 0
BITMAP
FF
44
44
44
44
44
44
44
ENDCHAR
STARTCHAR 03C1
ENCODING 961
SWIDTH 714 0
DWIDTH 10 0
BBX 8 11 1 -3
BITMAP
3C
42
81
81
81
81
C2
BC
80
80
80
ENDCHAR
STARTCHAR 03C2
ENCODING 962
SWIDTH 642 0
DWIDTH 9 0
BBX 7 11 1 -3
BITMAP
3C
42
80
80
80
80
60
1C
02
02
1C
ENDCHAR
STARTCHAR 03C3
ENCODING 963
SWIDTH 714 0
DWIDTH 10 0
BBX 9 8 1 0
BITMAP
3F80
4400
8200
8200
8200
8200
4400
3800
ENDCHAR
STARTCHAR 03C4
ENCODING 964
SWIDTH 428 0
DWIDTH 6 0
BBX 6 8 0 0
BITMAP
FC
10
10
10
10
10
10
10
ENDCHAR
STARTCHAR 03C5
ENCODING 965
SWIDTH 642 0
DWIDTH 9 0
BBX 7 8 1 1
BITMAP
8C
84
82
82
82
82
44
78
ENDCHAR
STARTCHAR 03C6
ENCODING 966
SWIDTH 785 0
DWIDTH 11 0
BBX 9 11 1 -3
BITMAP
2E00
4900
8880
8880
8880
8880
4900
3E00
0800
0800
0800
ENDCHAR
STARTCHAR 03C7
ENCODING 967
SWIDTH 500 0
DWIDTH 7 0
BBX 7 11 0 -3
BITMAP
C4
44
68
28
30
10
38
28
4C
44
86
ENDCHAR
STARTCHAR 03C8
ENCODING 968
SWIDTH 785 0
DWIDTH 11 0
BBX 9 11 1 -3
BITMAP
8880
8880
8880
8880
8880
8880
4900
3E00
0800
0800
0800
ENDCHAR
STARTCHAR 03C9
ENCODING 969
SWIDTH 928 0
DWIDTH 13 0
BBX 11 8 1 0
BITMAP
3300
40C0
8060
8420
8420
8420
4A40
7BC0
ENDCHAR
STARTCHAR 03CA
ENCODING 970
SWIDTH 142 0
DWIDTH 2 0
BBX 4 11 -1 0
BITMAP
D0
D0
00
20
20
20
20
20
20
20
20
ENDCHAR
STARTCHAR 03CB
ENCODING 971
SWIDTH 642 0
DWIDTH 9 0
BBX 7 11 1 0
BITMAP
48
48
00
88
84
82
82
82
82
44
78
ENDCHAR
STARTCHAR 03CC
ENCODING 972
SWIDTH 714 0
DWIDTH 10 0
BBX 8 12 1 0
BITMAP
18
00
00
00
3C
42
81
81
81
81
42
3C
ENDCHAR
STARTCHAR 03CD
ENCODING 973
SWIDTH 642 0
DWIDTH 9 0
BBX 7 12 1 0
BITMAP
10
10
00
00
8C
84
82
82
82
82
44
78
ENDCHAR
STARTCHAR 03CE
ENCODING 974
SWIDTH 928 0
DWIDTH 13 0
BBX 11 12 1 0
BITMAP
0400
0400
0000
0000
3300
40C0
8060
8420
8420
8420
4A40
7BC0
ENDCHAR
STARTCHAR 0401
ENCODING 1025
SWIDTH 500 0
DWIDTH 7 0
BBX 6 13 1 0
BITMAP
48
48
FC
80
80
80
80
FC
80
80
80
80
FC
ENDCHAR
STARTCHAR 0402
ENCODING 1026
SWIDTH 642 0
DWIDTH 9 0
BBX 8 11 0 0
BITMAP
FC
20
20
20
20
3E
23
21
21
21
26
ENDCHAR
STARTCHAR 0403
ENCODING 1027
SWIDTH 428 0
DWIDTH 6 0
BBX 5 14 1 1
BITMAP
18
10
20
F8
80
80
80
80
80
80
80
80
80
80
ENDCHAR
STARTCHAR 0404
ENCODING 1028
SWIDTH 785 0
DWIDTH 11 0
BBX 9 11 1 0
BITMAP
1F00
6180
4000
8000
8000
FC00
8000
8000
4000
6180
1F00
ENDCHAR
STARTCHAR 0405
ENCODING 1029
SWIDTH 500 0
DWIDTH 7 0
BBX 5 11 1 0
BITMAP
70
98
80
80
60
30
10
08
08
98
70
ENDCHAR
STARTCHAR 0406
ENCODING 1030
SWIDTH 214 0
DWIDTH 3 0
BBX 1 11 1 0
BITMAP
80
80
80
80
80
80
80
80
80
80
80
ENDCHAR
STARTCHAR 0407
ENCODING 1031
SWIDTH 214 0
DWIDTH 3 0
BBX 5 13 -1 0
BITMAP
D8
D8
20
20
20
20
20
20
20
20
20
20
20
ENDCHAR
STARTCHAR 0408
ENCODING 1032
SWIDTH 428 0
DWIDTH 6 0
BBX 5 11 0 0
BITMAP
08
08
08
08
08
08
08
08
08
88
70
ENDCHAR
STARTCHAR 0409
ENCODING 1033
SWIDTH 1071 0
DWIDTH 15 0
BBX 13 10 1 1
BITMAP
1800
1800
1400
2400
23F0
4218
4208
8108
8118
80F0
ENDCHAR
STARTCHAR 040A
ENCODING 1034
SWIDTH 1071 0
DWIDTH 15 0
BBX 13 11 1 0
BITMAP
8200
8200
8200
8200
8200
FFF0
8218
8208
8208
8218
83F0
ENDCHAR
STARTCHAR 040B
ENCODING 1035
SWIDTH 642 0
DWIDTH 9 0
BBX 8 11 0 0
BITMAP
FC
20
20
20
20
3E
21
21
21
21
21
ENDCHAR
STARTCHAR 040C
ENCODING 1036
SWIDTH 571 0
DWIDTH 8 0
BBX 6 14 1 0
BITMAP
08
10
10
8C
88
90
A0
C0
C0
A0
B0
98
88
84
ENDCHAR
STARTCHAR 040E
ENCODING 1038
SWIDTH 642 0
DWIDTH 9 0
BBX 7 13 1 1
BITMAP
38
00
82
82
46
44
44
28
28
18
10
90
E0
ENDCHAR
STARTCHAR 040F
ENCODING 1039
SWIDTH 642 0
DWIDTH 9 0
BBX 7 13 1 -2
BITMAP
82
82
82
82
82
82
82
82
82
82
FE
10
10
ENDCHAR
STARTCHAR 0410
ENCODING 1040
SWIDTH 714 0
DWIDTH 10 0
BBX 9 11 1 0
BITMAP
0800
1800
1800
1400
2400
2200
7E00
4100
8100
8100
8080
ENDCHAR
STARTCHAR 0411
ENCODING 1041
SWIDTH 571 0
DWIDTH 8 0
BBX 6 11 1 0
BITMAP
F8
80
80
80
80
F0
8C
84
84
8C
F8
ENDCHAR
STARTCHAR 0412
ENCODING 1042
SWIDTH 571 0
DWIDTH 8 0
BBX 6 11 1 0
BITMAP
F0
88
88
88
98
F0
8C
84
84
8C
F8
ENDCHAR
STARTCHAR 0413
ENCODING 1043
SWIDTH 428 0
DWIDTH 6 0
BBX 5 11 1 0
BITMAP
F8
80
80
80
80
80
80
80
80
80
80
ENDCHAR
STARTCHAR 0414
ENCODING 1044
SWIDTH 714 0
DWIDTH 10 0
BBX 10 12 0 -1
BITMAP
0C00
0C00
1600
1200
1200
2100
2100
6180
4080
FFC0
8040
8040
ENDCHAR
STARTCHAR 0415
ENCODING 1045
SWIDTH 500 0
DWIDTH 7 0
BBX 6 11 1 0
BITMAP
FC
80
80
80
80
FC
80
80
80
80
FC
ENDCHAR
STARTCHAR 0416
ENCODING 1046
SWIDTH 928 0
DWIDTH 13 0
BBX 11 11 1 0
BITMAP
8420
4440
2480
1500
0E00
0E00
1500
2480
6440
C460
8420
ENDCHAR
STARTCHAR 0417
ENCODING 1047
SWIDTH 642 0
DWIDTH 9 0
BBX 7 11 1 0
BITMAP
78
8C
04
04
0C
38
04
02
02
86
7C
ENDCHAR
STARTCHAR 0418
ENCODING 1048
SWIDTH 714 0
DWIDTH 10 0
BBX 8 11 1 0
BITMAP
81
81
83
85
89
99
91
A1
C1
81
81
ENDCHAR
STARTCHAR 0419
ENCODING 1049
SWIDTH 714 0
DWIDTH 10 0
BBX 8 13 1 0
BITMAP
24
3C
81
81
83
85
89
99
91
A1
C1
81
81
ENDCHAR
STARTCHAR 041A
ENCODING 1050
SWIDTH 571 0
DWIDTH 8 0
BBX 6 11 1 0
BITMAP
8C
88
90
A0
C0
C0
A0
B0
98
88
84
ENDCHAR
STARTCHAR 041B
ENCODING 1051
SWIDTH 714 0
DWIDTH 10 0
BBX 8 10 1 1
BITMAP
18
18
38
24
24
42
42
C2
81
81
ENDCHAR
STARTCHAR 041C
ENCODING 1052
SWIDTH 928 0
DWIDTH 13 0
BBX 11 11 1 0
BITMAP
4040
4040
40C0
60C0
61C0
9140
9120
8A20
8A20
8420
8420
ENDCHAR
STARTCHAR 041D
ENCODING 1053
SWIDTH 642 0
DWIDTH 9 0
BBX 7 11 1 0
BITMAP
82
82
82
82
82
FE
82
82
82
82
82
ENDCHAR
STARTCHAR 041E
ENCODING 1054
SWIDTH 928 0
DWIDTH 13 0
BBX 11 11 1 0
BITMAP
1F00
2080
4040
8020
8020
8020
8020
8020
4040
2080
1F00
ENDCHAR
STARTCHAR 041F
ENCODING 1055
SWIDTH 642 0
DWIDTH 9 0
BBX 7 11 1 0
BITMAP
FE
82
82
82
82
82
82
82
82
82
82
ENDCHAR
STARTCHAR 0420
ENCODING 1056
SWIDTH 571 0
DWIDTH 8 0
BBX 6 11 1 0
BITMAP
F8
8C
84
84
8C
F8
80
80
80
80
80
ENDCHAR
STARTCHAR 0421
ENCODING 1057
SWIDTH 857 0
DWIDTH 12 0
BBX 9 11 1 0
BITMAP
1F00
2180
4000
8000
8000
8000
8000
8000
4000
2080
1F00
ENDCHAR
STARTCHAR 0422
ENCODING 1058
SWIDTH 428 0
DWIDTH 6 0
BBX 6 11 0 0
BITMAP
FC
20
20
20
20
20
20
20
20
20
20
ENDCHAR
STARTCHAR 0423
ENCODING 1059
SWIDTH 642 0
DWIDTH 9 0
BBX 7 11 1 0
BITMAP
82
82
46
44
44
28
28
18
10
90
E0
ENDCHAR
STARTCHAR 0424
ENCODING 1060
SWIDTH 857 0
DWIDTH 12 0
BBX 11 11 1 0
BITMAP
0400
0400
7F80
C460
8420
8420
C460
7FC0
0400
0400
0400
ENDCHAR
STARTCHAR 0425
ENCODING 1061
SWIDTH 642 0
DWIDTH 9 0
BBX 7 11 1 0
BITMAP
86
44
48
28
30
10
38
68
4C
C4
82
ENDCHAR
STARTCHAR 0426
ENCODING 1062
SWIDTH 642 0
DWIDTH 9 0
BBX 8 13 1 -2
BITMAP
82
82
82
82
82
82
82
82
82
82
FF
01
01
ENDCHAR
STARTCHAR 0427
ENCODING 1063
SWIDTH 500 0
DWIDTH 7 0
BBX 6 11 0 0
BITMAP
84
84
84
84
C4
7C
04
04
04
04
04
ENDCHAR
STARTCHAR 0428
ENCODING 1064
SWIDTH 928 0
DWIDTH 13 0
BBX 11 11 1 0
BITMAP
8420
8420
8420
8420
8420
8420
8420
8420
8420
8420
FFE0
ENDCHAR
STARTCHAR 0429
ENCODING 1065
SWIDTH 1000 0
DWIDTH 14 0
BBX 13 13 1 -2
BITMAP
8410
8410
8410
8410
8410
8410
8410
8410
8410
8410
FFF8
0008
0008
ENDCHAR
STARTCHAR 042A
ENCODING 1066
SWIDTH 642 0
DWIDTH 9 0
BBX 8 11 0 0
BITMAP
E0
20
20
20
20
3E
23
21
21
21
3E
ENDCHAR
STARTCHAR 042B
ENCODING 1067
SWIDTH 785 0
DWIDTH 11 0
BBX 9 11 1 0
BITMAP
8080
8080
8080
8080
8080
F880
8C80
8480
8480
8C80
F880
ENDCHAR
STARTCHAR 042C
ENCODING 1068
SWIDTH 571 0
DWIDTH 8 0
BBX 6 11 1 0
BITMAP
80
80
80
80
80
F8
8C
84
84
8C
F8
ENDCHAR
STARTCHAR 042D
ENCODING 1069
SWIDTH 785 0
DWIDTH 11 0
BBX 9 11 1 0
BITMAP
7C00
C200
0100
0080
0080
1F80
0080
0080
0100
8200
7C00
ENDCHAR
STARTCHAR 042E
ENCODING 1070
SWIDTH 1071 0
DWIDTH 15 0
BBX 13 11 1 0
BITMAP
83C0
8C20
9810
9008
9008
F008
9008
9008
9810
8C20
83C0
ENDCHAR
STARTCHAR 042F
ENCODING 1071
SWIDTH 571 0
DWIDTH 8 0
BBX 6 11 1 0
BITMAP
7C
C4
84
84
C4
7C
14
24
24
44
84
ENDCHAR
STARTCHAR 0430
ENCODING 1072
SWIDTH 714 0
DWIDTH 10 0
BBX 8 8 1 0
BITMAP
3D
43
81
81
81
81
43
3D
ENDCHAR
STARTCHAR 0431
ENCODING 1073
SWIDTH 714 0
DWIDTH 10 0
BBX 8 11 1 1
BITMAP
3E
40
80
BC
C2
81
81
81
81
42
3C
ENDCHAR
STARTCHAR 0432
ENCODING 1074
SWIDTH 500 0
DWIDTH 7 0
BBX 5 8 1 0
BITMAP
E0
90
90
F0
88
88
88
F0
ENDCHAR
STARTCHAR 0433
ENCODING 1075
SWIDTH 357 0
DWIDTH 5 0
BBX 4 8 1 0
BITMAP
F0
80
80
80
80
80
80
80
ENDCHAR
STARTCHAR 0434
ENCODING 1076
SWIDTH 571 0
DWIDTH 8 0
BBX 8 8 0 0
BITMAP
18
18
24
24
24
42
FF
81
ENDCHAR
STARTCHAR 0435
ENCODING 1077
SWIDTH 642 0
DWIDTH 9 0
BBX 8 8 1 0
BITMAP
3C
42
82
FF
80
82
42
3C
ENDCHAR
STARTCHAR 0436
ENCODING 1078
SWIDTH 785 0
DWIDTH 11 0
BBX 11 8 0 0
BITMAP
4440
2480
1500
0E00
1500
2480
64C0
C460
ENDCHAR
STARTCHAR 0437
ENCODING 1079
SWIDTH 428 0
DWIDTH 6 0
BBX 5 8 0 0
BITMAP
70
08
08
30
08
08
88
70
ENDCHAR
STARTCHAR 0438
ENCODING 1080
SWIDTH 642 0
DWIDTH 9 0
BBX 7 8 1 0
BITMAP
82
86
8E
9A
B2
E2
C2
82
ENDCHAR
STARTCHAR 0439
ENCODING 1081
SWIDTH 642 0
DWIDTH 9 0
BBX 7 11 1 0
BITMAP
7C
00
00
82
86
8E
9A
B2
E2
C2
82
ENDCHAR
STARTCHAR 043A
ENCODING 1082
SWIDTH 500 0
DWIDTH 7 0
BBX 6 8 1 0
BITMAP
88
90
A0
C0
E0
B0
98
8C
ENDCHAR
STARTCHAR 043B
ENCODING 1083
SWIDTH 571 0
DWIDTH 8 0
BBX 6 7 1 1
BITMAP
30
30
50
48
88
84
84
ENDCHAR
STARTCHAR 043C
ENCODING 1084
SWIDTH 857 0
DWIDTH 12 0
BBX 11 8 1 0
BITMAP
0080
6180
6180
5240
9240
8C40
8C40
8420
ENDCHAR
STARTCHAR 043D
ENCODING 1085
SWIDTH 571 0
DWIDTH 8 0
BBX 6 8 1 0
BITMAP
84
84
84
FC
84
84
84
84
ENDCHAR
STARTCHAR 043E
ENCODING 1086
SWIDTH 714 0
DWIDTH 10 0
BBX 8 8 1 0
BITMAP
3C
42
81
81
81
81
42
3C
ENDCHAR
STARTCHAR 043F
ENCODING 1087
SWIDTH 571 0
DWIDTH 8 0
BBX 6 8 1 0
BITMAP
FC
84
84
84
84
84
84
84
ENDCHAR
STARTCHAR 0440
ENCODING 1088
SWIDTH 714 0
DWIDTH 10 0
BBX 8 11 1 -3
BITMAP
BC
C2
81
81
81
81
C2
BC
80
80
80
ENDCHAR
STARTCHAR 0441
ENCODING 1089
SWIDTH 642 0
DWIDTH 9 0
BBX 7 8 1 0
BITMAP
3C
42
80
80
80
80
42
3C
ENDCHAR
STARTCHAR 0442
ENCODING 1090
SWIDTH 357 0
DWIDTH 5 0
BBX 5 8 0 0
BITMAP
F8
20
20
20
20
20
20
20
ENDCHAR
STARTCHAR 0443
ENCODING 1091
SWIDTH 571 0
DWIDTH 8 0
BBX 7 11 0 -3
BITMAP
82
42
44
24
28
18
18
10
10
20
20
ENDCHAR
STARTCHAR 0444
ENCODING 1092
SWIDTH 1071 0
DWIDTH 15 0
BBX 13 14 1 -3
BITMAP
0200
0200
0200
3AE0
4710
8208
8208
8208
8208
4710
3AE0
0200
0200
0200
ENDCHAR
STARTCHAR 0445
ENCODING 1093
SWIDTH 500 0
DWIDTH 7 0
BBX 6 8 0 0
BITMAP
44
48
28
10
30
28
44
84
ENDCHAR
STARTCHAR 0446
ENCODING 1094
SWIDTH 642 0
DWIDTH 9 0
BBX 8 9 1 -1
BITMAP
84
84
84
84
84
84
84
FF
01
ENDCHAR
STARTCHAR 0447
ENCODING 1095
SWIDTH 428 0
DWIDTH 6 0
BBX 5 8 0 0
BITMAP
88
88
88
88
78
08
08
08
ENDCHAR
STARTCHAR 0448
ENCODING 1096
SWIDTH 928 0
DWIDTH 13 0
BBX 11 8 1 0
BITMAP
8420
8420
8420
8420
8420
8420
8420
FFE0
ENDCHAR
STARTCHAR 0449
ENCODING 1097
SWIDTH 1000 0
DWIDTH 14 0
BBX 13 9 1 -1
BITMAP
8420
8420
8420
8420
8420
8420
8420
FFF8
0008
ENDCHAR
STARTCHAR 044A
ENCODING 1098
SWIDTH 500 0
DWIDTH 7 0
BBX 6 8 1 0
BITMAP
C0
40
40
78
44
44
44
78
ENDCHAR
STARTCHAR 044B
ENCODING 1099
SWIDTH 642 0
DWIDTH 9 0
BBX 7 8 1 0
BITMAP
82
82
82
F2
8A
8A
8A
F2
ENDCHAR
STARTCHAR 044C
ENCODING 1100
SWIDTH 428 0
DWIDTH 6 0
BBX 5 8 1 0
BITMAP
80
80
80
F0
88
88
88
F0
ENDCHAR
STARTCHAR 044D
ENCODING 1101
SWIDTH 642 0
DWIDTH 9 0
BBX 7 8 1 0
BITMAP
78
84
02
1E
02
02
84
78
ENDCHAR
STARTCHAR 044E
ENCODING 1102
SWIDTH 857 0
DWIDTH 12 0
BBX 10 8 1 0
BITMAP
8F00
9080
B040
E040
A040
A040
9080
8F00
ENDCHAR
STARTCHAR 044F
ENCODING 1103
SWIDTH 428 0
DWIDTH 6 0
BBX 4 8 1 0
BITMAP
70
90
90
90
70
50
50
90
ENDCHAR
STARTCHAR 0451
ENCODING 1105
SWIDTH 642 0
DWIDTH 9 0
BBX 8 11 1 0
BITMAP
64
64
00
3C
42
82
FF
80
82
46
3C
ENDCHAR
STARTCHAR 0452
ENCODING 1106
SWIDTH 642 0
DWIDTH 9 0
BBX 8 14 0 -3
BITMAP
40
F8
40
5E
63
41
41
41
41
41
41
01
01
07
ENDCHAR
STARTCHAR 0453
ENCODING 1107
SWIDTH 357 0
DWIDTH 5 0
BBX 4 12 1 0
BITMAP
30
20
40
00
F0
80
80
80
80
80
80
80
ENDCHAR
STARTCHAR 0454
ENCODING 1108
SWIDTH 642 0
DWIDTH 9 0
BBX 7 8 1 0
BITMAP
3C
42
80
F0
80
80
42
3C
ENDCHAR
STARTCHAR 0455
ENCODING 1109
SWIDTH 428 0
DWIDTH 6 0
BBX 4 8 1 0
BITMAP
60
90
80
40
30
10
90
E0
ENDCHAR
STARTCHAR 0456
ENCODING 1110
SWIDTH 214 0
DWIDTH 3 0
BBX 2 11 1 0
BITMAP
C0
C0
00
80
80
80
80
80
80
80
80
ENDCHAR
STARTCHAR 0457
ENCODING 1111
SWIDTH 142 0
DWIDTH 2 0
BBX 4 11 -1 0
BITMAP
D0
D0
00
20
20
20
20
20
20
20
20
ENDCHAR
STARTCHAR 0458
ENCODING 1112
SWIDTH 214 0
DWIDTH 3 0
BBX 3 14 0 -3
BITMAP
60
60
00
40
40
40
40
40
40
40
40
40
40
C0
ENDCHAR
STARTCHAR 0459
ENCODING 1113
SWIDTH 785 0
DWIDTH 11 0
BBX 10 8 1 0
BITMAP
1000
1000
3000
2F80
4840
4440
8440
8380
ENDCHAR
STARTCHAR 045A
ENCODING 1114
SWIDTH 785 0
DWIDTH 11 0
BBX 10 8 1 0
BITMAP
8400
8400
8400
FF80
8440
8440
8440
8780
ENDCHAR
STARTCHAR 045B
ENCODING 1115
SWIDTH 642 0
DWIDTH 9 0
BBX 8 11 0 0
BITMAP
40
F8
40
5E
63
41
41
41
41
41
41
ENDCHAR
STARTCHAR 045C
ENCODING 1116
SWIDTH 500 0
DWIDTH 7 0
BBX 6 12 1 0
BITMAP
18
10
20
00
88
90
A0
C0
E0
B0
98
8C
ENDCHAR
STARTCHAR 045E
ENCODING 1118
SWIDTH 571 0
DWIDTH 8 0
BBX 7 14 0 -3
BITMAP
3C
00
00
82
42
44
24
2C
18
18
10
10
20
20
ENDCHAR
STARTCHAR 045F
ENCODING 1119
SWIDTH 642 0
DWIDTH 9 0
BBX 7 9 1 -2
BITMAP
82
82
82
82
82
82
82
FE
10
ENDCHAR
STARTCHAR 0490
ENCODING 1168
SWIDTH 357 0
DWIDTH 5 0
BBX 4 13 1 0
BITMAP
10
10
F0
80
80
80
80
80
80
80
80
80
80
ENDCHAR
STARTCHAR 0491
ENCODING 1169
SWIDTH 357 0
DWIDTH 5 0
BBX 4 9 1 0
BITMAP
10
F0
80
80
80
80
80
80
80
ENDCHAR
STARTCHAR 1E80
ENCODING 7808
SWIDTH 928 0
DWIDTH 13 0
BBX 12 14 1 0
BITMAP
0C00
0400
0000
8410
8420
8620
4A20
4A20
4940
5140
3140
30C0
2080
2000
ENDCHAR
STARTCHAR 1E81
ENCODING 7809
SWIDTH 857 0
DWIDTH 12 0
BBX 11 12 0 0
BITMAP
0C00
0600
0000
0000
8420
4420
4620
4A40
2940
3180
1080
1080
ENDCHAR
STARTCHAR 1E82
ENCODING 7810
SWIDTH 928 0
DWIDTH 13 0
BBX 12 14 1 0
BITMAP
0200
0400
0000
8410
8420
8620
4A20
4A20
4940
5140
3140
30C0
2080
2000
ENDCHAR
STARTCHAR 1E83
ENCODING 7811
SWIDTH 857 0
DWIDTH 12 0
BBX 11 12 0 0
BITMAP
0200
0400
0000
0000
8420
4420
4620
4A40
2940
3180
1080
1080
ENDCHAR
STARTCHAR 1E84
ENCODING 7812
SWIDTH 1000 0
DWIDTH 14 0
BBX 13 13 1 0
BITMAP
0D80
0D80
8208
4210
4610
4510
4520
28A0
28A0
38A0
3040
1040
0040
ENDCHAR
STARTCHAR 1E85
ENCODING 7813
SWIDTH 857 0
DWIDTH 12 0
BBX 11 11 1 0
BITMAP
1B00
1B00
0000
8420
8420
8A40
4A40
5240
3180
2180
2000
ENDCHAR
STARTCHAR 1EF2
ENCODING 7922
SWIDTH 642 0
DWIDTH 9 0
BBX 7 14 1 0
BITMAP
20
10
10
82
44
44
28
38
10
10
10
10
10
10
ENDCHAR
STARTCHAR 1EF3
ENCODING 7923
SWIDTH 571 0
DWIDTH 8 0
BBX 7 14 0 -3
BITMAP
30
10
00
82
42
44
24
2C
18
18
10
10
20
20
ENDCHAR
STARTCHAR 2010
ENCODING 8208
SWIDTH 1000 0
DWIDTH 14 0
BBX 4 1 5 4
BITMAP
F0
ENDCHAR
STARTCHAR 2013
ENCODING 8211
SWIDTH 1071 0
DWIDTH 15 0
BBX 7 1 4 4
BITMAP
FE
ENDCHAR
STARTCHAR 2014
ENCODING 8212
SWIDTH 1000 0
DWIDTH 14 0
BBX 14 1 0 4
BITMAP
FFFC
ENDCHAR
STARTCHAR 2015
ENCODING 8213
SWIDTH 1071 0
DWIDTH 15 0
BBX 13 1 1 4
BITMAP
FFF8
ENDCHAR
STARTCHAR 2016
ENCODING 8214
SWIDTH 928 0
DWIDTH 13 0
BBX 3 15 5 -3
BITMAP
A0
A0
A0
A0
A0
A0
A0
A0
A0
A0
A0
A0
A0
A0
A0
ENDCHAR
STARTCHAR 2017
ENCODING 8215
SWIDTH 500 0
DWIDTH 7 0
BBX 7 2 0 -3
BITMAP
FE
FE
ENDCHAR
STARTCHAR 2018
ENCODING 8216
SWIDTH 1000 0
DWIDTH 14 0
BBX 2 4 10 8
BITMAP
40
80
80
C0
ENDCHAR
STARTCHAR 2019
ENCODING 8217
SWIDTH 1000 0
DWIDTH 14 0
BBX 2 4 2 6
BITMAP
C0
40
40
80
ENDCHAR
STARTCHAR 201A
ENCODING 8218
SWIDTH 357 0
DWIDTH 5 0
BBX 1 4 2 -2
BITMAP
80
80
80
80
ENDCHAR
STARTCHAR 201B
ENCODING 8219
SWIDTH 357 0
DWIDTH 5 0
BBX 1 4 2 7
BITMAP
80
80
00
80
ENDCHAR
STARTCHAR 201C
ENCODING 8220
SWIDTH 1000 0
DWIDTH 14 0
BBX 4 4 9 8
BITMAP
50
A0
A0
F0
ENDCHAR
STARTCHAR 201D
ENCODING 8221
SWIDTH 1000 0
DWIDTH 14 0
BBX 4 4 1 6
BITMAP
F0
50
50
A0
ENDCHAR
STARTCHAR 201E
ENCODING 8222
SWIDTH 428 0
DWIDTH 6 0
BBX 4 4 1 -2
BITMAP
90
90
90
90
ENDCHAR
STARTCHAR 2020
ENCODING 8224
SWIDTH 571 0
DWIDTH 8 0
BBX 6 13 1 -2
BITMAP
20
20
20
FC
20
20
20
20
20
20
20
20
20
ENDCHAR
STARTCHAR 2021
ENCODING 8225
SWIDTH 571 0
DWIDTH 8 0
BBX 6 13 1 -3
BITMAP
20
20
20
FC
20
20
20
20
20
20
FC
20
20
ENDCHAR
STARTCHAR 2022
ENCODING 8226
SWIDTH 571 0
DWIDTH 8 0
BBX 4 4 2 4
BITMAP
60
F0
F0
60
ENDCHAR
STARTCHAR 2025
ENCODING 8229
SWIDTH 1000 0
DWIDTH 14 0
BBX 6 1 4 4
BITMAP
84
ENDCHAR
STARTCHAR 2026
ENCODING 8230
SWIDTH 1071 0
DWIDTH 15 0
BBX 11 1 2 4
BITMAP
8420
ENDCHAR
STARTCHAR 2030
ENCODING 8240
SWIDTH 1000 0
DWIDTH 14 0
BBX 13 13 0 -2
BITMAP
3080
4880
4900
4A00
4A00
3400
0800
0F30
18C8
28C8
48C8
48C8
8730
ENDCHAR
STARTCHAR 2032
ENCODING 8242
SWIDTH 1000 0
DWIDTH 14 0
BBX 2 4 2 7
BITMAP
40
40
80
80
ENDCHAR
STARTCHAR 2033
ENCODING 8243
SWIDTH 1000 0
DWIDTH 14 0
BBX 4 4 1 7
BITMAP
70
60
A0
A0
ENDCHAR
STARTCHAR 2035
ENCODING 8245
SWIDTH 1000 0
DWIDTH 14 0
BBX 2 4 6 5
BITMAP
80
80
40
40
ENDCHAR
STARTCHAR 2039
ENCODING 8249
SWIDTH 285 0
DWIDTH 4 0
BBX 2 8 1 0
BITMAP
40
80
80
80
80
80
80
40
ENDCHAR
STARTCHAR 203A
ENCODING 8250
SWIDTH 285 0
DWIDTH 4 0
BBX 2 8 1 0
BITMAP
80
80
80
40
40
80
80
80
ENDCHAR
STARTCHAR 203B
ENCODING 8251
SWIDTH 928 0
DWIDTH 13 0
BBX 11 11 1 -1
BITMAP
8020
4440
2480
1100
0A00
4440
4640
1900
3480
6480
C060
ENDCHAR
STARTCHAR 203C
ENCODING 8252
SWIDTH 500 0
DWIDTH 7 0
BBX 5 11 1 0
BITMAP
88
88
88
88
88
88
88
88
00
D8
D8
ENDCHAR
STARTCHAR 203E
ENCODING 8254
SWIDTH 571 0
DWIDTH 8 0
BBX 8 1 0 13
BITMAP
FF
ENDCHAR
STARTCHAR 2044
ENCODING 8260
SWIDTH 428 0
DWIDTH 6 0
BBX 5 12 1 -1
BITMAP
18
10
10
30
20
20
40
40
40
80
80
80
ENDCHAR
STARTCHAR 207F
ENCODING 8319
SWIDTH 357 0
DWIDTH 5 0
BBX 4 5 0 4
BITMAP
E0
90
90
90
90
ENDCHAR
STARTCHAR 20A3
ENCODING 8355
SWIDTH 642 0
DWIDTH 9 0
BBX 8 11 1 0
BITMAP
F8
80
80
80
8B
FC
88
88
88
88
88
ENDCHAR
STARTCHAR 20A4
ENCODING 8356
SWIDTH 571 0
DWIDTH 8 0
BBX 7 11 1 0
BITMAP
18
24
24
20
F8
F8
10
10
72
BA
EC
ENDCHAR
STARTCHAR 20A7
ENCODING 8359
SWIDTH 1071 0
DWIDTH 15 0
BBX 13 11 1 0
BITMAP
F900
8D00
8500
87F0
8D48
F940
8120
8118
8108
8148
8170
ENDCHAR
STARTCHAR 20AC
ENCODING 8364
SWIDTH 857 0
DWIDTH 12 0
BBX 10 11 1 0
BITMAP
1F00
2080
4000
8000
FF80
8000
FF80
8000
4000
60C0
1F00
ENDCHAR
STARTCHAR 2103
ENCODING 8451
SWIDTH 928 0
DWIDTH 13 0
BBX 11 11 1 0
BITMAP
4000
A380
AC60
4820
1000
1000
1000
1000
0820
0C60
07C0
ENDCHAR
STARTCHAR 2105
ENCODING 8453
SWIDTH 1000 0
DWIDTH 14 0
BBX 12 13 1 -2
BITMAP
7040
8880
8080
8100
8900
7200
04E0
0510
0910
1110
1110
2110
40E0
ENDCHAR
STARTCHAR 2109
ENCODING 8457
SWIDTH 928 0
DWIDTH 13 0
BBX 10 11 1 0
BITMAP
4000
AFC0
A800
4800
0800
0FC0
0800
0800
0800
0800
0800
ENDCHAR
STARTCHAR 2113
ENCODING 8467
SWIDTH 357 0
DWIDTH 5 0
BBX 4 11 1 0
BITMAP
70
50
50
70
60
40
40
C0
40
50
70
ENDCHAR
STARTCHAR 2116
ENCODING 8470
SWIDTH 1071 0
DWIDTH 15 0
BBX 13 11 1 0
BITMAP
8200
8200
C200
E200
A270
9288
8A88
8A88
8670
8200
82F8
ENDCHAR
STARTCHAR 2121
ENCODING 8481
SWIDTH 1000 0
DWIDTH 14 0
BBX 6 3 4 6
BITMAP
F8
78
7C
ENDCHAR
STARTCHAR 2122
ENCODING 8482
SWIDTH 1000 0
DWIDTH 14 0
BBX 13 6 0 5
BITMAP
FB18
2318
22A8
22A8
22C8
2248
ENDCHAR
STARTCHAR 2126
ENCODING 8486
SWIDTH 857 0
DWIDTH 12 0
BBX 10 11 1 0
BITMAP
1E00
6180
4080
8040
8040
8040
8040
4080
6180
3300
F3C0
ENDCHAR
STARTCHAR 212E
ENCODING 8494
SWIDTH 642 0
DWIDTH 9 0
BBX 7 8 1 0
BITMAP
38
44
C2
FE
C0
C0
40
3C
ENDCHAR
STARTCHAR 215B
ENCODING 8539
SWIDTH 785 0
DWIDTH 11 0
BBX 10 11 1 0
BITMAP
C000
4200
4400
4400
4800
4980
1240
1180
2240
2240
4180
ENDCHAR
STARTCHAR 215C
ENCODING 8540
SWIDTH 785 0
DWIDTH 11 0
BBX 11 11 0 0
BITMAP
7080
1100
2100
1200
9200
64C0
0920
08C0
1120
1120
00C0
ENDCHAR
STARTCHAR 215D
ENCODING 8541
SWIDTH 857 0
DWIDTH 12 0
BBX 11 11 1 0
BITMAP
7080
8100
E100
1200
9400
64C0
0920
08C0
1120
2120
20C0
ENDCHAR
STARTCHAR 215E
ENCODING 8542
SWIDTH 857 0
DWIDTH 12 0
BBX 11 11 1 0
BITMAP
F000
2100
2200
4400
8400
09C0
0920
10C0
1120
2120
00C0
ENDCHAR
STARTCHAR 2160
ENCODING 8544
SWIDTH 1071 0
DWIDTH 15 0
BBX 1 10 7 0
BITMAP
80
80
80
80
80
80
80
80
80
80
ENDCHAR
STARTCHAR 2161
ENCODING 8545
SWIDTH 1000 0
DWIDTH 14 0
BBX 5 10 4 0
BITMAP
88
88
88
88
88
88
88
88
88
88
ENDCHAR
STARTCHAR 2162
ENCODING 8546
SWIDTH 928 0
DWIDTH 13 0
BBX 7 10 3 0
BITMAP
92
92
92
92
92
92
92
92
92
92
ENDCHAR
STARTCHAR 2163
ENCODING 8547
SWIDTH 1000 0
DWIDTH 14 0
BBX 10 10 3 0
BITMAP
A040
9040
9080
9080
8900
8900
8900
8600
8600
8200
ENDCHAR
STARTCHAR 2164
ENCODING 8548
SWIDTH 1000 0
DWIDTH 14 0
BBX 8 10 3 0
BITMAP
81
81
42
42
44
24
24
18
18
18
ENDCHAR
STARTCHAR 2165
ENCODING 8549
SWIDTH 1000 0
DWIDTH 14 0
BBX 10 10 2 0
BITMAP
8140
8240
4240
4240
4440
2440
2840
2840
1840
1040
ENDCHAR
STARTCHAR 2166
ENCODING 8550
SWIDTH 1000 0
DWIDTH 14 0
BBX 11 10 1 0
BITMAP
82A0
42A0
44A0
44A0
24A0
28A0
28A0
28A0
18A0
10A0
ENDCHAR
STARTCHAR 2167
ENCODING 8551
SWIDTH 1000 0
DWIDTH 14 0
BBX 12 10 1 0
BITMAP
8550
8550
4550
4950
4950
4950
2950
3150
3150
1150
ENDCHAR
STARTCHAR 2168
ENCODING 8552
SWIDTH 1000 0
DWIDTH 14 0
BBX 9 10 3 0
BITMAP
9080
9180
8900
8E00
8600
8600
8A00
8900
9080
A080
ENDCHAR
STARTCHAR 2169
ENCODING 8553
SWIDTH 1000 0
DWIDTH 14 0
BBX 8 10 3 0
BITMAP
C2
42
24
18
18
18
2C
24
42
83
ENDCHAR
STARTCHAR 216A
ENCODING 8554
SWIDTH 1000 0
DWIDTH 14 0
BBX 9 10 2 0
BITMAP
8480
4480
4880
3880
3080
3080
2880
4880
8480
8280
ENDCHAR
STARTCHAR 216B
ENCODING 8555
SWIDTH 1000 0
DWIDTH 14 0
BBX 10 10 2 0
BITMAP
8540
8940
4940
3140
3140
3140
5140
4940
8940
8540
ENDCHAR
STARTCHAR 2170
ENCODING 8560
SWIDTH 1000 0
DWIDTH 14 0
BBX 1 11 6 0
BITMAP
80
00
00
00
80
80
80
80
80
80
80
ENDCHAR
STARTCHAR 2171
ENCODING 8561
SWIDTH 1000 0
DWIDTH 14 0
BBX 4 11 5 0
BITMAP
90
00
00
00
90
90
90
90
90
90
90
ENDCHAR
STARTCHAR 2172
ENCODING 8562
SWIDTH 1071 0
DWIDTH 15 0
BBX 7 11 4 0
BITMAP
92
00
00
00
92
92
92
92
92
92
92
ENDCHAR
STARTCHAR 2173
ENCODING 8563
SWIDTH 1000 0
DWIDTH 14 0
BBX 7 11 4 0
BITMAP
80
00
00
00
A2
A2
92
94
94
8C
88
ENDCHAR
STARTCHAR 2174
ENCODING 8564
SWIDTH 1000 0
DWIDTH 14 0
BBX 6 7 4 0
BITMAP
84
84
48
48
50
30
30
ENDCHAR
STARTCHAR 2175
ENCODING 8565
SWIDTH 1000 0
DWIDTH 14 0
BBX 7 11 3 0
BITMAP
02
00
00
00
8A
8A
92
52
52
22
22
ENDCHAR
STARTCHAR 2176
ENCODING 8566
SWIDTH 1000 0
DWIDTH 14 0
BBX 10 11 2 0
BITMAP
0240
0000
0000
0000
0A40
8A40
9240
5240
5240
6240
2240
ENDCHAR
STARTCHAR 2177
ENCODING 8567
SWIDTH 1000 0
DWIDTH 14 0
BBX 11 11 1 0
BITMAP
02A0
0000
0000
0000
8AA0
8AA0
4AA0
52A0
52A0
32A0
22A0
ENDCHAR
STARTCHAR 2178
ENCODING 8568
SWIDTH 1000 0
DWIDTH 14 0
BBX 8 11 4 0
BITMAP
80
00
00
00
91
92
8C
84
8C
92
A1
ENDCHAR
STARTCHAR 2179
ENCODING 8569
SWIDTH 1000 0
DWIDTH 14 0
BBX 6 7 4 0
BITMAP
C8
48
30
30
30
48
84
ENDCHAR
STARTCHAR 2190
ENCODING 8592
SWIDTH 1000 0
DWIDTH 14 0
BBX 13 5 0 2
BITMAP
1800
3800
FFF8
3800
0800
ENDCHAR
STARTCHAR 2191
ENCODING 8593
SWIDTH 1071 0
DWIDTH 15 0
BBX 5 14 5 -3
BITMAP
20
20
70
F0
F8
20
20
20
20
20
20
20
20
20
ENDCHAR
STARTCHAR 2192
ENCODING 8594
SWIDTH 1000 0
DWIDTH 14 0
BBX 13 5 1 2
BITMAP
00C0
00E0
FFF8
00E0
00C0
ENDCHAR
STARTCHAR 2193
ENCODING 8595
SWIDTH 1000 0
DWIDTH 14 0
BBX 5 14 5 -3
BITMAP
20
20
20
20
20
20
20
20
20
F8
78
70
20
20
ENDCHAR
STARTCHAR 2194
ENCODING 8596
SWIDTH 1071 0
DWIDTH 15 0
BBX 13 5 1 1
BITMAP
2020
4030
FFF8
4030
2020
ENDCHAR
STARTCHAR 2195
ENCODING 8597
SWIDTH 500 0
DWIDTH 7 0
BBX 3 14 2 -3
BITMAP
40
E0
E0
40
40
40
40
40
40
40
40
E0
E0
40
ENDCHAR
STARTCHAR 2196
ENCODING 8598
SWIDTH 1000 0
DWIDTH 14 0
BBX 11 12 2 -1
BITMAP
8000
F000
E000
6000
1000
0800
0400
0200
0100
0080
0040
0020
ENDCHAR
STARTCHAR 2197
ENCODING 8599
SWIDTH 1000 0
DWIDTH 14 0
BBX 11 12 1 -1
BITMAP
0020
01E0
00E0
0140
0200
0200
0400
0800
1000
2000
4000
8000
ENDCHAR
STARTCHAR 2198
ENCODING 8600
SWIDTH 1000 0
DWIDTH 14 0
BBX 11 12 2 -1
BITMAP
8000
4000
2000
2000
1000
0800
0400
0280
0180
01C0
00C0
0020
ENDCHAR
STARTCHAR 2199
ENCODING 8601
SWIDTH 1000 0
DWIDTH 14 0
BBX 11 12 1 -1
BITMAP
0020
0040
0080
0100
0100
0200
0400
0800
7000
7000
6000
8000
ENDCHAR
STARTCHAR 21A8
ENCODING 8616
SWIDTH 500 0
DWIDTH 7 0
BBX 5 16 1 -5
BITMAP
20
70
70
20
20
20
20
20
20
20
20
F0
70
20
00
F8
ENDCHAR
STARTCHAR 2202
ENCODING 8706
SWIDTH 428 0
DWIDTH 6 0
BBX 6 11 0 0
BITMAP
18
24
04
04
3C
64
C4
8C
88
98
70
ENDCHAR
STARTCHAR 2206
ENCODING 8710
SWIDTH 714 0
DWIDTH 10 0
BBX 9 11 1 0
BITMAP
0800
1800
1800
1400
2400
2200
4200
4300
C100
8100
FF80
ENDCHAR
STARTCHAR 2208
ENCODING 8712
SWIDTH 1000 0
DWIDTH 14 0
BBX 6 10 4 -1
BITMAP
1C
60
80
80
FC
80
80
C0
60
1C
ENDCHAR
STARTCHAR 220F
ENCODING 8719
SWIDTH 1000 0
DWIDTH 14 0
BBX 10 13 2 -2
BITMAP
FFC0
8040
8040
8040
8040
8040
8040
8040
8040
8040
8040
8040
8040
ENDCHAR
STARTCHAR 2211
ENCODING 8721
SWIDTH 928 0
DWIDTH 13 0
BBX 11 12 1 -1
BITMAP
FFE0
4000
2000
2000
1000
0800
0800
1000
2000
4000
4000
FFE0
ENDCHAR
STARTCHAR 2212
ENCODING 8722
SWIDTH 642 0
DWIDTH 9 0
BBX 7 1 1 5
BITMAP
FE
ENDCHAR
STARTCHAR 2215
ENCODING 8725
SWIDTH 1000 0
DWIDTH 14 0
BBX 6 13 4 -2
BITMAP
04
04
08
08
10
10
20
20
40
40
80
80
80
ENDCHAR
STARTCHAR 2219
ENCODING 8729
SWIDTH 285 0
DWIDTH 4 0
BBX 2 2 1 4
BITMAP
C0
C0
ENDCHAR
STARTCHAR 221A
ENCODING 8730
SWIDTH 1000 0
DWIDTH 14 0
BBX 13 11 1 -1
BITMAP
0008
0010
0030
0020
4040
A080
2080
1100
1200
0E00
0400
ENDCHAR
STARTCHAR 221D
ENCODING 8733
SWIDTH 928 0
DWIDTH 13 0
BBX 11 5 1 2
BITMAP
70E0
8B00
8400
8E00
71E0
ENDCHAR
STARTCHAR 221E
ENCODING 8734
SWIDTH 1000 0
DWIDTH 14 0
BBX 12 6 1 1
BITMAP
70E0
C930
8610
8610
CE30
79E0
ENDCHAR
STARTCHAR 221F
ENCODING 8735
SWIDTH 1000 0
DWIDTH 14 0
BBX 10 11 2 -1
BITMAP
8000
8000
8000
8000
8000
8000
8000
8000
8000
8000
FFC0
ENDCHAR
STARTCHAR 2220
ENCODING 8736
SWIDTH 1000 0
DWIDTH 14 0
BBX 8 11 3 -1
BITMAP
01
02
04
04
08
10
10
20
40
80
FF
ENDCHAR
STARTCHAR 2223
ENCODING 8739
SWIDTH 1071 0
DWIDTH 15 0
BBX 1 12 7 -1
BITMAP
80
80
80
80
80
80
80
80
80
80
80
80
ENDCHAR
STARTCHAR 2225
ENCODING 8741
SWIDTH 1000 0
DWIDTH 14 0
BBX 6 11 4 -1
BITMAP
24
28
28
28
28
48
50
50
50
50
90
ENDCHAR
STARTCHAR 2227
ENCODING 8743
SWIDTH 1000 0
DWIDTH 14 0
BBX 8 10 3 -1
BITMAP
18
18
18
24
24
44
42
42
81
81
ENDCHAR
STARTCHAR 2228
ENCODING 8744
SWIDTH 1000 0
DWIDTH 14 0
BBX 8 10 3 -1
BITMAP
81
81
42
42
42
24
24
18
18
18
ENDCHAR
STARTCHAR 2229
ENCODING 8745
SWIDTH 1000 0
DWIDTH 14 0
BBX 8 10 3 0
BITMAP
3C
42
81
81
81
81
81
81
81
81
ENDCHAR
STARTCHAR 222A
ENCODING 8746
SWIDTH 1000 0
DWIDTH 14 0
BBX 8 10 3 0
BITMAP
81
81
81
81
81
81
81
81
42
3C
ENDCHAR
STARTCHAR 222B
ENCODING 8747
SWIDTH 1071 0
DWIDTH 15 0
BBX 7 13 4 -2
BITMAP
06
08
08
10
10
10
10
10
10
10
20
20
C0
ENDCHAR
STARTCHAR 222E
ENCODING 8750
SWIDTH 1071 0
DWIDTH 15 0
BBX 7 13 4 -2
BITMAP
06
08
08
38
54
92
92
92
54
38
20
20
C0
ENDCHAR
STARTCHAR 2234
ENCODING 8756
SWIDTH 1071 0
DWIDTH 15 0
BBX 9 8 3 1
BITMAP
0800
0000
0000
0000
0000
0000
0000
8080
ENDCHAR
STARTCHAR 2235
ENCODING 8757
SWIDTH 1071 0
DWIDTH 15 0
BBX 9 8 3 1
BITMAP
8080
0000
0000
0000
0000
0000
0000
0800
ENDCHAR
STARTCHAR 2236
ENCODING 8758
SWIDTH 1000 0
DWIDTH 14 0
BBX 2 7 6 1
BITMAP
C0
C0
00
00
00
C0
C0
ENDCHAR
STARTCHAR 2237
ENCODING 8759
SWIDTH 1000 0
DWIDTH 14 0
BBX 8 8 3 0
BITMAP
81
00
00
00
00
00
00
81
ENDCHAR
STARTCHAR 223D
ENCODING 8765
SWIDTH 1000 0
DWIDTH 14 0
BBX 12 5 2 1
BITMAP
41E0
8310
8410
8C10
7820
ENDCHAR
STARTCHAR 2248
ENCODING 8776
SWIDTH 1000 0
DWIDTH 14 0
BBX 10 6 2 2
BITMAP
7040
8CC0
0780
7000
8CC0
0380
ENDCHAR
STARTCHAR 224C
ENCODING 8780
SWIDTH 1000 0
DWIDTH 14 0
BBX 12 9 1 0
BITMAP
40E0
8310
8610
8C10
7020
0000
FFE0
0000
FFE0
ENDCHAR
STARTCHAR 2252
ENCODING 8786
SWIDTH 928 0
DWIDTH 13 0
BBX 11 7 1 1
BITMAP
4000
0000
FFE0
0000
FFE0
0000
0020
ENDCHAR
STARTCHAR 2260
ENCODING 8800
SWIDTH 1000 0
DWIDTH 14 0
BBX 10 8 2 1
BITMAP
0200
0400
FFC0
0800
0800
FFC0
1000
2000
ENDCHAR
STARTCHAR 2261
ENCODING 8801
SWIDTH 928 0
DWIDTH 13 0
BBX 11 6 1 1
BITMAP
FFE0
0000
0000
FFE0
0000
FFE0
ENDCHAR
STARTCHAR 2264
ENCODING 8804
SWIDTH 928 0
DWIDTH 13 0
BBX 9 9 2 1
BITMAP
0080
0700
1800
E000
7000
8E00
7180
0E00
0180
ENDCHAR
STARTCHAR 2265
ENCODING 8805
SWIDTH 928 0
DWIDTH 13 0
BBX 9 9 2 1
BITMAP
8000
7000
0C00
0380
0700
3880
C700
3800
C000
ENDCHAR
STARTCHAR 2266
ENCODING 8806
SWIDTH 928 0
DWIDTH 13 0
BBX 9 9 2 1
BITMAP
0180
0E00
F000
3800
0780
0000
FF80
0000
FF80
ENDCHAR
STARTCHAR 2267
ENCODING 8807
SWIDTH 928 0
DWIDTH 13 0
BBX 9 9 2 1
BITMAP
C000
3C00
0380
0E00
F000
0000
FF80
0000
FF80
ENDCHAR
STARTCHAR 226E
ENCODING 8814
SWIDTH 1000 0
DWIDTH 14 0
BBX 9 10 3 0
BITMAP
0800
0980
0E00
3800
C800
C800
3800
0E00
0980
0800
ENDCHAR
STARTCHAR 226F
ENCODING 8815
SWIDTH 1000 0
DWIDTH 14 0
BBX 9 10 2 0
BITMAP
0800
C800
3800
0E00
0980
0980
0E00
3800
C800
0800
ENDCHAR
STARTCHAR 2295
ENCODING 8853
SWIDTH 1000 0
DWIDTH 14 0
BBX 7 7 3 1
BITMAP
38
54
94
FE
94
54
38
ENDCHAR
STARTCHAR 2299
ENCODING 8857
SWIDTH 1071 0
DWIDTH 15 0
BBX 11 11 2 -1
BITMAP
1F00
2180
4040
8020
8420
8420
8020
8020
4040
2180
1F00
ENDCHAR
STARTCHAR 22A5
ENCODING 8869
SWIDTH 1000 0
DWIDTH 14 0
BBX 10 11 2 0
BITMAP
0800
0800
0800
0800
0800
0800
0800
0800
0800
0800
FFC0
ENDCHAR
STARTCHAR 22BF
ENCODING 8895
SWIDTH 1071 0
DWIDTH 15 0
BBX 11 11 2 0
BITMAP
0020
0060
00A0
0120
0220
0420
0820
1020
2020
4020
FFE0
ENDCHAR
STARTCHAR 2302
ENCODING 8962
SWIDTH 642 0
DWIDTH 9 0
BBX 7 9 1 0
BITMAP
10
28
48
44
82
82
82
82
FE
ENDCHAR
STARTCHAR 2310
ENCODING 8976
SWIDTH 642 0
DWIDTH 9 0
BBX 7 4 1 2
BITMAP
FE
80
80
80
ENDCHAR
STARTCHAR 2312
ENCODING 8978
SWIDTH 1000 0
DWIDTH 14 0
BBX 10 5 2 3
BITMAP
1E00
6180
4080
8040
8040
ENDCHAR
STARTCHAR 2320
ENCODING 8992
SWIDTH 642 0
DWIDTH 9 0
BBX 3 16 4 -4
BITMAP
E0
80
80
80
80
80
80
80
80
80
80
80
80
80
80
80
ENDCHAR
STARTCHAR 2321
ENCODING 8993
SWIDTH 642 0
DWIDTH 9 0
BBX 3 16 2 -3
BITMAP
20
20
20
20
20
20
20
20
20
20
20
20
20
20
A0
C0
ENDCHAR
STARTCHAR 2460
ENCODING 9312
SWIDTH 1071 0
DWIDTH 15 0
BBX 13 13 1 -2
BITMAP
0F80
3060
6230
4E10
8208
8208
8208
8208
8208
4210
6230
3060
0F80
ENDCHAR
STARTCHAR 2461
ENCODING 9313
SWIDTH 1071 0
DWIDTH 15 0
BBX 13 13 1 -2
BITMAP
0F80
3760
68B0
4890
8088
8088
8108
8608
8808
5010
7FB0
3060
0F80
ENDCHAR
STARTCHAR 2462
ENCODING 9314
SWIDTH 1071 0
DWIDTH 15 0
BBX 13 14 1 -3
BITMAP
0F80
3040
6720
4990
8088
8088
8088
8308
8088
9088
5090
6F30
3060
0F80
ENDCHAR
STARTCHAR 2463
ENCODING 9315
SWIDTH 1071 0
DWIDTH 15 0
BBX 13 14 1 -3
BITMAP
0F80
3140
6320
4310
8508
8908
8908
9108
A108
BF88
4110
6030
3060
0F80
ENDCHAR
STARTCHAR 2464
ENCODING 9316
SWIDTH 1071 0
DWIDTH 15 0
BBX 13 14 1 -3
BITMAP
0F80
3040
6020
4F90
8808
8808
8F08
8988
8088
8088
5090
6930
3760
0F80
ENDCHAR
STARTCHAR 2465
ENCODING 9317
SWIDTH 1071 0
DWIDTH 15 0
BBX 13 14 1 -3
BITMAP
0F80
3040
6720
4910
9088
9008
9708
9988
9088
9088
4990
6730
3060
0F80
ENDCHAR
STARTCHAR 2466
ENCODING 9318
SWIDTH 1071 0
DWIDTH 15 0
BBX 13 14 1 -3
BITMAP
0F80
3040
6020
4FD0
8048
8088
8108
8108
8208
8208
4210
6430
3060
0F80
ENDCHAR
STARTCHAR 2467
ENCODING 9319
SWIDTH 1071 0
DWIDTH 15 0
BBX 13 14 1 -3
BITMAP
0F80
3040
6720
4890
8888
8888
8708
8988
9088
9088
5090
79B0
3F60
0F80
ENDCHAR
STARTCHAR 2468
ENCODING 9320
SWIDTH 1071 0
DWIDTH 15 0
BBX 13 14 1 -3
BITMAP
0F80
3040
6720
4D10
8888
8888
8888
8888
8788
8088
4890
6D30
3760
0F80
ENDCHAR
STARTCHAR 2469
ENCODING 9321
SWIDTH 1071 0
DWIDTH 15 0
BBX 13 14 1 -3
BITMAP
0F80
3040
6020
4990
BA48
8A48
8A48
8A48
8A48
8A48
4990
6030
3060
0F80
ENDCHAR
STARTCHAR 2474
ENCODING 9332
SWIDTH 1071 0
DWIDTH 15 0
BBX 13 12 1 -1
BITMAP
2020
4210
4210
8E08
8208
8208
8208
8208
8208
4210
4210
2020
ENDCHAR
STARTCHAR 2475
ENCODING 9333
SWIDTH 1071 0
DWIDTH 15 0
BBX 13 13 1 -1
BITMAP
2060
4F20
5890
9090
9088
8088
8108
8608
8808
9010
5F90
4020
2040
ENDCHAR
STARTCHAR 2476
ENCODING 9334
SWIDTH 1071 0
DWIDTH 15 0
BBX 13 12 1 -2
BITMAP
2060
4F20
5890
9088
8088
8308
8088
8088
9088
5190
4F20
2060
ENDCHAR
STARTCHAR 2477
ENCODING 9335
SWIDTH 1071 0
DWIDTH 15 0
BBX 13 12 1 -1
BITMAP
2040
4120
4310
8510
8508
8908
9108
B108
BF88
8110
4110
4020
ENDCHAR
STARTCHAR 2478
ENCODING 9336
SWIDTH 1071 0
DWIDTH 15 0
BBX 13 13 1 -3
BITMAP
2040
2020
4F90
9010
9008
9708
9988
8088
8088
9090
5110
4E20
2040
ENDCHAR
STARTCHAR 2479
ENCODING 9337
SWIDTH 1071 0
DWIDTH 15 0
BBX 13 12 1 -2
BITMAP
2060
4720
4890
9008
9708
9988
9088
9088
9088
4910
4720
2060
ENDCHAR
STARTCHAR 247A
ENCODING 9338
SWIDTH 1071 0
DWIDTH 15 0
BBX 13 13 1 -1
BITMAP
3020
2010
4FD0
8048
8088
8108
8108
8208
8208
4210
4410
2020
0020
ENDCHAR
STARTCHAR 247B
ENCODING 9339
SWIDTH 1071 0
DWIDTH 15 0
BBX 13 12 1 -2
BITMAP
2060
4F20
5090
9088
9088
8F08
9988
9088
9088
5990
4F20
2060
ENDCHAR
STARTCHAR 247C
ENCODING 9340
SWIDTH 1071 0
DWIDTH 15 0
BBX 13 12 1 -2
BITMAP
2020
4F10
5890
9048
9048
90C8
8F48
8048
90C8
5890
4F10
2020
ENDCHAR
STARTCHAR 247D
ENCODING 9341
SWIDTH 1071 0
DWIDTH 15 0
BBX 13 13 1 -1
BITMAP
3040
29A0
4A50
FA50
8A48
8A48
8A48
8A48
8A48
4A50
4990
2020
0040
ENDCHAR
STARTCHAR 247E
ENCODING 9342
SWIDTH 1071 0
DWIDTH 15 0
BBX 13 13 1 -1
BITMAP
2020
48B0
4890
BB88
8888
8888
8888
8888
8888
4890
4890
2020
2000
ENDCHAR
STARTCHAR 247F
ENCODING 9343
SWIDTH 1071 0
DWIDTH 15 0
BBX 13 13 1 -1
BITMAP
2040
6BA0
4C50
BC50
8848
8888
8988
8A08
8C08
4C10
4FF0
2020
0040
ENDCHAR
STARTCHAR 2480
ENCODING 9344
SWIDTH 1071 0
DWIDTH 15 0
BBX 13 12 1 -1
BITMAP
2060
53A0
5650
B448
9048
9088
9048
9028
9428
9470
53D0
4020
ENDCHAR
STARTCHAR 2481
ENCODING 9345
SWIDTH 1071 0
DWIDTH 15 0
BBX 13 13 1 -1
BITMAP
2020
5050
90D0
F0C8
9148
9148
9248
9448
97E8
9050
5050
4020
0020
ENDCHAR
STARTCHAR 2482
ENCODING 9346
SWIDTH 1071 0
DWIDTH 15 0
BBX 13 12 1 -1
BITMAP
3060
6BE0
4A10
BA18
8D88
8AC8
8848
8848
8848
4AD0
4BB0
2060
ENDCHAR
STARTCHAR 2483
ENCODING 9347
SWIDTH 1071 0
DWIDTH 15 0
BBX 13 12 1 -1
BITMAP
1020
29E0
4A30
7C08
8DC8
8E68
8C28
8C28
8C28
4A70
4BD0
2020
ENDCHAR
STARTCHAR 2484
ENCODING 9348
SWIDTH 1071 0
DWIDTH 15 0
BBX 13 12 1 -1
BITMAP
3060
6820
4BD0
F858
8888
8888
8908
8908
8908
4A10
4A10
2020
ENDCHAR
STARTCHAR 2485
ENCODING 9349
SWIDTH 1071 0
DWIDTH 15 0
BBX 13 12 1 -1
BITMAP
2020
51E0
5230
F228
9228
91C8
9268
9428
9428
9630
53D0
4020
ENDCHAR
STARTCHAR 2486
ENCODING 9350
SWIDTH 1071 0
DWIDTH 15 0
BBX 13 12 1 -1
BITMAP
2020
53E0
5670
F428
9428
9468
93A8
9028
9028
9450
5390
4020
ENDCHAR
STARTCHAR 2487
ENCODING 9351
SWIDTH 1071 0
DWIDTH 15 0
BBX 13 12 1 -1
BITMAP
2020
58F0
6530
A528
8528
8D28
8928
9128
A128
A130
7CD0
4020
ENDCHAR
STARTCHAR 2488
ENCODING 9352
SWIDTH 928 0
DWIDTH 13 0
BBX 7 11 3 0
BITMAP
20
20
60
E0
20
20
20
20
20
20
22
ENDCHAR
STARTCHAR 2489
ENCODING 9353
SWIDTH 928 0
DWIDTH 13 0
BBX 9 11 2 0
BITMAP
7800
CC00
8400
8400
0400
0800
1000
6000
4000
8000
FC80
ENDCHAR
STARTCHAR 248A
ENCODING 9354
SWIDTH 1000 0
DWIDTH 14 0
BBX 10 11 2 0
BITMAP
7800
CC00
8400
8400
0C00
3800
0400
0400
8400
8C00
7840
ENDCHAR
STARTCHAR 248B
ENCODING 9355
SWIDTH 1000 0
DWIDTH 14 0
BBX 10 10 2 0
BITMAP
0800
1800
1800
2800
4800
4800
8800
FE00
0800
0840
ENDCHAR
STARTCHAR 248C
ENCODING 9356
SWIDTH 1000 0
DWIDTH 14 0
BBX 9 10 3 0
BITMAP
F800
8000
8000
F000
C800
8400
0400
0400
8800
7880
ENDCHAR
STARTCHAR 248D
ENCODING 9357
SWIDTH 1000 0
DWIDTH 14 0
BBX 10 11 2 0
BITMAP
3800
4800
8400
8000
B800
CC00
8400
8400
8400
4800
7840
ENDCHAR
STARTCHAR 248E
ENCODING 9358
SWIDTH 1000 0
DWIDTH 14 0
BBX 9 10 3 0
BITMAP
FE00
0600
0400
0800
0800
1000
1000
2000
2000
2080
ENDCHAR
STARTCHAR 248F
ENCODING 9359
SWIDTH 1000 0
DWIDTH 14 0
BBX 10 11 2 0
BITMAP
7800
CC00
8400
8400
4C00
7800
CC00
8400
8400
C400
7840
ENDCHAR
STARTCHAR 2490
ENCODING 9360
SWIDTH 1000 0
DWIDTH 14 0
BBX 10 11 2 0
BITMAP
7000
C800
8400
8400
8400
CC00
7C00
0400
0400
8800
7040
ENDCHAR
STARTCHAR 2491
ENCODING 9361
SWIDTH 1000 0
DWIDTH 14 0
BBX 12 11 1 0
BITMAP
2380
2280
2440
E440
2440
2440
2440
2440
2440
2280
2390
ENDCHAR
STARTCHAR 2492
ENCODING 9362
SWIDTH 928 0
DWIDTH 13 0
BBX 11 11 1 0
BITMAP
2100
2100
2100
E700
2100
2100
2100
2100
2100
2100
2120
ENDCHAR
STARTCHAR 2493
ENCODING 9363
SWIDTH 1000 0
DWIDTH 14 0
BBX 12 11 1 0
BITMAP
2380
24C0
6440
E440
2040
2040
2080
2300
2400
2800
2FD0
ENDCHAR
STARTCHAR 2494
ENCODING 9364
SWIDTH 1000 0
DWIDTH 14 0
BBX 12 11 1 0
BITMAP
2380
2440
6C40
E840
2040
2180
2040
2040
2840
2CC0
2790
ENDCHAR
STARTCHAR 2495
ENCODING 9365
SWIDTH 1000 0
DWIDTH 14 0
BBX 12 11 1 0
BITMAP
2080
2180
2180
E280
2680
2480
2880
2FE0
2080
2080
2090
ENDCHAR
STARTCHAR 2496
ENCODING 9366
SWIDTH 1000 0
DWIDTH 14 0
BBX 12 11 1 0
BITMAP
27C0
2800
6800
E800
2B80
2CC0
2040
2040
2040
28C0
2790
ENDCHAR
STARTCHAR 2497
ENCODING 9367
SWIDTH 1000 0
DWIDTH 14 0
BBX 12 11 1 0
BITMAP
2380
2480
6840
E800
2B80
2CC0
2840
2840
2840
2480
2790
ENDCHAR
STARTCHAR 2498
ENCODING 9368
SWIDTH 1000 0
DWIDTH 14 0
BBX 12 11 1 0
BITMAP
27F0
2030
6020
E040
2040
2080
2080
2100
2100
2100
2310
ENDCHAR
STARTCHAR 2499
ENCODING 9369
SWIDTH 1000 0
DWIDTH 14 0
BBX 12 11 1 0
BITMAP
2780
2CC0
6840
E840
24C0
2780
2C40
2820
2820
2C60
23D0
ENDCHAR
STARTCHAR 249A
ENCODING 9370
SWIDTH 1000 0
DWIDTH 14 0
BBX 12 11 1 0
BITMAP
2700
2C80
6840
E840
2840
2CC0
27C0
2040
2080
2880
2710
ENDCHAR
STARTCHAR 249B
ENCODING 9371
SWIDTH 1000 0
DWIDTH 14 0
BBX 12 11 1 0
BITMAP
71C0
8940
8A20
8A20
0A20
1A20
3220
6220
4220
8140
F9D0
ENDCHAR
STARTCHAR 2500
ENCODING 9472
SWIDTH 1000 0
DWIDTH 14 0
BBX 14 1 0 4
BITMAP
FFFC
ENDCHAR
STARTCHAR 2501
ENCODING 9473
SWIDTH 1000 0
DWIDTH 14 0
BBX 14 1 0 4
BITMAP
FFFC
ENDCHAR
STARTCHAR 2502
ENCODING 9474
SWIDTH 1071 0
DWIDTH 15 0
BBX 1 15 7 -3
BITMAP
80
80
80
80
80
80
80
80
80
80
80
80
80
80
80
ENDCHAR
STARTCHAR 2503
ENCODING 9475
SWIDTH 928 0
DWIDTH 13 0
BBX 1 15 6 -3
BITMAP
80
80
80
80
80
80
80
80
80
80
80
80
80
80
80
ENDCHAR
STARTCHAR 2504
ENCODING 9476
SWIDTH 1071 0
DWIDTH 15 0
BBX 13 1 1 4
BITMAP
E738
ENDCHAR
STARTCHAR 2505
ENCODING 9477
SWIDTH 1071 0
DWIDTH 15 0
BBX 13 1 1 4
BITMAP
E738
ENDCHAR
STARTCHAR 2506
ENCODING 9478
SWIDTH 1071 0
DWIDTH 15 0
BBX 1 13 7 -2
BITMAP
80
80
80
00
00
80
80
80
00
00
80
80
80
ENDCHAR
STARTCHAR 2507
ENCODING 9479
SWIDTH 928 0
DWIDTH 13 0
BBX 1 13 6 -2
BITMAP
80
80
80
00
00
80
80
80
00
00
80
80
80
ENDCHAR
STARTCHAR 2508
ENCODING 9480
SWIDTH 1071 0
DWIDTH 15 0
BBX 13 1 1 4
BITMAP
CD98
ENDCHAR
STARTCHAR 2509
ENCODING 9481
SWIDTH 1071 0
DWIDTH 15 0
BBX 13 1 1 4
BITMAP
CD98
ENDCHAR
STARTCHAR 250A
ENCODING 9482
SWIDTH 1071 0
DWIDTH 15 0
BBX 1 13 7 -3
BITMAP
80
80
00
00
80
80
00
80
80
00
00
80
80
ENDCHAR
STARTCHAR 250B
ENCODING 9483
SWIDTH 928 0
DWIDTH 13 0
BBX 1 13 6 -3
BITMAP
80
80
00
00
80
80
00
80
80
00
00
80
80
ENDCHAR
STARTCHAR 250C
ENCODING 9484
SWIDTH 1000 0
DWIDTH 14 0
BBX 8 8 6 -3
BITMAP
FF
80
80
80
80
80
80
80
ENDCHAR
STARTCHAR 250D
ENCODING 9485
SWIDTH 1000 0
DWIDTH 14 0
BBX 8 8 6 -3
BITMAP
FF
80
80
80
80
80
80
80
ENDCHAR
STARTCHAR 250E
ENCODING 9486
SWIDTH 1000 0
DWIDTH 14 0
BBX 7 8 7 -3
BITMAP
FE
80
80
80
80
80
80
80
ENDCHAR
STARTCHAR 250F
ENCODING 9487
SWIDTH 1000 0
DWIDTH 14 0
BBX 7 8 7 -3
BITMAP
FE
80
80
80
80
80
80
80
ENDCHAR
STARTCHAR 2510
ENCODING 9488
SWIDTH 1071 0
DWIDTH 15 0
BBX 8 8 0 -3
BITMAP
FF
01
01
01
01
01
01
01
ENDCHAR
STARTCHAR 2511
ENCODING 9489
SWIDTH 1071 0
DWIDTH 15 0
BBX 8 8 0 -3
BITMAP
FF
01
01
01
01
01
01
01
ENDCHAR
STARTCHAR 2512
ENCODING 9490
SWIDTH 928 0
DWIDTH 13 0
BBX 7 8 0 -3
BITMAP
FE
02
02
02
02
02
02
02
ENDCHAR
STARTCHAR 2513
ENCODING 9491
SWIDTH 928 0
DWIDTH 13 0
BBX 7 8 0 -3
BITMAP
FE
02
02
02
02
02
02
02
ENDCHAR
STARTCHAR 2514
ENCODING 9492
SWIDTH 1000 0
DWIDTH 14 0
BBX 8 8 6 4
BITMAP
80
80
80
80
80
80
80
FF
ENDCHAR
STARTCHAR 2515
ENCODING 9493
SWIDTH 1000 0
DWIDTH 14 0
BBX 8 8 6 3
BITMAP
80
80
80
80
80
80
80
FF
ENDCHAR
STARTCHAR 2516
ENCODING 9494
SWIDTH 1000 0
DWIDTH 14 0
BBX 7 8 7 4
BITMAP
80
80
80
80
80
80
80
FE
ENDCHAR
STARTCHAR 2517
ENCODING 9495
SWIDTH 1000 0
DWIDTH 14 0
BBX 7 8 7 3
BITMAP
80
80
80
80
80
80
80
FE
ENDCHAR
STARTCHAR 2518
ENCODING 9496
SWIDTH 1071 0
DWIDTH 15 0
BBX 8 8 0 4
BITMAP
01
01
01
01
01
01
01
FF
ENDCHAR
STARTCHAR 2519
ENCODING 9497
SWIDTH 1071 0
DWIDTH 15 0
BBX 8 8 0 3
BITMAP
01
01
01
01
01
01
01
FF
ENDCHAR
STARTCHAR 251A
ENCODING 9498
SWIDTH 928 0
DWIDTH 13 0
BBX 7 8 0 4
BITMAP
02
02
02
02
02
02
02
FE
ENDCHAR
STARTCHAR 251B
ENCODING 9499
SWIDTH 928 0
DWIDTH 13 0
BBX 7 8 0 3
BITMAP
02
02
02
02
02
02
02
FE
ENDCHAR
STARTCHAR 251C
ENCODING 9500
SWIDTH 1000 0
DWIDTH 14 0
BBX 8 15 6 -3
BITMAP
80
80
80
80
80
80
80
FF
80
80
80
80
80
80
80
ENDCHAR
STARTCHAR 251D
ENCODING 9501
SWIDTH 1000 0
DWIDTH 14 0
BBX 8 15 6 -3
BITMAP
80
80
80
80
80
80
80
FF
80
80
80
80
80
80
80
ENDCHAR
STARTCHAR 251E
ENCODING 9502
SWIDTH 1000 0
DWIDTH 14 0
BBX 7 15 7 -3
BITMAP
80
80
80
80
80
80
80
FE
80
80
80
80
80
80
80
ENDCHAR
STARTCHAR 251F
ENCODING 9503
SWIDTH 1000 0
DWIDTH 14 0
BBX 7 15 7 -3
BITMAP
80
80
80
80
80
80
80
FE
80
80
80
80
80
80
80
ENDCHAR
STARTCHAR 2520
ENCODING 9504
SWIDTH 1000 0
DWIDTH 14 0
BBX 7 15 7 -3
BITMAP
80
80
80
80
80
80
80
FE
80
80
80
80
80
80
80
ENDCHAR
STARTCHAR 2521
ENCODING 9505
SWIDTH 1000 0
DWIDTH 14 0
BBX 7 15 7 -3
BITMAP
80
80
80
80
80
80
80
FE
80
80
80
80
80
80
80
ENDCHAR
STARTCHAR 2522
ENCODING 9506
SWIDTH 1000 0
DWIDTH 14 0
BBX 7 15 7 -3
BITMAP
80
80
80
80
80
80
80
FE
80
80
80
80
80
80
80
ENDCHAR
STARTCHAR 2523
ENCODING 9507
SWIDTH 1000 0
DWIDTH 14 0
BBX 7 15 7 -3
BITMAP
80
80
80
80
80
80
80
FE
80
80
80
80
80
80
80
ENDCHAR
STARTCHAR 2524
ENCODING 9508
SWIDTH 1071 0
DWIDTH 15 0
BBX 8 15 0 -3
BITMAP
01
01
01
01
01
01
01
FF
01
01
01
01
01
01
01
ENDCHAR
STARTCHAR 2525
ENCODING 9509
SWIDTH 1071 0
DWIDTH 15 0
BBX 8 15 0 -3
BITMAP
01
01
01
01
01
01
01
FF
01
01
01
01
01
01
01
ENDCHAR
STARTCHAR 2526
ENCODING 9510
SWIDTH 928 0
DWIDTH 13 0
BBX 7 15 0 -3
BITMAP
02
02
02
02
02
02
02
FE
02
02
02
02
02
02
02
ENDCHAR
STARTCHAR 2527
ENCODING 9511
SWIDTH 928 0
DWIDTH 13 0
BBX 7 15 0 -3
BITMAP
02
02
02
02
02
02
02
FE
02
02
02
02
02
02
02
ENDCHAR
STARTCHAR 2528
ENCODING 9512
SWIDTH 928 0
DWIDTH 13 0
BBX 7 15 0 -3
BITMAP
02
02
02
02
02
02
02
FE
02
02
02
02
02
02
02
ENDCHAR
STARTCHAR 2529
ENCODING 9513
SWIDTH 928 0
DWIDTH 13 0
BBX 7 15 0 -3
BITMAP
02
02
02
02
02
02
02
FE
02
02
02
02
02
02
02
ENDCHAR
STARTCHAR 252A
ENCODING 9514
SWIDTH 928 0
DWIDTH 13 0
BBX 7 15 0 -3
BITMAP
02
02
02
02
02
02
02
FE
02
02
02
02
02
02
02
ENDCHAR
STARTCHAR 252B
ENCODING 9515
SWIDTH 928 0
DWIDTH 13 0
BBX 7 15 0 -3
BITMAP
02
02
02
02
02
02
02
FE
02
02
02
02
02
02
02
ENDCHAR
STARTCHAR 252C
ENCODING 9516
SWIDTH 1000 0
DWIDTH 14 0
BBX 14 8 0 -3
BITMAP
FFFC
0100
0100
0100
0100
0100
0100
0100
ENDCHAR
STARTCHAR 252D
ENCODING 9517
SWIDTH 1000 0
DWIDTH 14 0
BBX 14 8 0 -3
BITMAP
FFFC
0100
0100
0100
0100
0100
0100
0100
ENDCHAR
STARTCHAR 252E
ENCODING 9518
SWIDTH 1071 0
DWIDTH 15 0
BBX 15 8 0 -3
BITMAP
FFFE
0100
0100
0100
0100
0100
0100
0100
ENDCHAR
STARTCHAR 252F
ENCODING 9519
SWIDTH 1000 0
DWIDTH 14 0
BBX 14 8 0 -3
BITMAP
FFFC
0100
0100
0100
0100
0100
0100
0100
ENDCHAR
STARTCHAR 2530
ENCODING 9520
SWIDTH 1000 0
DWIDTH 14 0
BBX 14 8 0 -3
BITMAP
FFFC
0100
0100
0100
0100
0100
0100
0100
ENDCHAR
STARTCHAR 2531
ENCODING 9521
SWIDTH 1000 0
DWIDTH 14 0
BBX 14 8 0 -3
BITMAP
FFFC
0200
0200
0200
0200
0200
0200
0200
ENDCHAR
STARTCHAR 2532
ENCODING 9522
SWIDTH 1000 0
DWIDTH 14 0
BBX 14 8 0 -3
BITMAP
FFFC
0100
0100
0100
0100
0100
0100
0100
ENDCHAR
STARTCHAR 2533
ENCODING 9523
SWIDTH 1000 0
DWIDTH 14 0
BBX 14 8 0 -3
BITMAP
FFFC
0100
0100
0100
0100
0100
0100
0100
ENDCHAR
STARTCHAR 2534
ENCODING 9524
SWIDTH 1000 0
DWIDTH 14 0
BBX 14 8 0 4
BITMAP
0100
0100
0100
0100
0100
0100
0100
FFFC
ENDCHAR
STARTCHAR 2535
ENCODING 9525
SWIDTH 1071 0
DWIDTH 15 0
BBX 15 8 0 3
BITMAP
0100
0100
0100
0100
0100
0100
0100
FFFE
ENDCHAR
STARTCHAR 2536
ENCODING 9526
SWIDTH 1000 0
DWIDTH 14 0
BBX 14 8 0 3
BITMAP
0100
0100
0100
0100
0100
0100
0100
FFFC
ENDCHAR
STARTCHAR 2537
ENCODING 9527
SWIDTH 1000 0
DWIDTH 14 0
BBX 14 8 0 3
BITMAP
0100
0100
0100
0100
0100
0100
0100
FFFC
ENDCHAR
STARTCHAR 2538
ENCODING 9528
SWIDTH 1000 0
DWIDTH 14 0
BBX 14 8 0 4
BITMAP
0100
0100
0100
0100
0100
0100
0100
FFFC
ENDCHAR
STARTCHAR 2539
ENCODING 9529
SWIDTH 1000 0
DWIDTH 14 0
BBX 14 8 0 3
BITMAP
0100
0100
0100
0100
0100
0100
0100
FFFC
ENDCHAR
STARTCHAR 253A
ENCODING 9530
SWIDTH 1000 0
DWIDTH 14 0
BBX 14 8 0 3
BITMAP
0200
0200
0200
0200
0200
0200
0200
FFFC
ENDCHAR
STARTCHAR 253B
ENCODING 9531
SWIDTH 1000 0
DWIDTH 14 0
BBX 14 8 0 3
BITMAP
0100
0100
0100
0100
0100
0100
0100
FFFC
ENDCHAR
STARTCHAR 253C
ENCODING 9532
SWIDTH 1000 0
DWIDTH 14 0
BBX 14 15 0 -3
BITMAP
0100
0100
0100
0100
0100
0100
0100
FFFC
0100
0100
0100
0100
0100
0100
0100
ENDCHAR
STARTCHAR 253D
ENCODING 9533
SWIDTH 1000 0
DWIDTH 14 0
BBX 14 15 0 -3
BITMAP
0100
0100
0100
0100
0100
0100
0100
FFFC
0100
0100
0100
0100
0100
0100
0100
ENDCHAR
STARTCHAR 253E
ENCODING 9534
SWIDTH 1071 0
DWIDTH 15 0
BBX 15 15 0 -3
BITMAP
0100
0100
0100
0100
0100
0100
0100
FFFE
0100
0100
0100
0100
0100
0100
0100
ENDCHAR
STARTCHAR 253F
ENCODING 9535
SWIDTH 1000 0
DWIDTH 14 0
BBX 14 15 0 -3
BITMAP
0100
0100
0100
0100
0100
0100
0100
FFFC
0100
0100
0100
0100
0100
0100
0100
ENDCHAR
STARTCHAR 2540
ENCODING 9536
SWIDTH 1000 0
DWIDTH 14 0
BBX 14 15 0 -3
BITMAP
0100
0100
0100
0100
0100
0100
0100
FFFC
0100
0100
0100
0100
0100
0100
0100
ENDCHAR
STARTCHAR 2541
ENCODING 9537
SWIDTH 1000 0
DWIDTH 14 0
BBX 14 15 0 -3
BITMAP
0100
0100
0100
0100
0100
0100
0100
FFFC
0100
0100
0100
0100
0100
0100
0100
ENDCHAR
STARTCHAR 2542
ENCODING 9538
SWIDTH 1000 0
DWIDTH 14 0
BBX 14 15 0 -3
BITMAP
0100
0100
0100
0100
0100
0100
0100
FFFC
0100
0100
0100
0100
0100
0100
0100
ENDCHAR
STARTCHAR 2543
ENCODING 9539
SWIDTH 1071 0
DWIDTH 15 0
BBX 15 15 0 -3
BITMAP
0100
0100
0100
0100
0100
0100
0100
FFFE
0100
0100
0100
0100
0100
0100
0100
ENDCHAR
STARTCHAR 2544
ENCODING 9540
SWIDTH 1071 0
DWIDTH 15 0
BBX 15 15 0 -3
BITMAP
0100
0100
0100
0100
0100
0100
0100
FFFE
0100
0100
0100
0100
0100
0100
0100
ENDCHAR
STARTCHAR 2545
ENCODING 9541
SWIDTH 1071 0
DWIDTH 15 0
BBX 15 15 0 -3
BITMAP
0100
0100
0100
0100
0100
0100
0100
FFFE
0100
0100
0100
0100
0100
0100
0100
ENDCHAR
STARTCHAR 2546
ENCODING 9542
SWIDTH 1071 0
DWIDTH 15 0
BBX 15 15 0 -3
BITMAP
0100
0100
0100
0100
0100
0100
0100
FFFE
0100
0100
0100
0100
0100
0100
0100
ENDCHAR
STARTCHAR 2547
ENCODING 9543
SWIDTH 1000 0
DWIDTH 14 0
BBX 14 15 0 -3
BITMAP
0100
0100
0100
0100
0100
0100
0100
FFFC
0100
0100
0100
0100
0100
0100
0100
ENDCHAR
STARTCHAR 2548
ENCODING 9544
SWIDTH 1000 0
DWIDTH 14 0
BBX 14 15 0 -3
BITMAP
0100
0100
0100
0100
0100
0100
0100
FFFC
0100
0100
0100
0100
0100
0100
0100
ENDCHAR
STARTCHAR 2549
ENCODING 9545
SWIDTH 1000 0
DWIDTH 14 0
BBX 14 15 0 -3
BITMAP
0200
0200
0200
0200
0200
0200
0200
FFFC
0200
0200
0200
0200
0200
0200
0200
ENDCHAR
STARTCHAR 254A
ENCODING 9546
SWIDTH 1000 0
DWIDTH 14 0
BBX 14 15 0 -3
BITMAP
0100
0100
0100
0100
0100
0100
0100
FFFC
0100
0100
0100
0100
0100
0100
0100
ENDCHAR
STARTCHAR 254B
ENCODING 9547
SWIDTH 1000 0
DWIDTH 14 0
BBX 14 15 0 -3
BITMAP
0100
0100
0100
0100
0100
0100
0100
FFFC
0100
0100
0100
0100
0100
0100
0100
ENDCHAR
STARTCHAR 2550
ENCODING 9552
SWIDTH 714 0
DWIDTH 10 0
BBX 10 4 0 3
BITMAP
FFC0
0000
0000
FFC0
ENDCHAR
STARTCHAR 2551
ENCODING 9553
SWIDTH 714 0
DWIDTH 10 0
BBX 4 18 3 -4
BITMAP
90
90
90
90
90
90
90
90
90
90
90
90
90
90
90
90
90
90
ENDCHAR
STARTCHAR 2552
ENCODING 9554
SWIDTH 714 0
DWIDTH 10 0
BBX 6 11 5 -4
BITMAP
FC
80
80
FC
80
80
80
80
80
80
80
ENDCHAR
STARTCHAR 2553
ENCODING 9555
SWIDTH 714 0
DWIDTH 10 0
BBX 7 9 3 -5
BITMAP
FE
90
90
90
90
90
90
90
90
ENDCHAR
STARTCHAR 2554
ENCODING 9556
SWIDTH 714 0
DWIDTH 10 0
BBX 7 11 3 -4
BITMAP
FE
80
80
9E
90
90
90
90
90
90
90
ENDCHAR
STARTCHAR 2555
ENCODING 9557
SWIDTH 642 0
DWIDTH 9 0
BBX 5 11 0 -4
BITMAP
F8
08
08
F8
08
08
08
08
08
08
08
ENDCHAR
STARTCHAR 2556
ENCODING 9558
SWIDTH 714 0
DWIDTH 10 0
BBX 7 9 0 -5
BITMAP
FE
12
12
12
12
12
12
12
12
ENDCHAR
STARTCHAR 2557
ENCODING 9559
SWIDTH 714 0
DWIDTH 10 0
BBX 7 11 0 -4
BITMAP
FE
02
02
F2
12
12
12
12
12
12
12
ENDCHAR
STARTCHAR 2558
ENCODING 9560
SWIDTH 714 0
DWIDTH 10 0
BBX 6 11 5 2
BITMAP
80
80
80
80
80
80
80
FC
80
80
FC
ENDCHAR
STARTCHAR 2559
ENCODING 9561
SWIDTH 714 0
DWIDTH 10 0
BBX 7 9 3 4
BITMAP
90
90
90
90
90
90
90
90
FE
ENDCHAR
STARTCHAR 255A
ENCODING 9562
SWIDTH 714 0
DWIDTH 10 0
BBX 7 11 3 2
BITMAP
90
90
90
90
90
90
90
9E
80
80
FE
ENDCHAR
STARTCHAR 255B
ENCODING 9563
SWIDTH 642 0
DWIDTH 9 0
BBX 5 11 0 2
BITMAP
08
08
08
08
08
08
08
F8
08
08
F8
ENDCHAR
STARTCHAR 255C
ENCODING 9564
SWIDTH 714 0
DWIDTH 10 0
BBX 7 9 0 4
BITMAP
12
12
12
12
12
12
12
12
FE
ENDCHAR
STARTCHAR 255D
ENCODING 9565
SWIDTH 714 0
DWIDTH 10 0
BBX 7 11 0 2
BITMAP
12
12
12
12
12
12
12
F2
02
02
FE
ENDCHAR
STARTCHAR 255E
ENCODING 9566
SWIDTH 714 0
DWIDTH 10 0
BBX 6 18 5 -4
BITMAP
80
80
80
80
80
80
80
FC
80
80
FC
80
80
80
80
80
80
80
ENDCHAR
STARTCHAR 255F
ENCODING 9567
SWIDTH 714 0
DWIDTH 10 0
BBX 7 18 3 -4
BITMAP
90
90
90
90
90
90
90
90
90
9E
90
90
90
90
90
90
90
90
ENDCHAR
STARTCHAR 2560
ENCODING 9568
SWIDTH 714 0
DWIDTH 10 0
BBX 7 18 3 -4
BITMAP
90
90
90
90
90
90
90
9E
80
80
9E
90
90
90
90
90
90
90
ENDCHAR
STARTCHAR 2561
ENCODING 9569
SWIDTH 642 0
DWIDTH 9 0
BBX 5 18 0 -4
BITMAP
08
08
08
08
08
08
08
F8
08
08
F8
08
08
08
08
08
08
08
ENDCHAR
STARTCHAR 2562
ENCODING 9570
SWIDTH 714 0
DWIDTH 10 0
BBX 7 18 0 -4
BITMAP
12
12
12
12
12
12
12
12
12
F2
12
12
12
12
12
12
12
12
ENDCHAR
STARTCHAR 2563
ENCODING 9571
SWIDTH 714 0
DWIDTH 10 0
BBX 7 18 0 -4
BITMAP
12
12
12
12
12
12
12
F2
02
02
F2
12
12
12
12
12
12
12
ENDCHAR
STARTCHAR 2564
ENCODING 9572
SWIDTH 714 0
DWIDTH 10 0
BBX 10 11 0 -4
BITMAP
FFC0
0000
0000
FFC0
0400
0400
0400
0400
0400
0400
0400
ENDCHAR
STARTCHAR 2565
ENCODING 9573
SWIDTH 714 0
DWIDTH 10 0
BBX 10 9 0 -5
BITMAP
FFC0
1200
1200
1200
1200
1200
1200
1200
1200
ENDCHAR
STARTCHAR 2566
ENCODING 9574
SWIDTH 714 0
DWIDTH 10 0
BBX 10 11 0 -4
BITMAP
FFC0
0000
0000
F3C0
1200
1200
1200
1200
1200
1200
1200
ENDCHAR
STARTCHAR 2567
ENCODING 9575
SWIDTH 714 0
DWIDTH 10 0
BBX 10 11 0 3
BITMAP
0400
0400
0400
0400
0400
0400
0400
FFC0
0000
0000
FFC0
ENDCHAR
STARTCHAR 2568
ENCODING 9576
SWIDTH 714 0
DWIDTH 10 0
BBX 10 9 0 4
BITMAP
1200
1200
1200
1200
1200
1200
1200
1200
FFC0
ENDCHAR
STARTCHAR 2569
ENCODING 9577
SWIDTH 714 0
DWIDTH 10 0
BBX 10 11 0 3
BITMAP
1200
1200
1200
1200
1200
1200
1200
F3C0
0000
0000
FFC0
ENDCHAR
STARTCHAR 256A
ENCODING 9578
SWIDTH 714 0
DWIDTH 10 0
BBX 10 18 0 -4
BITMAP
0400
0400
0400
0400
0400
0400
0400
FFC0
0400
0400
FFC0
0400
0400
0400
0400
0400
0400
0400
ENDCHAR
STARTCHAR 256B
ENCODING 9579
SWIDTH 714 0
DWIDTH 10 0
BBX 10 18 0 -4
BITMAP
1200
1200
1200
1200
1200
1200
1200
1200
1200
FFC0
1200
1200
1200
1200
1200
1200
1200
1200
ENDCHAR
STARTCHAR 256C
ENCODING 9580
SWIDTH 714 0
DWIDTH 10 0
BBX 10 18 0 -4
BITMAP
1200
1200
1200
1200
1200
1200
1200
F3C0
0000
0000
F3C0
1200
1200
1200
1200
1200
1200
1200
ENDCHAR
STARTCHAR 256D
ENCODING 9581
SWIDTH 1000 0
DWIDTH 14 0
BBX 7 8 7 -3
BITMAP
06
18
20
40
40
80
80
80
ENDCHAR
STARTCHAR 256E
ENCODING 9582
SWIDTH 1000 0
DWIDTH 14 0
BBX 7 8 0 -3
BITMAP
C0
30
08
04
04
02
02
02
ENDCHAR
STARTCHAR 256F
ENCODING 9583
SWIDTH 1000 0
DWIDTH 14 0
BBX 7 8 0 5
BITMAP
02
02
02
04
04
08
30
C0
ENDCHAR
STARTCHAR 2570
ENCODING 9584
SWIDTH 1000 0
DWIDTH 14 0
BBX 7 8 7 5
BITMAP
80
80
80
40
40
20
18
06
ENDCHAR
STARTCHAR 2571
ENCODING 9585
SWIDTH 1000 0
DWIDTH 14 0
BBX 12 13 1 -2
BITMAP
0010
0030
0060
00C0
0180
0300
0600
0400
0800
1000
2000
4000
8000
ENDCHAR
STARTCHAR 2572
ENCODING 9586
SWIDTH 1000 0
DWIDTH 14 0
BBX 12 13 1 -2
BITMAP
8000
4000
2000
1000
1800
0800
0400
0200
0100
0080
0040
0020
0010
ENDCHAR
STARTCHAR 2573
ENCODING 9587
SWIDTH 1000 0
DWIDTH 14 0
BBX 12 13 1 -2
BITMAP
8010
4020
2040
10C0
1980
0900
0600
0600
0900
1080
2040
4020
8010
ENDCHAR
STARTCHAR 2580
ENCODING 9600
SWIDTH 714 0
DWIDTH 10 0
BBX 10 9 0 4
BITMAP
FFC0
FFC0
FFC0
FFC0
FFC0
FFC0
FFC0
FFC0
FFC0
ENDCHAR
STARTCHAR 2581
ENCODING 9601
SWIDTH 1000 0
DWIDTH 14 0
BBX 14 2 0 -2
BITMAP
FFFC
FFFC
ENDCHAR
STARTCHAR 2582
ENCODING 9602
SWIDTH 1000 0
DWIDTH 14 0
BBX 14 4 0 -3
BITMAP
FFFC
FFFC
FFFC
FFFC
ENDCHAR
STARTCHAR 2583
ENCODING 9603
SWIDTH 1000 0
DWIDTH 14 0
BBX 14 6 0 -3
BITMAP
FFFC
FFFC
FFFC
FFFC
FFFC
FFFC
ENDCHAR
STARTCHAR 2584
ENCODING 9604
SWIDTH 1000 0
DWIDTH 14 0
BBX 14 8 0 -3
BITMAP
FFFC
FFFC
FFFC
FFFC
FFFC
FFFC
FFFC
FFFC
ENDCHAR
STARTCHAR 2585
ENCODING 9605
SWIDTH 1000 0
DWIDTH 14 0
BBX 14 10 0 -3
BITMAP
FFFC
FFFC
FFFC
FFFC
FFFC
FFFC
FFFC
FFFC
FFFC
FFFC
ENDCHAR
STARTCHAR 2586
ENCODING 9606
SWIDTH 1000 0
DWIDTH 14 0
BBX 14 12 0 -3
BITMAP
FFFC
FFFC
FFFC
FFFC
FFFC
FFFC
FFFC
FFFC
FFFC
FFFC
FFFC
FFFC
ENDCHAR
STARTCHAR 2587
ENCODING 9607
SWIDTH 1000 0
DWIDTH 14 0
BBX 14 14 0 -3
BITMAP
FFFC
FFFC
FFFC
FFFC
FFFC
FFFC
FFFC
FFFC
FFFC
FFFC
FFFC
FFFC
FFFC
FFFC
ENDCHAR
STARTCHAR 2588
ENCODING 9608
SWIDTH 1000 0
DWIDTH 14 0
BBX 14 15 0 -3
BITMAP
FFFC
FFFC
FFFC
FFFC
FFFC
FFFC
FFFC
FFFC
FFFC
FFFC
FFFC
FFFC
FFFC
FFFC
FFFC
ENDCHAR
STARTCHAR 2589
ENCODING 9609
SWIDTH 1000 0
DWIDTH 14 0
BBX 13 15 0 -3
BITMAP
FFF8
FFF8
FFF8
FFF8
FFF8
FFF8
FFF8
FFF8
FFF8
FFF8
FFF8
FFF8
FFF8
FFF8
FFF8
ENDCHAR
STARTCHAR 258A
ENCODING 9610
SWIDTH 1000 0
DWIDTH 14 0
BBX 11 15 0 -3
BITMAP
FFE0
FFE0
FFE0
FFE0
FFE0
FFE0
FFE0
FFE0
FFE0
FFE0
FFE0
FFE0
FFE0
FFE0
FFE0
ENDCHAR
STARTCHAR 258B
ENCODING 9611
SWIDTH 1000 0
DWIDTH 14 0
BBX 9 15 0 -3
BITMAP
FF80
FF80
FF80
FF80
FF80
FF80
FF80
FF80
FF80
FF80
FF80
FF80
FF80
FF80
FF80
ENDCHAR
STARTCHAR 258C
ENCODING 9612
SWIDTH 1000 0
DWIDTH 14 0
BBX 8 15 0 -3
BITMAP
FF
FF
FF
FF
FF
FF
FF
FF
FF
FF
FF
FF
FF
FF
FF
ENDCHAR
STARTCHAR 258D
ENCODING 9613
SWIDTH 1000 0
DWIDTH 14 0
BBX 6 15 0 -3
BITMAP
FC
FC
FC
FC
FC
FC
FC
FC
FC
FC
FC
FC
FC
FC
FC
ENDCHAR
STARTCHAR 258E
ENCODING 9614
SWIDTH 1000 0
DWIDTH 14 0
BBX 4 15 0 -3
BITMAP
F0
F0
F0
F0
F0
F0
F0
F0
F0
F0
F0
F0
F0
F0
F0
ENDCHAR
STARTCHAR 258F
ENCODING 9615
SWIDTH 1000 0
DWIDTH 14 0
BBX 2 15 0 -3
BITMAP
C0
C0
C0
C0
C0
C0
C0
C0
C0
C0
C0
C0
C0
C0
C0
ENDCHAR
STARTCHAR 2590
ENCODING 9616
SWIDTH 714 0
DWIDTH 10 0
BBX 5 18 5 -4
BITMAP
F8
F8
F8
F8
F8
F8
F8
F8
F8
F8
F8
F8
F8
F8
F8
F8
F8
F8
ENDCHAR
STARTCHAR 2591
ENCODING 9617
SWIDTH 642 0
DWIDTH 9 0
BBX 7 17 1 -4
BITMAP
96
24
00
96
00
24
00
96
24
00
96
00
24
00
96
00
24
ENDCHAR
STARTCHAR 2592
ENCODING 9618
SWIDTH 714 0
DWIDTH 10 0
BBX 10 17 0 -4
BITMAP
5AC0
A500
0000
5AC0
0000
A500
0000
5AC0
A500
0000
5AC0
0000
A500
0000
5AC0
0000
A500
ENDCHAR
STARTCHAR 2593
ENCODING 9619
SWIDTH 1000 0
DWIDTH 14 0
BBX 14 15 0 -3
BITMAP
FFFC
B6DC
B6DC
EDB4
EDB4
FFFC
B6DC
FFFC
EDB4
EDB4
B6DC
B6DC
FFFC
EDB4
FFFC
ENDCHAR
STARTCHAR 2594
ENCODING 9620
SWIDTH 1000 0
DWIDTH 14 0
BBX 14 2 0 10
BITMAP
FFFC
FFFC
ENDCHAR
STARTCHAR 2595
ENCODING 9621
SWIDTH 1000 0
DWIDTH 14 0
BBX 2 15 12 -3
BITMAP
C0
C0
C0
C0
C0
C0
C0
C0
C0
C0
C0
C0
C0
C0
C0
ENDCHAR
STARTCHAR 25A0
ENCODING 9632
SWIDTH 1071 0
DWIDTH 15 0
BBX 11 11 2 -1
BITMAP
FFE0
FFE0
FFE0
FFE0
FFE0
FFE0
FFE0
FFE0
FFE0
FFE0
FFE0
ENDCHAR
STARTCHAR 25A1
ENCODING 9633
SWIDTH 1071 0
DWIDTH 15 0
BBX 11 11 2 -1
BITMAP
FFE0
8020
8020
8020
8020
8020
8020
8020
8020
8020
FFE0
ENDCHAR
STARTCHAR 25AA
ENCODING 9642
SWIDTH 357 0
DWIDTH 5 0
BBX 3 3 1 3
BITMAP
E0
E0
E0
ENDCHAR
STARTCHAR 25AB
ENCODING 9643
SWIDTH 357 0
DWIDTH 5 0
BBX 3 4 1 3
BITMAP
E0
A0
A0
E0
ENDCHAR
STARTCHAR 25AC
ENCODING 9644
SWIDTH 1000 0
DWIDTH 14 0
BBX 14 3 0 2
BITMAP
FFFC
FFFC
FFFC
ENDCHAR
STARTCHAR 25B2
ENCODING 9650
SWIDTH 1000 0
DWIDTH 14 0
BBX 10 10 2 1
BITMAP
0800
0C00
1E00
1E00
3F00
3F00
7F80
7F80
FFC0
FFC0
ENDCHAR
STARTCHAR 25B3
ENCODING 9651
SWIDTH 1000 0
DWIDTH 14 0
BBX 10 10 2 1
BITMAP
0C00
0C00
1200
1200
2100
2100
4080
4080
8040
FFC0
ENDCHAR
STARTCHAR 25BA
ENCODING 9658
SWIDTH 1000 0
DWIDTH 14 0
BBX 9 10 2 0
BITMAP
8000
E000
F800
FE00
FF80
FF80
FE00
F800
E000
8000
ENDCHAR
STARTCHAR 25BC
ENCODING 9660
SWIDTH 1000 0
DWIDTH 14 0
BBX 10 11 2 -1
BITMAP
FFC0
FFC0
FFC0
7F80
7F80
3F00
3F00
1E00
1E00
0C00
0C00
ENDCHAR
STARTCHAR 25BD
ENCODING 9661
SWIDTH 1000 0
DWIDTH 14 0
BBX 10 11 2 -2
BITMAP
FFC0
8040
8080
4080
4100
2100
2100
1200
1200
0C00
0C00
ENDCHAR
STARTCHAR 25C4
ENCODING 9668
SWIDTH 1000 0
DWIDTH 14 0
BBX 9 10 3 0
BITMAP
0080
0380
0F80
3F80
FF80
FF80
3F80
0F80
0380
0080
ENDCHAR
STARTCHAR 25C6
ENCODING 9670
SWIDTH 1000 0
DWIDTH 14 0
BBX 12 13 1 -3
BITMAP
0200
0600
0F00
1F80
3FC0
7FE0
FFF0
7FE0
7FC0
3F80
1F00
0F00
0600
ENDCHAR
STARTCHAR 25C7
ENCODING 9671
SWIDTH 1000 0
DWIDTH 14 0
BBX 12 13 1 -3
BITMAP
0400
0600
0900
1080
2040
4020
8010
4020
2040
10C0
1980
0D00
0600
ENDCHAR
STARTCHAR 25CA
ENCODING 9674
SWIDTH 500 0
DWIDTH 7 0
BBX 7 11 0 0
BITMAP
10
28
28
44
44
82
44
44
28
28
10
ENDCHAR
STARTCHAR 25CB
ENCODING 9675
SWIDTH 1071 0
DWIDTH 15 0
BBX 13 13 1 -2
BITMAP
0F80
3060
6030
4010
8008
8008
8008
8008
8008
4010
6030
3060
0F80
ENDCHAR
STARTCHAR 25CE
ENCODING 9678
SWIDTH 1000 0
DWIDTH 14 0
BBX 12 13 1 -2
BITMAP
0F00
30C0
4F60
70E0
A050
C030
C030
C030
E070
70E0
6F60
30C0
0F00
ENDCHAR
STARTCHAR 25CF
ENCODING 9679
SWIDTH 1000 0
DWIDTH 14 0
BBX 12 12 1 -1
BITMAP
0F00
3FC0
7FE0
7FE0
FFF0
FFF0
FFF0
FFF0
7FE0
7FE0
3FC0
0F00
ENDCHAR
STARTCHAR 25D8
ENCODING 9688
SWIDTH 642 0
DWIDTH 9 0
BBX 7 7 1 0
BITMAP
FE
FE
C6
C6
C6
FE
FE
ENDCHAR
STARTCHAR 25D9
ENCODING 9689
SWIDTH 571 0
DWIDTH 8 0
BBX 8 8 0 0
BITMAP
FF
FB
FD
FD
FD
B9
C3
FF
ENDCHAR
STARTCHAR 25E2
ENCODING 9698
SWIDTH 1000 0
DWIDTH 14 0
BBX 11 11 2 1
BITMAP
0020
0060
00E0
01E0
03E0
07E0
0FE0
1FE0
3FE0
7FE0
FFE0
ENDCHAR
STARTCHAR 25E3
ENCODING 9699
SWIDTH 1000 0
DWIDTH 14 0
BBX 11 11 1 1
BITMAP
8000
C000
E000
F000
F800
FC00
FE00
FF00
FF80
FFC0
FFE0
ENDCHAR
STARTCHAR 25E4
ENCODING 9700
SWIDTH 1000 0
DWIDTH 14 0
BBX 11 11 1 -2
BITMAP
FFE0
FFC0
FF80
FF00
FE00
FC00
F800
F000
E000
C000
8000
ENDCHAR
STARTCHAR 25E5
ENCODING 9701
SWIDTH 1000 0
DWIDTH 14 0
BBX 11 11 2 -2
BITMAP
FFE0
7FE0
3FE0
1FE0
0FE0
07E0
03E0
01E0
00E0
0060
0020
ENDCHAR
STARTCHAR 25E6
ENCODING 9702
SWIDTH 428 0
DWIDTH 6 0
BBX 4 4 1 3
BITMAP
60
90
90
60
ENDCHAR
STARTCHAR 2605
ENCODING 9733
SWIDTH 1000 0
DWIDTH 14 0
BBX 12 12 1 -1
BITMAP
0400
0600
0600
0600
FFF0
3FE0
1F80
1F80
1F80
1980
10C0
2000
ENDCHAR
STARTCHAR 2606
ENCODING 9734
SWIDTH 1000 0
DWIDTH 14 0
BBX 12 12 1 -1
BITMAP
0400
0600
0600
0A00
F9F0
2060
1080
1080
1680
1980
10C0
2040
ENDCHAR
STARTCHAR 2609
ENCODING 9737
SWIDTH 1000 0
DWIDTH 14 0
BBX 6 7 4 1
BITMAP
70
48
84
94
84
48
78
ENDCHAR
STARTCHAR 263A
ENCODING 9786
SWIDTH 1071 0
DWIDTH 15 0
BBX 9 10 3 -2
BITMAP
1C00
6300
4100
A280
8080
8080
A280
5D00
6300
1C00
ENDCHAR
STARTCHAR 263B
ENCODING 9787
SWIDTH 1000 0
DWIDTH 14 0
BBX 8 9 3 -1
BITMAP
3C
7E
FF
DB
FF
FF
FB
7E
3C
ENDCHAR
STARTCHAR 263C
ENCODING 9788
SWIDTH 928 0
DWIDTH 13 0
BBX 12 13 1 -1
BITMAP
0400
4420
2E40
1180
2080
2040
E070
2040
1080
1080
2F40
4420
0400
ENDCHAR
STARTCHAR 2640
ENCODING 9792
SWIDTH 1000 0
DWIDTH 14 0
BBX 6 10 4 -2
BITMAP
78
CC
84
84
48
30
10
FC
10
10
ENDCHAR
STARTCHAR 2642
ENCODING 9794
SWIDTH 928 0
DWIDTH 13 0
BBX 5 10 4 0
BITMAP
20
70
A8
20
60
90
88
88
D8
70
ENDCHAR
STARTCHAR 2660
ENCODING 9824
SWIDTH 500 0
DWIDTH 7 0
BBX 7 9 0 0
BITMAP
10
10
38
7C
FE
FE
7C
10
7C
ENDCHAR
STARTCHAR 2663
ENCODING 9827
SWIDTH 642 0
DWIDTH 9 0
BBX 9 9 0 0
BITMAP
0C00
1E00
1E00
7F00
FF80
FF80
7B00
0800
1E00
ENDCHAR
STARTCHAR 2665
ENCODING 9829
SWIDTH 500 0
DWIDTH 7 0
BBX 7 9 0 0
BITMAP
6C
EE
FE
FE
7C
38
38
10
10
ENDCHAR
STARTCHAR 2666
ENCODING 9830
SWIDTH 500 0
DWIDTH 7 0
BBX 6 9 1 -1
BITMAP
20
20
70
F8
FC
F8
70
70
20
ENDCHAR
STARTCHAR 266A
ENCODING 9834
SWIDTH 785 0
DWIDTH 11 0
BBX 10 14 1 -3
BITMAP
0200
0300
0280
0240
0240
0200
0200
0200
0200
3E00
FE00
FE00
FC00
7800
ENDCHAR
STARTCHAR 266B
ENCODING 9835
SWIDTH 928 0
DWIDTH 13 0
BBX 10 14 2 -2
BITMAP
00C0
07C0
0F40
0C40
0840
0840
0840
0840
0BC0
0BC0
7FC0
FB80
F800
7000
ENDCHAR
STARTCHAR 3000
ENCODING 12288
SWIDTH 1000 0
DWIDTH 14 0
BBX 0 0 0 0
BITMAP
ENDCHAR
STARTCHAR 3001
ENCODING 12289
SWIDTH 1000 0
DWIDTH 14 0
BBX 3 3 2 0
BITMAP
80
40
20
ENDCHAR
STARTCHAR 3002
ENCODING 12290
SWIDTH 1071 0
DWIDTH 15 0
BBX 4 4 2 -1
BITMAP
60
90
90
60
ENDCHAR
STARTCHAR 3003
ENCODING 12291
SWIDTH 1000 0
DWIDTH 14 0
BBX 4 4 5 2
BITMAP
90
90
90
10
ENDCHAR
STARTCHAR 3005
ENCODING 12293
SWIDTH 1000 0
DWIDTH 14 0
BBX 9 10 2 0
BITMAP
0800
1000
1F80
2080
2100
4200
9A00
0400
0200
0100
ENDCHAR
STARTCHAR 3006
ENCODING 12294
SWIDTH 1000 0
DWIDTH 14 0
BBX 7 8 3 1
BITMAP
02
04
68
58
98
A8
C0
80
ENDCHAR
STARTCHAR 3007
ENCODING 12295
SWIDTH 1000 0
DWIDTH 14 0
BBX 12 14 1 -3
BITMAP
0F00
30C0
6060
4020
8010
8010
8010
8010
8010
8010
4020
6060
30C0
0F00
ENDCHAR
STARTCHAR 3008
ENCODING 12296
SWIDTH 1000 0
DWIDTH 14 0
BBX 4 9 8 0
BITMAP
10
20
40
40
80
40
40
20
10
ENDCHAR
STARTCHAR 3009
ENCODING 12297
SWIDTH 1000 0
DWIDTH 14 0
BBX 4 9 2 0
BITMAP
80
40
40
20
10
20
20
40
80
ENDCHAR
STARTCHAR 300A
ENCODING 12298
SWIDTH 1000 0
DWIDTH 14 0
BBX 6 9 7 0
BITMAP
14
28
28
50
A0
50
50
28
14
ENDCHAR
STARTCHAR 300B
ENCODING 12299
SWIDTH 1000 0
DWIDTH 14 0
BBX 6 9 1 0
BITMAP
A0
50
50
28
14
28
48
50
A0
ENDCHAR
STARTCHAR 300C
ENCODING 12300
SWIDTH 1000 0
DWIDTH 14 0
BBX 4 11 8 0
BITMAP
F0
80
80
80
80
80
80
80
80
80
80
ENDCHAR
STARTCHAR 300D
ENCODING 12301
SWIDTH 1000 0
DWIDTH 14 0
BBX 4 11 2 -2
BITMAP
10
10
10
10
10
10
10
10
10
10
F0
ENDCHAR
STARTCHAR 300E
ENCODING 12302
SWIDTH 1071 0
DWIDTH 15 0
BBX 6 11 8 0
BITMAP
FC
84
BC
A0
A0
A0
A0
A0
A0
A0
E0
ENDCHAR
STARTCHAR 300F
ENCODING 12303
SWIDTH 1071 0
DWIDTH 15 0
BBX 6 10 1 -2
BITMAP
3C
24
24
24
24
24
24
E4
84
FC
ENDCHAR
STARTCHAR 3010
ENCODING 12304
SWIDTH 1000 0
DWIDTH 14 0
BBX 4 13 8 -2
BITMAP
F0
F0
F0
E0
E0
E0
E0
E0
E0
E0
E0
F0
F0
ENDCHAR
STARTCHAR 3011
ENCODING 12305
SWIDTH 1000 0
DWIDTH 14 0
BBX 5 13 1 -2
BITMAP
F8
78
78
38
38
38
38
38
38
38
78
78
F8
ENDCHAR
STARTCHAR 3012
ENCODING 12306
SWIDTH 1071 0
DWIDTH 15 0
BBX 11 11 2 -2
BITMAP
FFE0
0000
0000
0000
FFE0
0400
0400
0400
0400
0400
0400
ENDCHAR
STARTCHAR 3013
ENCODING 12307
SWIDTH 1000 0
DWIDTH 14 0
BBX 12 14 1 -3
BITMAP
FFF0
FFF0
FFF0
FFF0
FFF0
FFF0
0000
0000
FFF0
FFF0
FFF0
FFF0
FFF0
FFF0
ENDCHAR
STARTCHAR 3014
ENCODING 12308
SWIDTH 1000 0
DWIDTH 14 0
BBX 4 13 8 -3
BITMAP
10
E0
80
80
80
80
80
80
80
80
80
C0
30
ENDCHAR
STARTCHAR 3015
ENCODING 12309
SWIDTH 1000 0
DWIDTH 14 0
BBX 4 13 2 -3
BITMAP
80
70
10
10
10
10
10
10
10
10
10
30
C0
ENDCHAR
STARTCHAR 3016
ENCODING 12310
SWIDTH 1000 0
DWIDTH 14 0
BBX 5 13 7 -2
BITMAP
F8
88
90
90
A0
A0
A0
A0
A0
A0
90
90
F8
ENDCHAR
STARTCHAR 3017
ENCODING 12311
SWIDTH 1000 0
DWIDTH 14 0
BBX 5 13 2 -2
BITMAP
F8
88
48
48
28
28
28
28
28
48
48
88
F8
ENDCHAR
STARTCHAR 301D
ENCODING 12317
SWIDTH 1000 0
DWIDTH 14 0
BBX 3 2 9 7
BITMAP
A0
A0
ENDCHAR
STARTCHAR 301E
ENCODING 12318
SWIDTH 1000 0
DWIDTH 14 0
BBX 3 3 2 7
BITMAP
A0
A0
80
ENDCHAR
STARTCHAR 3021
ENCODING 12321
SWIDTH 1000 0
DWIDTH 14 0
BBX 1 12 7 0
BITMAP
80
80
80
80
80
80
80
80
80
80
80
80
ENDCHAR
STARTCHAR 3022
ENCODING 12322
SWIDTH 1000 0
DWIDTH 14 0
BBX 4 12 5 0
BITMAP
10
90
90
90
90
90
90
90
90
90
90
10
ENDCHAR
STARTCHAR 3023
ENCODING 12323
SWIDTH 1000 0
DWIDTH 14 0
BBX 8 12 3 0
BITMAP
81
89
89
89
89
89
89
89
89
89
89
81
ENDCHAR
STARTCHAR 3024
ENCODING 12324
SWIDTH 1000 0
DWIDTH 14 0
BBX 7 7 3 1
BITMAP
06
04
28
10
38
60
C0
ENDCHAR
STARTCHAR 3025
ENCODING 12325
SWIDTH 1000 0
DWIDTH 14 0
BBX 5 11 4 0
BITMAP
60
48
48
88
70
50
88
88
88
D8
70
ENDCHAR
STARTCHAR 3026
ENCODING 12326
SWIDTH 1000 0
DWIDTH 14 0
BBX 11 5 2 5
BITMAP
0400
0400
0400
0400
FFE0
ENDCHAR
STARTCHAR 3027
ENCODING 12327
SWIDTH 1071 0
DWIDTH 15 0
BBX 11 9 2 1
BITMAP
0400
0400
0400
0400
FFE0
0000
0000
0000
FFE0
ENDCHAR
STARTCHAR 3028
ENCODING 12328
SWIDTH 1071 0
DWIDTH 15 0
BBX 11 11 2 0
BITMAP
0400
0400
0400
FFE0
0000
0000
0000
7FC0
0000
0000
FFE0
ENDCHAR
STARTCHAR 3029
ENCODING 12329
SWIDTH 1000 0
DWIDTH 14 0
BBX 10 13 2 -2
BITMAP
1000
1000
1FC0
2100
3100
4A00
0600
0600
0600
0900
1100
6000
8000
ENDCHAR
STARTCHAR 3041
ENCODING 12353
SWIDTH 1000 0
DWIDTH 14 0
BBX 9 9 3 0
BITMAP
0800
7C00
1000
1E00
7500
D480
9880
9080
E300
ENDCHAR
STARTCHAR 3042
ENCODING 12354
SWIDTH 1000 0
DWIDTH 14 0
BBX 11 11 2 -1
BITMAP
0400
7E00
0800
0F80
3940
6940
CA20
8A20
8C20
8840
71C0
ENDCHAR
STARTCHAR 3043
ENCODING 12355
SWIDTH 1000 0
DWIDTH 14 0
BBX 9 9 3 0
BITMAP
8000
8100
8080
8080
8080
8080
8080
6000
4000
ENDCHAR
STARTCHAR 3044
ENCODING 12356
SWIDTH 1000 0
DWIDTH 14 0
BBX 11 11 2 -1
BITMAP
8000
8040
8040
8020
8020
8020
8020
8020
4020
5000
2000
ENDCHAR
STARTCHAR 3045
ENCODING 12357
SWIDTH 1000 0
DWIDTH 14 0
BBX 7 10 3 -2
BITMAP
7C
00
00
7C
82
02
02
06
0C
30
ENDCHAR
STARTCHAR 3046
ENCODING 12358
SWIDTH 1000 0
DWIDTH 14 0
BBX 9 13 2 -2
BITMAP
3F00
0000
0000
0000
3E00
C180
0080
0080
0080
0100
0300
0C00
1000
ENDCHAR
STARTCHAR 3047
ENCODING 12359
SWIDTH 1071 0
DWIDTH 15 0
BBX 8 10 4 -1
BITMAP
38
00
00
FC
18
30
78
C8
88
0F
ENDCHAR
STARTCHAR 3048
ENCODING 12360
SWIDTH 1000 0
DWIDTH 14 0
BBX 10 12 2 -1
BITMAP
1E00
0000
0100
7F00
0400
0800
1000
2C00
6400
4400
8400
03C0
ENDCHAR
STARTCHAR 3049
ENCODING 12361
SWIDTH 1000 0
DWIDTH 14 0
BBX 9 10 3 1
BITMAP
2000
2100
F080
2000
3F00
2180
6080
A080
A100
6200
ENDCHAR
STARTCHAR 304A
ENCODING 12362
SWIDTH 1000 0
DWIDTH 14 0
BBX 11 13 2 -2
BITMAP
1000
1080
1C60
F800
1000
1780
1840
7020
5020
9020
9060
90C0
7100
ENDCHAR
STARTCHAR 304B
ENCODING 12363
SWIDTH 1000 0
DWIDTH 14 0
BBX 12 12 1 -1
BITMAP
1000
1000
1040
FC20
2220
2210
2210
2210
4210
4420
8400
1800
ENDCHAR
STARTCHAR 304C
ENCODING 12364
SWIDTH 1000 0
DWIDTH 14 0
BBX 12 12 1 0
BITMAP
1050
1030
10A0
FC40
2240
2220
2220
2220
4220
4440
8400
1800
ENDCHAR
STARTCHAR 304D
ENCODING 12365
SWIDTH 1000 0
DWIDTH 14 0
BBX 10 13 2 -2
BITMAP
0800
0F00
FC00
0440
05C0
0F00
F100
1F80
20C0
4000
4000
6000
3F00
ENDCHAR
STARTCHAR 304E
ENCODING 12366
SWIDTH 1000 0
DWIDTH 14 0
BBX 12 14 2 -2
BITMAP
0020
0820
0F50
FC00
0440
05C0
0F00
F100
1F80
20C0
4000
4000
6000
3F00
ENDCHAR
STARTCHAR 304F
ENCODING 12367
SWIDTH 1000 0
DWIDTH 14 0
BBX 8 12 2 -1
BITMAP
02
04
08
30
60
C0
30
18
04
02
03
01
ENDCHAR
STARTCHAR 3050
ENCODING 12368
SWIDTH 1000 0
DWIDTH 14 0
BBX 11 13 2 -1
BITMAP
00A0
0260
0440
0800
1000
6000
C000
3000
1800
0400
0600
0300
0100
ENDCHAR
STARTCHAR 3051
ENCODING 12369
SWIDTH 1071 0
DWIDTH 15 0
BBX 11 11 2 -1
BITMAP
C080
8080
8FE0
8080
8080
8080
8080
8080
A080
C100
0300
ENDCHAR
STARTCHAR 3052
ENCODING 12370
SWIDTH 928 0
DWIDTH 13 0
BBX 12 12 1 -1
BITMAP
0060
8150
8100
9FC0
8100
8100
8100
8100
A100
A100
C200
0600
ENDCHAR
STARTCHAR 3053
ENCODING 12371
SWIDTH 1000 0
DWIDTH 14 0
BBX 10 12 2 -2
BITMAP
2000
1F80
0000
0000
0000
0000
0000
8000
8000
8000
4000
3FC0
ENDCHAR
STARTCHAR 3054
ENCODING 12372
SWIDTH 1000 0
DWIDTH 14 0
BBX 12 13 2 -1
BITMAP
0020
0050
2050
1F80
0000
0000
0000
0000
8000
8000
8000
4000
3FC0
ENDCHAR
STARTCHAR 3055
ENCODING 12373
SWIDTH 1000 0
DWIDTH 14 0
BBX 10 12 2 -1
BITMAP
0800
0800
07C0
FC00
0200
0100
0FC0
3000
4000
4000
2000
1F00
ENDCHAR
STARTCHAR 3056
ENCODING 12374
SWIDTH 928 0
DWIDTH 13 0
BBX 12 13 1 -2
BITMAP
0020
0860
0850
0780
FC00
0200
0100
0FC0
3000
4000
4000
2000
1F00
ENDCHAR
STARTCHAR 3057
ENCODING 12375
SWIDTH 1000 0
DWIDTH 14 0
BBX 9 12 3 -1
BITMAP
8000
8000
8000
8000
8000
8000
8000
8080
8100
8100
4600
3800
ENDCHAR
STARTCHAR 3058
ENCODING 12376
SWIDTH 1000 0
DWIDTH 14 0
BBX 10 12 3 -1
BITMAP
8180
8140
8080
8000
8000
8000
8000
8080
8100
8100
4600
3800
ENDCHAR
STARTCHAR 3059
ENCODING 12377
SWIDTH 1000 0
DWIDTH 14 0
BBX 12 12 1 -2
BITMAP
0100
0100
FFF0
0100
0F00
1100
1100
1100
0F00
0100
0200
0C00
ENDCHAR
STARTCHAR 305A
ENCODING 12378
SWIDTH 1000 0
DWIDTH 14 0
BBX 12 13 1 -2
BITMAP
0050
0130
0100
FFF0
0100
0F00
1100
1100
1100
0F00
0100
0200
0C00
ENDCHAR
STARTCHAR 305B
ENCODING 12379
SWIDTH 1000 0
DWIDTH 14 0
BBX 12 12 1 -1
BITMAP
0080
1080
1080
1090
1FE0
F080
1080
1080
1100
1000
1800
0FE0
ENDCHAR
STARTCHAR 305C
ENCODING 12380
SWIDTH 1071 0
DWIDTH 15 0
BBX 13 12 1 0
BITMAP
00A8
1098
1090
1098
1FE0
F080
1080
1080
1100
1000
1800
0FE0
ENDCHAR
STARTCHAR 305D
ENCODING 12381
SWIDTH 1000 0
DWIDTH 14 0
BBX 10 12 2 -1
BITMAP
7F00
0200
0C00
11C0
7E00
8400
0800
1800
1000
1000
1000
0F00
ENDCHAR
STARTCHAR 305E
ENCODING 12382
SWIDTH 1000 0
DWIDTH 14 0
BBX 12 14 2 -2
BITMAP
0020
0060
7F50
0200
0C00
11C0
7E00
8400
0800
1800
1000
1000
1000
0F00
ENDCHAR
STARTCHAR 305F
ENCODING 12383
SWIDTH 1071 0
DWIDTH 15 0
BBX 12 13 2 -2
BITMAP
1000
1000
1000
FE00
1000
2000
23E0
2000
2000
4000
4400
8600
03F0
ENDCHAR
STARTCHAR 3060
ENCODING 12384
SWIDTH 1071 0
DWIDTH 15 0
BBX 12 13 2 -2
BITMAP
1040
10A0
10B0
FE40
1000
2000
23E0
2000
4000
4000
4400
8600
03F0
ENDCHAR
STARTCHAR 3061
ENCODING 12385
SWIDTH 1071 0
DWIDTH 15 0
BBX 11 12 2 -1
BITMAP
0800
1000
FF80
1000
2000
2F80
7060
C020
0020
0020
00C0
0F00
ENDCHAR
STARTCHAR 3062
ENCODING 12386
SWIDTH 1071 0
DWIDTH 15 0
BBX 12 13 2 -2
BITMAP
0020
0860
1050
FF80
1000
1000
2000
2FC0
7060
4020
0020
00C0
0F00
ENDCHAR
STARTCHAR 3063
ENCODING 12387
SWIDTH 1000 0
DWIDTH 14 0
BBX 9 9 3 -1
BITMAP
3F00
C180
0080
0080
0080
0100
0300
0E00
1000
ENDCHAR
STARTCHAR 3064
ENCODING 12388
SWIDTH 1000 0
DWIDTH 14 0
BBX 11 11 2 -2
BITMAP
1F80
E040
0020
0020
0020
0020
0040
00C0
0180
0E00
0800
ENDCHAR
STARTCHAR 3065
ENCODING 12389
SWIDTH 1000 0
DWIDTH 14 0
BBX 12 14 1 -2
BITMAP
0020
0050
0030
1F80
E040
0020
0020
0020
0020
0040
00C0
0180
0E00
0800
ENDCHAR
STARTCHAR 3066
ENCODING 12390
SWIDTH 1000 0
DWIDTH 14 0
BBX 10 12 2 -2
BITMAP
0040
FF80
0100
0200
0400
0400
0800
0800
0800
0800
0C00
0300
ENDCHAR
STARTCHAR 3067
ENCODING 12391
SWIDTH 1071 0
DWIDTH 15 0
BBX 12 13 2 -1
BITMAP
0050
00D0
FFA0
0300
0200
0400
0400
0800
0800
0800
0800
0400
0380
ENDCHAR
STARTCHAR 3068
ENCODING 12392
SWIDTH 1000 0
DWIDTH 14 0
BBX 10 12 2 -1
BITMAP
2000
2000
2000
2380
2C00
1000
6000
C000
8000
8000
4000
3FC0
ENDCHAR
STARTCHAR 3069
ENCODING 12393
SWIDTH 1000 0
DWIDTH 14 0
BBX 11 12 2 0
BITMAP
20A0
2040
2000
2380
2C00
1000
6000
C000
8000
8000
4000
3FC0
ENDCHAR
STARTCHAR 306A
ENCODING 12394
SWIDTH 1000 0
DWIDTH 14 0
BBX 12 12 1 -1
BITMAP
1000
1000
FCE0
1010
2090
2080
4080
4080
CF80
90E0
1090
0F00
ENDCHAR
STARTCHAR 306B
ENCODING 12395
SWIDTH 1000 0
DWIDTH 14 0
BBX 11 11 2 -1
BITMAP
4000
8FC0
8000
8000
8000
8000
8000
8800
8800
8C00
87E0
ENDCHAR
STARTCHAR 306C
ENCODING 12396
SWIDTH 928 0
DWIDTH 13 0
BBX 11 12 1 -1
BITMAP
0200
4200
4F80
5440
2420
6420
A820
9820
9BA0
9440
6460
0380
ENDCHAR
STARTCHAR 306D
ENCODING 12397
SWIDTH 1071 0
DWIDTH 15 0
BBX 11 12 2 -1
BITMAP
2000
2000
E3C0
2660
2820
3020
2020
6020
6720
A8C0
2860
2780
ENDCHAR
STARTCHAR 306E
ENCODING 12398
SWIDTH 928 0
DWIDTH 13 0
BBX 12 12 1 -3
BITMAP
0F80
3240
6220
4220
8210
8610
8410
8410
8C30
4820
3040
0180
ENDCHAR
STARTCHAR 306F
ENCODING 12399
SWIDTH 1000 0
DWIDTH 14 0
BBX 11 12 1 -1
BITMAP
4080
8080
9FE0
8080
8080
8080
8080
8080
8780
88C0
88A0
0700
ENDCHAR
STARTCHAR 3070
ENCODING 12400
SWIDTH 1000 0
DWIDTH 14 0
BBX 13 13 1 0
BITMAP
0010
0030
40A8
8080
9FE0
8080
8080
8080
8080
8F80
90C0
9080
4F00
ENDCHAR
STARTCHAR 3071
ENCODING 12401
SWIDTH 928 0
DWIDTH 13 0
BBX 12 14 1 -2
BITMAP
0030
0030
40B0
8080
9FE0
8080
8080
8080
8080
8F80
90C0
90A0
9080
4F00
ENDCHAR
STARTCHAR 3072
ENCODING 12402
SWIDTH 1000 0
DWIDTH 14 0
BBX 10 12 2 -2
BITMAP
1000
F100
2100
4180
4180
4180
8140
8100
8300
8200
C600
7800
ENDCHAR
STARTCHAR 3073
ENCODING 12403
SWIDTH 1000 0
DWIDTH 14 0
BBX 11 13 2 -1
BITMAP
00A0
1060
F140
2100
4180
4180
4180
8140
8100
8300
8200
C600
7800
ENDCHAR
STARTCHAR 3074
ENCODING 12404
SWIDTH 1000 0
DWIDTH 14 0
BBX 12 13 2 -2
BITMAP
0070
1050
F170
2100
2100
4180
4180
8140
8100
8300
8200
C600
7800
ENDCHAR
STARTCHAR 3075
ENCODING 12405
SWIDTH 1000 0
DWIDTH 14 0
BBX 12 12 1 -1
BITMAP
1F00
0080
0100
0800
0400
0420
2220
4110
4110
4110
8100
0E00
ENDCHAR
STARTCHAR 3076
ENCODING 12406
SWIDTH 1000 0
DWIDTH 14 0
BBX 13 13 1 0
BITMAP
0050
1F50
00A8
0000
0800
0400
0420
2220
4110
4110
4110
8100
0E00
ENDCHAR
STARTCHAR 3077
ENCODING 12407
SWIDTH 1071 0
DWIDTH 15 0
BBX 13 12 1 -1
BITMAP
1F38
00B8
0100
0800
0400
0420
2220
4110
4110
4108
8100
0E00
ENDCHAR
STARTCHAR 3078
ENCODING 12408
SWIDTH 1000 0
DWIDTH 14 0
BBX 12 10 1 -2
BITMAP
1800
1400
2400
6200
4200
8100
0080
0040
0020
0010
ENDCHAR
STARTCHAR 3079
ENCODING 12409
SWIDTH 1000 0
DWIDTH 14 0
BBX 12 11 1 -2
BITMAP
0040
18A0
1460
2400
6200
C200
8100
0080
0040
0020
0010
ENDCHAR
STARTCHAR 307A
ENCODING 12410
SWIDTH 1071 0
DWIDTH 15 0
BBX 13 11 1 -2
BITMAP
0070
0850
1470
2400
2200
4200
8100
0080
0040
0030
0018
ENDCHAR
STARTCHAR 307B
ENCODING 12411
SWIDTH 1000 0
DWIDTH 14 0
BBX 12 12 1 -1
BITMAP
8FE0
8080
8080
8080
8FF0
8080
8080
8080
8F80
90C0
9080
8F00
ENDCHAR
STARTCHAR 307C
ENCODING 12412
SWIDTH 1000 0
DWIDTH 14 0
BBX 12 13 1 -1
BITMAP
0030
8FE0
8080
8080
8080
8FE0
8080
8080
8080
8F80
90C0
90A0
8F00
ENDCHAR
STARTCHAR 307D
ENCODING 12413
SWIDTH 928 0
DWIDTH 13 0
BBX 12 13 1 -2
BITMAP
0030
0030
8FF0
8080
8080
8FE0
8080
8080
8080
8F80
90C0
9080
8F00
ENDCHAR
STARTCHAR 307E
ENCODING 12414
SWIDTH 1000 0
DWIDTH 14 0
BBX 11 13 1 -2
BITMAP
0200
0200
FFE0
0200
0200
3FE0
0200
0200
3E00
4380
4240
4200
3C00
ENDCHAR
STARTCHAR 307F
ENCODING 12415
SWIDTH 1000 0
DWIDTH 14 0
BBX 12 12 1 -1
BITMAP
1F00
0300
0200
0200
0420
0420
3E20
C9E0
9030
9040
60C0
0300
ENDCHAR
STARTCHAR 3080
ENCODING 12416
SWIDTH 1000 0
DWIDTH 14 0
BBX 12 13 1 -2
BITMAP
1000
1000
FE40
1020
1010
7010
9000
9000
9000
E040
2040
20C0
1F80
ENDCHAR
STARTCHAR 3081
ENCODING 12417
SWIDTH 1000 0
DWIDTH 14 0
BBX 12 11 1 -1
BITMAP
0100
4100
4F80
3260
6230
9210
8C10
8410
8820
7020
00C0
ENDCHAR
STARTCHAR 3082
ENCODING 12418
SWIDTH 928 0
DWIDTH 13 0
BBX 10 12 1 -1
BITMAP
0800
0800
7F00
0800
0800
9000
7F00
1000
1040
1040
10C0
0F80
ENDCHAR
STARTCHAR 3083
ENCODING 12419
SWIDTH 1000 0
DWIDTH 14 0
BBX 9 10 3 1
BITMAP
4400
4400
4F00
F080
2080
2300
1000
1000
1000
1000
ENDCHAR
STARTCHAR 3084
ENCODING 12420
SWIDTH 1000 0
DWIDTH 14 0
BBX 12 13 1 -2
BITMAP
0100
2100
2100
23E0
3C10
D010
1030
08C0
0800
0800
0400
0400
0400
ENDCHAR
STARTCHAR 3085
ENCODING 12421
SWIDTH 1000 0
DWIDTH 14 0
BBX 9 10 3 0
BITMAP
0400
8400
8700
9C80
E480
8480
9580
8F00
1000
2000
ENDCHAR
STARTCHAR 3086
ENCODING 12422
SWIDTH 1000 0
DWIDTH 14 0
BBX 11 13 2 -3
BITMAP
0200
8200
8200
83C0
8E60
9220
E220
C220
8220
8C40
8780
0800
3000
ENDCHAR
STARTCHAR 3087
ENCODING 12423
SWIDTH 1000 0
DWIDTH 14 0
BBX 9 10 3 1
BITMAP
0400
0400
0700
0400
0400
0400
7C00
8700
8480
7800
ENDCHAR
STARTCHAR 3088
ENCODING 12424
SWIDTH 1000 0
DWIDTH 14 0
BBX 10 12 2 -1
BITMAP
0200
0200
0200
03C0
0200
0200
0200
0200
7E00
83C0
8200
7C00
ENDCHAR
STARTCHAR 3089
ENCODING 12425
SWIDTH 1000 0
DWIDTH 14 0
BBX 11 13 1 -2
BITMAP
1E00
0180
0080
2000
2000
2000
4780
7840
C020
0020
0060
00C0
0F00
ENDCHAR
STARTCHAR 308A
ENCODING 12426
SWIDTH 1000 0
DWIDTH 14 0
BBX 9 12 2 -2
BITMAP
8080
8080
8080
8080
8080
8080
8080
A080
4080
0100
0200
0C00
ENDCHAR
STARTCHAR 308B
ENCODING 12427
SWIDTH 1000 0
DWIDTH 14 0
BBX 10 12 2 -1
BITMAP
3F00
0200
0C00
1000
3F00
6080
C040
0040
3840
2640
2280
1F00
ENDCHAR
STARTCHAR 308C
ENCODING 12428
SWIDTH 1000 0
DWIDTH 14 0
BBX 11 13 2 -2
BITMAP
3000
2000
2180
F280
2480
2880
3080
2080
6080
A080
2080
2060
2000
ENDCHAR
STARTCHAR 308D
ENCODING 12429
SWIDTH 1000 0
DWIDTH 14 0
BBX 11 12 1 -2
BITMAP
3F80
0100
0200
0400
0800
1F80
7040
C020
8020
0020
00C0
0700
ENDCHAR
STARTCHAR 308E
ENCODING 12430
SWIDTH 1000 0
DWIDTH 14 0
BBX 9 10 2 0
BITMAP
2000
2000
F000
2F00
3080
2080
6080
A080
2300
2400
ENDCHAR
STARTCHAR 308F
ENCODING 12431
SWIDTH 1000 0
DWIDTH 14 0
BBX 11 12 2 -1
BITMAP
2000
2000
F000
2780
3860
3020
6020
E020
A020
2040
2180
2200
ENDCHAR
STARTCHAR 3090
ENCODING 12432
SWIDTH 1000 0
DWIDTH 14 0
BBX 12 13 1 -1
BITMAP
3F00
0200
0200
0200
07C0
1C20
6410
4810
8810
9310
E4E0
0460
0380
ENDCHAR
STARTCHAR 3091
ENCODING 12433
SWIDTH 1000 0
DWIDTH 14 0
BBX 11 12 2 -2
BITMAP
7E00
0800
1F00
3080
7080
C880
6900
1E00
2000
4080
A440
1860
ENDCHAR
STARTCHAR 3092
ENCODING 12434
SWIDTH 1000 0
DWIDTH 14 0
BBX 11 13 2 -2
BITMAP
0400
0400
7F80
0800
1020
3C60
6580
8600
1A00
3200
2000
2000
1FC0
ENDCHAR
STARTCHAR 3093
ENCODING 12435
SWIDTH 1000 0
DWIDTH 14 0
BBX 12 13 1 -2
BITMAP
0200
0200
0400
0400
0800
0800
1E00
3210
2210
6210
4220
8220
01C0
ENDCHAR
STARTCHAR 309B
ENCODING 12443
SWIDTH 1000 0
DWIDTH 14 0
BBX 4 3 5 6
BITMAP
20
90
40
ENDCHAR
STARTCHAR 309C
ENCODING 12444
SWIDTH 1000 0
DWIDTH 14 0
BBX 3 3 9 6
BITMAP
E0
A0
E0
ENDCHAR
STARTCHAR 309D
ENCODING 12445
SWIDTH 1000 0
DWIDTH 14 0
BBX 5 5 4 2
BITMAP
C0
20
10
08
18
ENDCHAR
STARTCHAR 309E
ENCODING 12446
SWIDTH 1000 0
DWIDTH 14 0
BBX 7 8 4 0
BITMAP
08
04
12
C8
20
10
08
18
ENDCHAR
STARTCHAR 30A1
ENCODING 12449
SWIDTH 1000 0
DWIDTH 14 0
BBX 9 9 3 -1
BITMAP
FF80
0080
0880
0900
0800
0800
1000
2000
C000
ENDCHAR
STARTCHAR 30A2
ENCODING 12450
SWIDTH 1000 0
DWIDTH 14 0
BBX 11 11 2 -2
BITMAP
FFE0
0020
0020
0440
0440
0480
0400
0800
0800
1000
6000
ENDCHAR
STARTCHAR 30A3
ENCODING 12451
SWIDTH 1000 0
DWIDTH 14 0
BBX 9 10 3 1
BITMAP
0080
0100
0600
0800
3800
C800
0800
0800
0800
0800
ENDCHAR
STARTCHAR 30A4
ENCODING 12452
SWIDTH 1000 0
DWIDTH 14 0
BBX 12 12 1 -1
BITMAP
0030
0060
0080
0100
0600
1A00
6200
8200
0200
0200
0200
0200
ENDCHAR
STARTCHAR 30A5
ENCODING 12453
SWIDTH 928 0
DWIDTH 13 0
BBX 9 11 2 -1
BITMAP
0800
0800
FF80
8080
8080
0080
0080
0100
0300
0C00
1000
ENDCHAR
STARTCHAR 30A6
ENCODING 12454
SWIDTH 1000 0
DWIDTH 14 0
BBX 12 12 1 -2
BITMAP
0400
0400
FFF0
8010
8010
8010
0010
0010
0020
0060
00C0
0F00
ENDCHAR
STARTCHAR 30A7
ENCODING 12455
SWIDTH 928 0
DWIDTH 13 0
BBX 9 9 2 -1
BITMAP
7F80
0800
0800
0800
0800
0800
0800
0800
FF80
ENDCHAR
STARTCHAR 30A8
ENCODING 12456
SWIDTH 1000 0
DWIDTH 14 0
BBX 12 11 1 -1
BITMAP
7FE0
0400
0400
0400
0400
0400
0400
0400
0400
0400
FFF0
ENDCHAR
STARTCHAR 30A9
ENCODING 12457
SWIDTH 1000 0
DWIDTH 14 0
BBX 10 11 2 0
BITMAP
0200
0200
FFC0
0600
0600
0A00
1200
2200
4200
0200
0E00
ENDCHAR
STARTCHAR 30AA
ENCODING 12458
SWIDTH 1000 0
DWIDTH 14 0
BBX 12 14 1 -3
BITMAP
0080
0080
0080
FFF0
0180
0180
0280
0680
0C80
1880
3080
6080
0080
0700
ENDCHAR
STARTCHAR 30AB
ENCODING 12459
SWIDTH 1000 0
DWIDTH 14 0
BBX 11 13 2 -2
BITMAP
0800
0800
0800
FFE0
0820
0820
0820
0820
1020
1020
2020
6020
81C0
ENDCHAR
STARTCHAR 30AC
ENCODING 12460
SWIDTH 1000 0
DWIDTH 14 0
BBX 12 14 2 -2
BITMAP
0060
0860
0810
0800
FFE0
0820
0820
0820
0820
1020
1020
2020
6020
C1C0
ENDCHAR
STARTCHAR 30AD
ENCODING 12461
SWIDTH 1000 0
DWIDTH 14 0
BBX 12 13 1 -2
BITMAP
0400
0400
7FE0
0400
0400
0400
0400
0400
FFF0
0200
0200
0200
0200
ENDCHAR
STARTCHAR 30AE
ENCODING 12462
SWIDTH 1000 0
DWIDTH 14 0
BBX 12 14 1 -2
BITMAP
0010
0430
0420
7FE0
0400
0400
0400
0400
0400
FFF0
0200
0200
0200
0200
ENDCHAR
STARTCHAR 30AF
ENCODING 12463
SWIDTH 1000 0
DWIDTH 14 0
BBX 10 12 2 -3
BITMAP
3FC0
4040
4040
8040
0080
0080
0100
0300
0600
0C00
1800
6000
ENDCHAR
STARTCHAR 30B0
ENCODING 12464
SWIDTH 1000 0
DWIDTH 14 0
BBX 12 14 1 -2
BITMAP
0010
0030
1FF0
2040
4040
C040
0080
0080
0100
0100
0200
0400
1800
2000
ENDCHAR
STARTCHAR 30B1
ENCODING 12465
SWIDTH 1000 0
DWIDTH 14 0
BBX 11 12 2 -2
BITMAP
2000
2000
7FE0
4100
8100
0100
0100
0300
0200
0200
0C00
1800
ENDCHAR
STARTCHAR 30B2
ENCODING 12466
SWIDTH 928 0
DWIDTH 13 0
BBX 12 13 1 -2
BITMAP
0060
2050
2020
7FE0
4100
8100
0100
0100
0300
0200
0200
0C00
1800
ENDCHAR
STARTCHAR 30B3
ENCODING 12467
SWIDTH 1000 0
DWIDTH 14 0
BBX 11 11 2 -1
BITMAP
FFE0
0020
0020
0020
0020
0020
0020
0020
0020
0020
FFE0
ENDCHAR
STARTCHAR 30B4
ENCODING 12468
SWIDTH 1000 0
DWIDTH 14 0
BBX 13 13 0 -1
BITMAP
0010
0028
FFF8
0020
0020
0020
0020
0020
0020
0020
0020
0020
FFE0
ENDCHAR
STARTCHAR 30B5
ENCODING 12469
SWIDTH 1071 0
DWIDTH 15 0
BBX 13 13 1 -3
BITMAP
2040
2040
2040
2040
FFF8
2040
2040
2040
0040
0080
0180
0700
1800
ENDCHAR
STARTCHAR 30B6
ENCODING 12470
SWIDTH 1000 0
DWIDTH 14 0
BBX 13 14 1 -3
BITMAP
0010
2070
2048
2040
2040
FFF0
2040
2040
2040
0040
0080
0180
0700
1C00
ENDCHAR
STARTCHAR 30B7
ENCODING 12471
SWIDTH 1000 0
DWIDTH 14 0
BBX 12 12 1 -2
BITMAP
4000
3000
0810
0020
0020
F040
0040
0080
0100
0200
0C00
7000
ENDCHAR
STARTCHAR 30B8
ENCODING 12472
SWIDTH 1000 0
DWIDTH 14 0
BBX 12 13 1 -2
BITMAP
0010
4030
3030
0800
0010
0030
F020
0040
0080
0100
0600
3800
4000
ENDCHAR
STARTCHAR 30B9
ENCODING 12473
SWIDTH 1000 0
DWIDTH 14 0
BBX 11 12 2 -2
BITMAP
FF80
0080
0100
0100
0100
0200
0600
0E00
1900
3080
6040
8020
ENDCHAR
STARTCHAR 30BA
ENCODING 12474
SWIDTH 1000 0
DWIDTH 14 0
BBX 12 13 2 -1
BITMAP
0060
FFD0
0080
0100
0100
0100
0200
0600
0E00
1900
3080
6040
8020
ENDCHAR
STARTCHAR 30BB
ENCODING 12475
SWIDTH 1000 0
DWIDTH 14 0
BBX 11 13 1 -2
BITMAP
1000
1000
1000
FFE0
1020
1040
1040
1080
1000
1000
1020
1020
1FE0
ENDCHAR
STARTCHAR 30BC
ENCODING 12476
SWIDTH 1000 0
DWIDTH 14 0
BBX 12 13 1 -1
BITMAP
1050
1030
1000
FFE0
1020
1040
1040
1080
1000
1000
1020
1020
1FE0
ENDCHAR
STARTCHAR 30BD
ENCODING 12477
SWIDTH 1000 0
DWIDTH 14 0
BBX 12 12 1 -2
BITMAP
8010
4010
2020
1020
1020
0020
0040
00C0
0080
0300
0E00
1800
ENDCHAR
STARTCHAR 30BE
ENCODING 12478
SWIDTH 1000 0
DWIDTH 14 0
BBX 12 13 1 -2
BITMAP
0030
8030
4000
2020
2020
1040
0040
00C0
0080
0100
0200
0C00
3000
ENDCHAR
STARTCHAR 30BF
ENCODING 12479
SWIDTH 1000 0
DWIDTH 14 0
BBX 11 12 2 -3
BITMAP
1FE0
2040
4040
4040
80C0
0C80
0380
0380
0640
0C00
3000
C000
ENDCHAR
STARTCHAR 30C0
ENCODING 12480
SWIDTH 1000 0
DWIDTH 14 0
BBX 13 14 1 -3
BITMAP
0010
0030
1FD8
1040
2040
6040
4040
8680
0180
01C0
0260
0400
1800
6000
ENDCHAR
STARTCHAR 30C1
ENCODING 12481
SWIDTH 1000 0
DWIDTH 14 0
BBX 12 13 1 -3
BITMAP
00E0
7F00
0200
0200
0200
FFF0
0200
0200
0200
0400
0C00
1800
2000
ENDCHAR
STARTCHAR 30C2
ENCODING 12482
SWIDTH 1000 0
DWIDTH 14 0
BBX 13 14 1 -3
BITMAP
0030
00E8
7F18
0200
0200
0200
FFF0
0200
0200
0200
0400
0C00
1800
2000
ENDCHAR
STARTCHAR 30C3
ENCODING 12483
SWIDTH 1000 0
DWIDTH 14 0
BBX 10 10 2 0
BITMAP
8440
4440
4440
2440
2080
0080
0100
0200
0C00
3000
ENDCHAR
STARTCHAR 30C4
ENCODING 12484
SWIDTH 1000 0
DWIDTH 14 0
BBX 12 12 1 -2
BITMAP
0210
C210
4210
2210
2210
2020
0020
0040
00C0
0180
0600
1800
ENDCHAR
STARTCHAR 30C5
ENCODING 12485
SWIDTH 1000 0
DWIDTH 14 0
BBX 12 13 1 -2
BITMAP
0030
0430
8200
4220
4220
2220
2220
0040
0040
0080
0100
0600
1800
ENDCHAR
STARTCHAR 30C6
ENCODING 12486
SWIDTH 1000 0
DWIDTH 14 0
BBX 12 11 1 -3
BITMAP
7FE0
0000
0000
0000
FFF0
0200
0200
0200
0400
0400
1800
ENDCHAR
STARTCHAR 30C7
ENCODING 12487
SWIDTH 1000 0
DWIDTH 14 0
BBX 12 12 1 -2
BITMAP
0030
7FE0
0000
0000
0000
FFF0
0200
0200
0200
0600
0400
1800
ENDCHAR
STARTCHAR 30C8
ENCODING 12488
SWIDTH 1000 0
DWIDTH 14 0
BBX 7 13 4 -2
BITMAP
80
80
80
80
A0
98
86
80
80
80
80
80
80
ENDCHAR
STARTCHAR 30C9
ENCODING 12489
SWIDTH 1000 0
DWIDTH 14 0
BBX 9 13 4 -1
BITMAP
8200
8280
8000
8000
A000
9C00
8700
8000
8000
8000
8000
8000
8000
ENDCHAR
STARTCHAR 30CA
ENCODING 12490
SWIDTH 1000 0
DWIDTH 14 0
BBX 12 13 1 -2
BITMAP
0200
0200
0200
0200
FFF0
0200
0200
0200
0400
0400
0800
3000
4000
ENDCHAR
STARTCHAR 30CB
ENCODING 12491
SWIDTH 1000 0
DWIDTH 14 0
BBX 12 10 1 -1
BITMAP
7FE0
0000
0000
0000
0000
0000
0000
0000
0000
FFF0
ENDCHAR
STARTCHAR 30CC
ENCODING 12492
SWIDTH 1000 0
DWIDTH 14 0
BBX 11 12 1 -3
BITMAP
7FC0
0040
0040
0040
3080
1880
0580
0300
0380
0CC0
3060
C000
ENDCHAR
STARTCHAR 30CD
ENCODING 12493
SWIDTH 928 0
DWIDTH 13 0
BBX 10 13 1 -2
BITMAP
0400
7FC0
0080
0080
0100
0200
0600
0D80
3440
C400
0400
0400
0400
ENDCHAR
STARTCHAR 30CE
ENCODING 12494
SWIDTH 1000 0
DWIDTH 14 0
BBX 11 11 2 -1
BITMAP
0020
0040
0040
0080
0080
0100
0200
0400
0800
3000
C000
ENDCHAR
STARTCHAR 30CF
ENCODING 12495
SWIDTH 1000 0
DWIDTH 14 0
BBX 12 10 1 0
BITMAP
1080
1080
1040
1040
2040
2020
2020
4020
C010
0010
ENDCHAR
STARTCHAR 30D0
ENCODING 12496
SWIDTH 1000 0
DWIDTH 14 0
BBX 11 12 2 0
BITMAP
00A0
0060
2160
2100
2100
2080
4080
4040
4040
8040
8020
0020
ENDCHAR
STARTCHAR 30D1
ENCODING 12497
SWIDTH 1071 0
DWIDTH 15 0
BBX 13 12 1 -2
BITMAP
0038
0028
10B8
1080
1040
1040
2060
2020
2020
4010
4010
8010
ENDCHAR
STARTCHAR 30D2
ENCODING 12498
SWIDTH 1000 0
DWIDTH 14 0
BBX 11 12 2 -1
BITMAP
8000
8000
80C0
8300
8C00
F000
8000
8000
8000
8000
8020
7FC0
ENDCHAR
STARTCHAR 30D3
ENCODING 12499
SWIDTH 1000 0
DWIDTH 14 0
BBX 11 13 2 0
BITMAP
00A0
8060
8060
8180
8300
8C00
F000
8000
8000
8000
8000
8020
7FC0
ENDCHAR
STARTCHAR 30D4
ENCODING 12500
SWIDTH 1000 0
DWIDTH 14 0
BBX 11 12 2 -1
BITMAP
8060
8060
80C0
8380
8C00
B000
C000
8000
8000
8000
8040
7F80
ENDCHAR
STARTCHAR 30D5
ENCODING 12501
SWIDTH 1000 0
DWIDTH 14 0
BBX 11 11 1 -3
BITMAP
FFE0
0020
0020
0020
0020
0040
0040
0080
0100
0600
1C00
ENDCHAR
STARTCHAR 30D6
ENCODING 12502
SWIDTH 1000 0
DWIDTH 14 0
BBX 12 13 1 -3
BITMAP
0010
0030
FFE0
0040
0040
0040
0040
0080
0080
0100
0300
0600
1800
ENDCHAR
STARTCHAR 30D7
ENCODING 12503
SWIDTH 1000 0
DWIDTH 14 0
BBX 12 13 1 -3
BITMAP
0070
0050
FFF0
0040
0040
0040
0040
0080
0080
0100
0300
0600
1800
ENDCHAR
STARTCHAR 30D8
ENCODING 12504
SWIDTH 1000 0
DWIDTH 14 0
BBX 12 11 1 -1
BITMAP
1000
1800
2400
4200
4200
8100
0080
00C0
0040
0020
0030
ENDCHAR
STARTCHAR 30D9
ENCODING 12505
SWIDTH 1000 0
DWIDTH 14 0
BBX 12 11 1 -1
BITMAP
1050
1830
2400
4200
4200
8100
0080
00C0
0040
0020
0030
ENDCHAR
STARTCHAR 30DA
ENCODING 12506
SWIDTH 1000 0
DWIDTH 14 0
BBX 12 13 1 -3
BITMAP
0020
1050
3850
2C20
4400
4200
8300
8100
0080
00C0
0040
0020
0030
ENDCHAR
STARTCHAR 30DB
ENCODING 12507
SWIDTH 1000 0
DWIDTH 14 0
BBX 12 13 1 -2
BITMAP
0400
0400
0400
FFF0
0400
0400
44C0
4440
4420
8420
8430
0400
1C00
ENDCHAR
STARTCHAR 30DC
ENCODING 12508
SWIDTH 1000 0
DWIDTH 14 0
BBX 12 13 1 -1
BITMAP
0450
0450
0400
FFF0
0400
0400
44C0
4440
4420
8420
8430
0400
1C00
ENDCHAR
STARTCHAR 30DD
ENCODING 12509
SWIDTH 1000 0
DWIDTH 14 0
BBX 12 13 1 -2
BITMAP
0470
0450
0470
FFF0
0400
0400
4480
4440
4440
8420
8420
0400
1C00
ENDCHAR
STARTCHAR 30DE
ENCODING 12510
SWIDTH 1000 0
DWIDTH 14 0
BBX 11 12 1 -2
BITMAP
FFE0
0020
0020
0040
0080
2180
3100
1E00
0C00
0400
0200
0100
ENDCHAR
STARTCHAR 30DF
ENCODING 12511
SWIDTH 1000 0
DWIDTH 14 0
BBX 12 13 1 -3
BITMAP
2000
1E00
01E0
0010
0000
3C00
0380
0040
0000
E000
1E00
0380
0060
ENDCHAR
STARTCHAR 30E0
ENCODING 12512
SWIDTH 1000 0
DWIDTH 14 0
BBX 12 11 1 -1
BITMAP
0400
0400
0800
0800
0800
1080
1040
1040
2020
23E0
FC30
ENDCHAR
STARTCHAR 30E1
ENCODING 12513
SWIDTH 1000 0
DWIDTH 14 0
BBX 10 11 2 -1
BITMAP
0040
0080
2080
1880
0500
0300
0380
04C0
1840
3000
C000
ENDCHAR
STARTCHAR 30E2
ENCODING 12514
SWIDTH 1000 0
DWIDTH 14 0
BBX 12 12 1 -2
BITMAP
7FE0
0800
0800
0800
0800
FFF0
0800
0800
0800
0810
0810
0FE0
ENDCHAR
STARTCHAR 30E3
ENCODING 12515
SWIDTH 1000 0
DWIDTH 14 0
BBX 10 10 2 -1
BITMAP
2000
2000
FFC0
2080
2080
1100
1000
1000
1000
1000
ENDCHAR
STARTCHAR 30E4
ENCODING 12516
SWIDTH 1000 0
DWIDTH 14 0
BBX 12 12 1 -2
BITMAP
1000
1000
FFF0
1030
1020
1040
1040
0800
0800
0800
0800
0800
ENDCHAR
STARTCHAR 30E5
ENCODING 12517
SWIDTH 1000 0
DWIDTH 14 0
BBX 9 9 3 -1
BITMAP
3F00
0100
0200
0200
0200
0200
0200
0200
FF80
ENDCHAR
STARTCHAR 30E6
ENCODING 12518
SWIDTH 928 0
DWIDTH 13 0
BBX 11 11 1 -1
BITMAP
3F80
0080
0080
0080
0080
0100
0100
0100
0100
0100
FFE0
ENDCHAR
STARTCHAR 30E7
ENCODING 12519
SWIDTH 1000 0
DWIDTH 14 0
BBX 8 9 3 0
BITMAP
FF
01
01
01
FF
01
01
01
FF
ENDCHAR
STARTCHAR 30E8
ENCODING 12520
SWIDTH 1000 0
DWIDTH 14 0
BBX 10 11 2 -1
BITMAP
FFC0
0040
0040
0040
0040
FFC0
0040
0040
0040
0040
FFC0
ENDCHAR
STARTCHAR 30E9
ENCODING 12521
SWIDTH 1000 0
DWIDTH 14 0
BBX 12 12 1 -3
BITMAP
7FE0
0000
0000
0000
FFF0
0010
0020
0020
0040
0080
0300
1C00
ENDCHAR
STARTCHAR 30EA
ENCODING 12522
SWIDTH 1000 0
DWIDTH 14 0
BBX 9 12 2 -2
BITMAP
8080
8080
8080
8080
8080
8080
8080
0080
0100
0100
0200
3C00
ENDCHAR
STARTCHAR 30EB
ENCODING 12523
SWIDTH 928 0
DWIDTH 13 0
BBX 11 13 1 -2
BITMAP
0200
2200
2200
2200
2200
2200
2200
4200
4220
4240
C380
8600
0400
ENDCHAR
STARTCHAR 30EC
ENCODING 12524
SWIDTH 1000 0
DWIDTH 14 0
BBX 11 12 2 -2
BITMAP
4000
4000
4000
4000
4000
4060
40C0
4100
4600
5800
7000
8000
ENDCHAR
STARTCHAR 30ED
ENCODING 12525
SWIDTH 1071 0
DWIDTH 15 0
BBX 11 10 2 -1
BITMAP
FFE0
8020
8020
8020
8020
8020
8020
8020
8020
FFE0
ENDCHAR
STARTCHAR 30EE
ENCODING 12526
SWIDTH 928 0
DWIDTH 13 0
BBX 9 10 2 -1
BITMAP
FF80
8080
8080
0080
0080
0100
0100
0200
0C00
1000
ENDCHAR
STARTCHAR 30EF
ENCODING 12527
SWIDTH 928 0
DWIDTH 13 0
BBX 11 12 1 -2
BITMAP
FFE0
8020
8020
8020
0020
0020
0040
0040
0080
0300
0E00
0800
ENDCHAR
STARTCHAR 30F0
ENCODING 12528
SWIDTH 928 0
DWIDTH 13 0
BBX 11 13 1 -2
BITMAP
0100
0100
7FE0
2100
2100
2100
2100
2100
FFE0
0100
0100
0100
0100
ENDCHAR
STARTCHAR 30F1
ENCODING 12529
SWIDTH 928 0
DWIDTH 13 0
BBX 11 11 1 -1
BITMAP
7FE0
0440
0440
0440
0440
0400
0400
0400
0400
0400
FFE0
ENDCHAR
STARTCHAR 30F2
ENCODING 12530
SWIDTH 1000 0
DWIDTH 14 0
BBX 11 12 2 -3
BITMAP
FFC0
0040
0040
0040
FFE0
0040
0040
0080
0180
0300
0C00
3000
ENDCHAR
STARTCHAR 30F3
ENCODING 12531
SWIDTH 1000 0
DWIDTH 14 0
BBX 11 12 2 -1
BITMAP
C000
6000
1020
0040
0040
0080
0180
0300
0600
1800
E000
8000
ENDCHAR
STARTCHAR 30F4
ENCODING 12532
SWIDTH 1000 0
DWIDTH 14 0
BBX 13 13 1 -1
BITMAP
0030
0428
0400
FFF0
8010
8010
0010
0010
0010
0020
0060
01C0
0F00
ENDCHAR
STARTCHAR 30F5
ENCODING 12533
SWIDTH 1000 0
DWIDTH 14 0
BBX 9 10 3 0
BITMAP
1000
1000
FF80
1080
1080
1080
3080
2080
4080
8300
ENDCHAR
STARTCHAR 30F6
ENCODING 12534
SWIDTH 1000 0
DWIDTH 14 0
BBX 10 10 2 -1
BITMAP
2000
2000
7FC0
4200
8200
0200
0200
0400
0400
1800
ENDCHAR
STARTCHAR 30FC
ENCODING 12540
SWIDTH 1071 0
DWIDTH 15 0
BBX 11 1 2 4
BITMAP
FFE0
ENDCHAR
STARTCHAR 30FD
ENCODING 12541
SWIDTH 1000 0
DWIDTH 14 0
BBX 5 5 4 3
BITMAP
C0
60
30
10
08
ENDCHAR
STARTCHAR 30FE
ENCODING 12542
SWIDTH 1000 0
DWIDTH 14 0
BBX 7 7 4 1
BITMAP
0C
26
90
C8
20
30
10
ENDCHAR
STARTCHAR 3105
ENCODING 12549
SWIDTH 1000 0
DWIDTH 14 0
BBX 9 13 3 -2
BITMAP
4000
4000
8000
FF80
0080
0080
0080
0080
0080
0100
0100
0D00
0200
ENDCHAR
STARTCHAR 3106
ENCODING 12550
SWIDTH 1000 0
DWIDTH 14 0
BBX 11 13 2 -2
BITMAP
1000
3000
2000
7F80
0080
4100
3100
1A00
0600
0700
1980
30C0
C060
ENDCHAR
STARTCHAR 3107
ENCODING 12551
SWIDTH 1071 0
DWIDTH 15 0
BBX 11 10 2 -1
BITMAP
FFE0
8020
8020
8020
8020
8020
8020
8020
8020
8020
ENDCHAR
STARTCHAR 3108
ENCODING 12552
SWIDTH 1000 0
DWIDTH 14 0
BBX 12 10 1 -1
BITMAP
FFF0
4000
4000
4000
4000
4000
4000
4000
4000
7FE0
ENDCHAR
STARTCHAR 3109
ENCODING 12553
SWIDTH 1000 0
DWIDTH 14 0
BBX 11 13 1 -2
BITMAP
1000
1000
2000
3FE0
0420
0420
0420
0820
0820
1040
3040
6340
C080
ENDCHAR
STARTCHAR 310A
ENCODING 12554
SWIDTH 1000 0
DWIDTH 14 0
BBX 12 13 1 -2
BITMAP
0400
0400
0400
FFF0
0800
0800
0800
1000
1180
2080
2040
7FE0
0020
ENDCHAR
STARTCHAR 310B
ENCODING 12555
SWIDTH 1000 0
DWIDTH 14 0
BBX 10 12 2 -3
BITMAP
FF00
0100
0200
0400
0FC0
0040
0080
0080
0080
0900
0700
0200
ENDCHAR
STARTCHAR 310C
ENCODING 12556
SWIDTH 1000 0
DWIDTH 14 0
BBX 10 12 2 -1
BITMAP
0200
4400
4400
8400
FFC0
0840
0840
0840
1080
2080
6480
C380
ENDCHAR
STARTCHAR 310D
ENCODING 12557
SWIDTH 1000 0
DWIDTH 14 0
BBX 9 12 2 -1
BITMAP
1080
2100
2100
4200
4200
8400
4200
4200
2100
2100
1080
1080
ENDCHAR
STARTCHAR 310E
ENCODING 12558
SWIDTH 1000 0
DWIDTH 14 0
BBX 12 12 1 -2
BITMAP
FFF0
0400
0800
0800
0FC0
0040
0040
0080
0080
0880
0700
0100
ENDCHAR
STARTCHAR 310F
ENCODING 12559
SWIDTH 1000 0
DWIDTH 14 0
BBX 11 12 1 -2
BITMAP
7FE0
4000
4000
4000
4000
4000
4000
4000
4000
4000
8000
8000
ENDCHAR
STARTCHAR 3110
ENCODING 12560
SWIDTH 1000 0
DWIDTH 14 0
BBX 6 12 4 -1
BITMAP
04
84
84
84
84
84
84
BC
C4
04
04
04
ENDCHAR
STARTCHAR 3111
ENCODING 12561
SWIDTH 1000 0
DWIDTH 14 0
BBX 6 12 4 -1
BITMAP
10
20
20
40
40
80
40
20
30
10
08
04
ENDCHAR
STARTCHAR 3112
ENCODING 12562
SWIDTH 928 0
DWIDTH 13 0
BBX 11 12 1 -2
BITMAP
FFE0
0400
0400
0400
0400
0400
0400
0400
0400
0400
0400
0400
ENDCHAR
STARTCHAR 3113
ENCODING 12563
SWIDTH 1000 0
DWIDTH 14 0
BBX 12 12 1 -1
BITMAP
0400
0400
4440
4440
4440
4440
4440
7FC0
0400
0400
0400
FFF0
ENDCHAR
STARTCHAR 3114
ENCODING 12564
SWIDTH 1000 0
DWIDTH 14 0
BBX 9 13 2 -1
BITMAP
0300
0600
0800
3080
0300
0600
1C00
6400
8400
0400
0400
0400
0400
ENDCHAR
STARTCHAR 3115
ENCODING 12565
SWIDTH 1000 0
DWIDTH 14 0
BBX 11 11 1 -2
BITMAP
7FE0
0020
0020
3FE0
2000
2000
2000
2000
2000
4000
C000
ENDCHAR
STARTCHAR 3116
ENCODING 12566
SWIDTH 1000 0
DWIDTH 14 0
BBX 8 11 3 -1
BITMAP
FF
81
81
81
91
89
85
81
81
81
FF
ENDCHAR
STARTCHAR 3117
ENCODING 12567
SWIDTH 1000 0
DWIDTH 14 0
BBX 10 12 1 -2
BITMAP
FFC0
0840
0840
0840
0840
0840
0A80
0980
0800
0800
0800
0800
ENDCHAR
STARTCHAR 3118
ENCODING 12568
SWIDTH 1000 0
DWIDTH 14 0
BBX 12 14 1 -3
BITMAP
0400
0400
0400
FFF0
0800
0800
0800
0FC0
0080
0080
0180
0100
0200
0400
ENDCHAR
STARTCHAR 3119
ENCODING 12569
SWIDTH 1000 0
DWIDTH 14 0
BBX 10 10 2 0
BITMAP
0800
0800
1000
1000
1000
2100
2100
4080
40C0
FFC0
ENDCHAR
STARTCHAR 311A
ENCODING 12570
SWIDTH 1000 0
DWIDTH 14 0
BBX 10 13 1 -2
BITMAP
0040
C040
2080
1300
0E00
0400
0400
0400
0400
0400
0400
0400
0400
ENDCHAR
STARTCHAR 311B
ENCODING 12571
SWIDTH 1000 0
DWIDTH 14 0
BBX 12 11 1 -2
BITMAP
FFF0
0200
0200
0200
0200
7E00
4000
4000
4000
4000
7FE0
ENDCHAR
STARTCHAR 311C
ENCODING 12572
SWIDTH 1000 0
DWIDTH 14 0
BBX 12 13 1 -2
BITMAP
0400
0400
0400
FFF0
0400
0400
0400
7C00
4000
4000
4000
4000
7FC0
ENDCHAR
STARTCHAR 311D
ENCODING 12573
SWIDTH 1000 0
DWIDTH 14 0
BBX 12 12 1 -1
BITMAP
1080
1080
1080
FFF0
1080
1080
1080
1080
1080
1100
1000
1FC0
ENDCHAR
STARTCHAR 311E
ENCODING 12574
SWIDTH 1000 0
DWIDTH 14 0
BBX 12 12 1 -2
BITMAP
FFF0
0200
2200
2200
4200
7FE0
0420
0840
0840
1040
3080
6080
ENDCHAR
STARTCHAR 311F
ENCODING 12575
SWIDTH 1000 0
DWIDTH 14 0
BBX 9 12 4 -1
BITMAP
F000
1000
1000
1000
1000
1000
0800
0800
0400
0400
0200
0180
ENDCHAR
STARTCHAR 3120
ENCODING 12576
SWIDTH 1000 0
DWIDTH 14 0
BBX 10 13 2 -1
BITMAP
1800
1000
2080
2100
4200
7600
0C00
0800
1100
2080
4080
FFC0
0040
ENDCHAR
STARTCHAR 3121
ENCODING 12577
SWIDTH 1000 0
DWIDTH 14 0
BBX 10 11 2 -2
BITMAP
FF80
0100
0100
4200
3200
1C00
0C00
1A00
3100
6080
8040
ENDCHAR
STARTCHAR 3122
ENCODING 12578
SWIDTH 1000 0
DWIDTH 14 0
BBX 10 13 2 -2
BITMAP
FF80
0080
0100
4100
4100
4100
7FC0
0040
0040
0080
0080
0100
0300
ENDCHAR
STARTCHAR 3123
ENCODING 12579
SWIDTH 1071 0
DWIDTH 15 0
BBX 9 13 3 -3
BITMAP
8000
8000
8000
8000
8000
8000
FF80
0080
0080
0100
0100
0100
0200
ENDCHAR
STARTCHAR 3124
ENCODING 12580
SWIDTH 1000 0
DWIDTH 14 0
BBX 11 12 2 -2
BITMAP
0800
0800
0800
FFE0
0A00
1200
1200
1200
2200
2200
4200
83E0
ENDCHAR
STARTCHAR 3125
ENCODING 12581
SWIDTH 1000 0
DWIDTH 14 0
BBX 11 12 2 -1
BITMAP
0400
0400
0400
0800
0800
1000
1000
2000
2000
4000
4000
FFE0
ENDCHAR
STARTCHAR 3126
ENCODING 12582
SWIDTH 928 0
DWIDTH 13 0
BBX 12 12 1 -2
BITMAP
1200
1200
1200
1200
1200
1200
1200
1200
2200
2200
4210
C3E0
ENDCHAR
STARTCHAR 3127
ENCODING 12583
SWIDTH 1000 0
DWIDTH 14 0
BBX 1 13 6 -2
BITMAP
80
80
80
80
80
80
80
80
80
80
80
80
80
ENDCHAR
STARTCHAR 3128
ENCODING 12584
SWIDTH 1000 0
DWIDTH 14 0
BBX 11 12 1 -1
BITMAP
0040
4080
2080
1100
0900
0600
0600
0D00
1880
3040
6020
8000
ENDCHAR
STARTCHAR 3129
ENCODING 12585
SWIDTH 1000 0
DWIDTH 14 0
BBX 10 10 2 -1
BITMAP
8040
8040
8040
8040
8040
8040
8040
8040
FFC0
0040
ENDCHAR
STARTCHAR 3220
ENCODING 12832
SWIDTH 1071 0
DWIDTH 15 0
BBX 13 13 1 -3
BITMAP
2040
4020
4030
8010
8008
8008
FFE8
8008
8008
8010
8010
4020
2060
ENDCHAR
STARTCHAR 3221
ENCODING 12833
SWIDTH 1071 0
DWIDTH 15 0
BBX 13 13 1 -2
BITMAP
3040
2020
4010
9FD0
8008
8008
8008
8008
8008
BFF0
4010
2020
2020
ENDCHAR
STARTCHAR 3222
ENCODING 12834
SWIDTH 1071 0
DWIDTH 15 0
BBX 13 12 1 -1
BITMAP
2060
4020
5FD0
8008
8008
9F88
8008
8008
8008
7FF0
4010
2020
ENDCHAR
STARTCHAR 3223
ENCODING 12835
SWIDTH 1071 0
DWIDTH 15 0
BBX 13 12 1 -2
BITMAP
2060
4020
7FD0
A548
A548
A548
A9C8
B048
BFC8
A050
4020
2060
ENDCHAR
STARTCHAR 3224
ENCODING 12836
SWIDTH 1071 0
DWIDTH 15 0
BBX 13 12 1 -2
BITMAP
2020
4030
5FD0
8418
8408
9F88
8488
8488
8488
7FD0
4030
2020
ENDCHAR
STARTCHAR 3225
ENCODING 12837
SWIDTH 1071 0
DWIDTH 15 0
BBX 13 12 1 -1
BITMAP
2020
4410
4210
8008
BFE8
8008
8508
8888
8848
5050
7010
2020
ENDCHAR
STARTCHAR 3226
ENCODING 12838
SWIDTH 1071 0
DWIDTH 15 0
BBX 13 13 1 -1
BITMAP
3040
2420
4410
4410
84C8
8F08
B408
8408
8448
8450
47D0
2020
2040
ENDCHAR
STARTCHAR 3227
ENCODING 12839
SWIDTH 1071 0
DWIDTH 15 0
BBX 13 13 1 -3
BITMAP
2000
2020
4910
8910
8908
8908
8908
9088
9088
9050
6070
4020
2060
ENDCHAR
STARTCHAR 3228
ENCODING 12840
SWIDTH 1071 0
DWIDTH 15 0
BBX 13 13 1 -1
BITMAP
3020
2430
4410
4408
9F08
8508
8508
8508
8908
8930
51D0
3020
1020
ENDCHAR
STARTCHAR 3229
ENCODING 12841
SWIDTH 1071 0
DWIDTH 15 0
BBX 13 12 1 -2
BITMAP
2020
6220
4210
8208
8208
BFE8
8208
8208
8208
4210
4210
2020
ENDCHAR
STARTCHAR 3231
ENCODING 12849
SWIDTH 1071 0
DWIDTH 15 0
BBX 13 14 1 -2
BITMAP
2040
50A0
5290
93D0
BC88
9088
93E8
BD88
B2C8
92A8
94B0
5090
4020
2000
ENDCHAR
STARTCHAR 32A3
ENCODING 12963
SWIDTH 928 0
DWIDTH 13 0
BBX 11 13 1 -2
BITMAP
1F00
3180
4040
5FC0
8220
9220
93E0
9220
9220
7FC0
4040
3080
1F00
ENDCHAR
STARTCHAR 338E
ENCODING 13198
SWIDTH 1000 0
DWIDTH 14 0
BBX 12 11 1 -3
BITMAP
6CC0
9530
9520
9520
9520
94C0
9700
97E0
0310
0230
01E0
ENDCHAR
STARTCHAR 338F
ENCODING 13199
SWIDTH 1000 0
DWIDTH 14 0
BBX 10 14 3 -3
BITMAP
8000
8000
8000
8300
94C0
A480
C480
C480
A300
AC00
9F80
0840
08C0
0780
ENDCHAR
STARTCHAR 339C
ENCODING 13212
SWIDTH 1000 0
DWIDTH 14 0
BBX 12 8 1 0
BITMAP
5960
AA90
AA90
AA90
AA90
AA90
AA90
AA90
ENDCHAR
STARTCHAR 339D
ENCODING 13213
SWIDTH 1071 0
DWIDTH 15 0
BBX 11 8 2 0
BITMAP
76C0
D5A0
8520
8520
8520
8D20
9520
7520
ENDCHAR
STARTCHAR 339E
ENCODING 13214
SWIDTH 1000 0
DWIDTH 14 0
BBX 10 11 2 0
BITMAP
8000
8000
8000
86C0
8940
A940
C940
A940
A940
A940
8940
ENDCHAR
STARTCHAR 33A1
ENCODING 13217
SWIDTH 1000 0
DWIDTH 14 0
BBX 9 10 3 0
BITMAP
0180
0080
6D00
9780
9400
9400
9400
9400
9400
9400
ENDCHAR
STARTCHAR 33C4
ENCODING 13252
SWIDTH 1000 0
DWIDTH 14 0
BBX 10 8 2 0
BITMAP
6380
9680
8440
8400
8400
8440
9680
7380
ENDCHAR
STARTCHAR 33CE
ENCODING 13262
SWIDTH 928 0
DWIDTH 13 0
BBX 11 10 1 0
BITMAP
9420
9660
A660
A660
C6A0
A6A0
A5A0
A5A0
95A0
94A0
ENDCHAR
STARTCHAR 33D1
ENCODING 13265
SWIDTH 1071 0
DWIDTH 15 0
BBX 8 11 4 0
BITMAP
80
80
80
86
99
91
91
91
91
91
91
ENDCHAR
STARTCHAR 33D2
ENCODING 13266
SWIDTH 1000 0
DWIDTH 14 0
BBX 11 14 2 -3
BITMAP
8000
8000
8000
B980
EE60
C640
C640
C640
C580
CFC0
BA20
0220
0260
03C0
ENDCHAR
STARTCHAR 33D5
ENCODING 13269
SWIDTH 1000 0
DWIDTH 14 0
BBX 10 11 2 0
BITMAP
0140
0040
0040
5840
A940
A940
A940
A940
A940
A940
A940
ENDCHAR
STARTCHAR 4E00
ENCODING 19968
SWIDTH 1000 0
DWIDTH 14 0
BBX 12 1 1 5
BITMAP
FFF0
ENDCHAR
STARTCHAR 4E01
ENCODING 19969
SWIDTH 1000 0
DWIDTH 14 0
BBX 12 12 1 -2
BITMAP
FFF0
0200
0200
0200
0200
0200
0200
0200
0200
0200
0200
0E00
ENDCHAR
STARTCHAR 4E02
ENCODING 19970
SWIDTH 1000 0
DWIDTH 14 0
BBX 12 12 1 -2
BITMAP
FFF0
1000
1000
2000
2000
3FC0
0040
0040
0040
0040
00C0
0780
ENDCHAR
STARTCHAR 4E03
ENCODING 19971
SWIDTH 1000 0
DWIDTH 14 0
BBX 13 12 0 0
BITMAP
0400
0400
0400
0408
05F0
3E00
C400
0400
0400
0408
0408
07F0
ENDCHAR
STARTCHAR 4E04
ENCODING 19972
SWIDTH 1000 0
DWIDTH 14 0
BBX 11 11 2 1
BITMAP
0400
0400
0400
0400
0400
0400
0400
0400
0400
0400
FFE0
ENDCHAR
STARTCHAR 4E05
ENCODING 19973
SWIDTH 1000 0
DWIDTH 14 0
BBX 11 12 2 -2
BITMAP
FFE0
0400
0400
0400
0400
0400
0400
0400
0400
0400
0400
0400
ENDCHAR
STARTCHAR 4E06
ENCODING 19974
SWIDTH 928 0
DWIDTH 13 0
BBX 11 7 1 2
BITMAP
FFE0
0400
0800
0800
1000
6000
4000
ENDCHAR
STARTCHAR 4E07
ENCODING 19975
SWIDTH 1000 0
DWIDTH 14 0
BBX 12 12 1 -3
BITMAP
FFF0
0800
0800
0800
0FE0
0820
0820
1020
1040
2040
2040
C1C0
ENDCHAR
STARTCHAR 4E08
ENCODING 19976
SWIDTH 1000 0
DWIDTH 14 0
BBX 12 12 1 -1
BITMAP
0100
0100
FFF0
0100
2100
1100
0900
0A00
0600
0F00
1080
E070
ENDCHAR
STARTCHAR 4E09
ENCODING 19977
SWIDTH 1000 0
DWIDTH 14 0
BBX 12 10 1 -1
BITMAP
7FE0
0000
0000
0000
3FC0
0000
0000
0000
0000
FFF0
ENDCHAR
STARTCHAR 4E0A
ENCODING 19978
SWIDTH 1000 0
DWIDTH 14 0
BBX 12 12 1 0
BITMAP
0400
0400
0400
0400
07E0
0400
0400
0400
0400
0400
0400
FFF0
ENDCHAR
STARTCHAR 4E0B
ENCODING 19979
SWIDTH 1000 0
DWIDTH 14 0
BBX 12 12 1 -2
BITMAP
FFF0
0400
0400
0500
0480
0440
0460
0420
0400
0400
0400
0400
ENDCHAR
STARTCHAR 4E0C
ENCODING 19980
SWIDTH 1000 0
DWIDTH 14 0
BBX 12 12 1 -1
BITMAP
FFF0
1080
1080
1080
1080
1080
1080
1080
3080
2080
4080
8080
ENDCHAR
STARTCHAR 4E0D
ENCODING 19981
SWIDTH 1000 0
DWIDTH 14 0
BBX 12 12 1 -1
BITMAP
FFF0
0400
0400
0D00
1480
2440
4420
8430
0400
0400
0400
0400
ENDCHAR
STARTCHAR 4E0E
ENCODING 19982
SWIDTH 1071 0
DWIDTH 15 0
BBX 13 13 1 -2
BITMAP
1000
1000
1FF8
1000
1000
1000
1FE0
0020
0020
FFA0
0020
0060
01C0
ENDCHAR
STARTCHAR 4E0F
ENCODING 19983
SWIDTH 1000 0
DWIDTH 14 0
BBX 12 12 1 -2
BITMAP
FFF0
0400
4400
47E0
4420
8420
8420
7FE0
0020
0020
0020
03C0
ENDCHAR
STARTCHAR 4E10
ENCODING 19984
SWIDTH 1000 0
DWIDTH 14 0
BBX 12 13 1 -2
BITMAP
FFF0
0400
0400
47C0
4400
8400
8400
FFE0
0020
0020
0020
0020
01C0
ENDCHAR
STARTCHAR 4E11
ENCODING 19985
SWIDTH 1000 0
DWIDTH 14 0
BBX 12 11 1 -1
BITMAP
7FC0
0840
0840
0840
0840
7FC0
0840
0840
0840
0840
FFF0
ENDCHAR
STARTCHAR 4E12
ENCODING 19986
SWIDTH 1000 0
DWIDTH 14 0
BBX 12 11 1 0
BITMAP
7FE0
0420
0420
1420
0C20
0B20
0920
1020
20E0
0000
FFF0
ENDCHAR
STARTCHAR 4E13
ENCODING 19987
SWIDTH 1000 0
DWIDTH 14 0
BBX 12 13 1 -2
BITMAP
0600
0400
7FE0
0400
0800
FFF0
1000
1FC0
0080
2100
1A00
0600
0180
ENDCHAR
STARTCHAR 4E14
ENCODING 19988
SWIDTH 1000 0
DWIDTH 14 0
BBX 12 11 1 -1
BITMAP
3FC0
2040
2040
3FC0
2040
2040
2040
3FC0
2040
2040
FFF0
ENDCHAR
STARTCHAR 4E15
ENCODING 19989
SWIDTH 1000 0
DWIDTH 14 0
BBX 12 11 1 -1
BITMAP
7FF0
0400
0400
0C00
1580
1440
2420
C410
0400
0400
FFF0
ENDCHAR
STARTCHAR 4E16
ENCODING 19990
SWIDTH 928 0
DWIDTH 13 0
BBX 13 12 0 -1
BITMAP
0440
2440
2440
2440
FFF8
2440
2440
2440
2440
27C0
2000
3FF0
ENDCHAR
STARTCHAR 4E17
ENCODING 19991
SWIDTH 1071 0
DWIDTH 15 0
BBX 13 13 1 -2
BITMAP
0200
0200
2220
2220
2220
FFF8
2220
2220
2220
2220
2220
3FE0
2020
ENDCHAR
STARTCHAR 4E18
ENCODING 19992
SWIDTH 1000 0
DWIDTH 14 0
BBX 13 12 0 -2
BITMAP
0060
1FF0
1000
1000
1000
1FF0
1080
1080
1080
1080
1080
FFF8
ENDCHAR
STARTCHAR 4E19
ENCODING 19993
SWIDTH 1000 0
DWIDTH 14 0
BBX 12 12 1 -2
BITMAP
FFF0
0200
0200
7FE0
4220
4220
4520
44A0
48A0
5020
4020
4060
ENDCHAR
STARTCHAR 4E1A
ENCODING 19994
SWIDTH 1000 0
DWIDTH 14 0
BBX 12 12 1 -1
BITMAP
0900
0900
0900
4920
4920
4940
2940
2980
0900
0900
0900
FFF0
ENDCHAR
STARTCHAR 4E1B
ENCODING 19995
SWIDTH 1000 0
DWIDTH 14 0
BBX 12 12 1 0
BITMAP
1080
1080
1080
1080
1080
1080
2940
2540
4220
C410
0000
FFF0
ENDCHAR
STARTCHAR 4E1C
ENCODING 19996
SWIDTH 1000 0
DWIDTH 14 0
BBX 12 13 1 -2
BITMAP
0600
0400
FFF0
1000
1200
2200
7FE0
0200
1280
2240
4220
8210
0E00
ENDCHAR
STARTCHAR 4E1D
ENCODING 19997
SWIDTH 1000 0
DWIDTH 14 0
BBX 12 12 1 -1
BITMAP
1040
1080
2490
2520
7B20
0AC0
1080
2080
6D30
51C0
0000
FFF0
ENDCHAR
STARTCHAR 4E1E
ENCODING 19998
SWIDTH 1000 0
DWIDTH 14 0
BBX 12 12 1 -1
BITMAP
3FE0
0040
0180
7A10
0AA0
12C0
1240
2260
4230
0E10
0000
FFF0
ENDCHAR
STARTCHAR 4E1F
ENCODING 19999
SWIDTH 1000 0
DWIDTH 14 0
BBX 11 11 2 -2
BITMAP
FFE0
0400
0400
7FE0
0400
0400
FFE0
0800
1080
2040
7FE0
ENDCHAR
STARTCHAR 4E20
ENCODING 20000
SWIDTH 1000 0
DWIDTH 14 0
BBX 12 13 1 -1
BITMAP
0900
0900
0910
F930
09C0
0900
1900
6900
8910
09F0
0800
0000
FFF0
ENDCHAR
STARTCHAR 4E21
ENCODING 20001
SWIDTH 928 0
DWIDTH 13 0
BBX 12 12 1 -1
BITMAP
FFF0
0400
0400
FFC0
8440
A540
A540
A540
BF40
8040
8040
81C0
ENDCHAR
STARTCHAR 4E22
ENCODING 20002
SWIDTH 1000 0
DWIDTH 14 0
BBX 13 13 0 -2
BITMAP
0010
3FE0
0200
0200
3FF0
0200
0200
FFF8
0400
0840
1020
3FF0
0010
ENDCHAR
STARTCHAR 4E23
ENCODING 20003
SWIDTH 928 0
DWIDTH 13 0
BBX 11 12 1 -3
BITMAP
FFE0
0900
0900
F9E0
8920
8920
F9E0
0900
0900
1100
3100
6100
ENDCHAR
STARTCHAR 4E24
ENCODING 20004
SWIDTH 1000 0
DWIDTH 14 0
BBX 12 12 1 -1
BITMAP
FFF0
0900
0900
7FE0
4920
4920
5520
52A0
6220
4020
4020
40E0
ENDCHAR
STARTCHAR 4E25
ENCODING 20005
SWIDTH 1000 0
DWIDTH 14 0
BBX 12 13 1 -3
BITMAP
FFE0
0900
4920
2940
0900
7FF0
4000
4000
4000
4000
4000
8000
8000
ENDCHAR
STARTCHAR 4E26
ENCODING 20006
SWIDTH 1000 0
DWIDTH 14 0
BBX 12 13 1 -1
BITMAP
10C0
1080
0100
7FE0
0900
0900
4930
2920
2940
0940
0900
0900
FFF0
ENDCHAR
STARTCHAR 4E27
ENCODING 20007
SWIDTH 1000 0
DWIDTH 14 0
BBX 12 13 1 -2
BITMAP
0400
0400
FFE0
0400
3480
0400
FFF0
2400
2440
2380
2180
38C0
6020
ENDCHAR
STARTCHAR 4E28
ENCODING 20008
SWIDTH 1000 0
DWIDTH 14 0
BBX 1 13 7 -1
BITMAP
80
80
80
80
80
80
80
80
80
80
80
80
80
ENDCHAR
STARTCHAR 4E29
ENCODING 20009
SWIDTH 1071 0
DWIDTH 15 0
BBX 8 14 3 -2
BITMAP
01
01
41
41
41
41
41
41
5F
E1
01
01
01
01
ENDCHAR
STARTCHAR 4E2A
ENCODING 20010
SWIDTH 1000 0
DWIDTH 14 0
BBX 12 14 1 -3
BITMAP
0200
0200
0500
0880
1840
2220
C210
0200
0200
0200
0200
0200
0200
0200
ENDCHAR
STARTCHAR 4E2B
ENCODING 20011
SWIDTH 1071 0
DWIDTH 15 0
BBX 9 12 3 -1
BITMAP
8080
6100
3200
0C00
0800
0800
0800
0800
0800
0800
0800
0800
ENDCHAR
STARTCHAR 4E2C
ENCODING 20012
SWIDTH 1000 0
DWIDTH 14 0
BBX 5 13 3 -1
BITMAP
08
08
48
28
08
08
18
68
C8
08
08
08
08
ENDCHAR
STARTCHAR 4E2D
ENCODING 20013
SWIDTH 1000 0
DWIDTH 14 0
BBX 10 14 2 -2
BITMAP
0400
0400
0400
FFC0
8440
8440
8440
8440
FFC0
8440
0400
0400
0400
0400
ENDCHAR
STARTCHAR 4E2E
ENCODING 20014
SWIDTH 1000 0
DWIDTH 14 0
BBX 12 12 1 -1
BITMAP
FFC0
0840
0840
7F40
0840
0840
0840
FFC0
0840
0850
0850
0830
ENDCHAR
STARTCHAR 4E2F
ENCODING 20015
SWIDTH 1000 0
DWIDTH 14 0
BBX 8 14 2 -2
BITMAP
08
08
0A
0C
08
39
4E
19
6A
0C
18
E8
08
08
ENDCHAR
STARTCHAR 4E30
ENCODING 20016
SWIDTH 1000 0
DWIDTH 14 0
BBX 13 13 1 -1
BITMAP
0200
0200
7FF0
0200
0200
3FF0
0200
0200
0200
FFF8
0200
0200
0200
ENDCHAR
STARTCHAR 4E31
ENCODING 20017
SWIDTH 1000 0
DWIDTH 14 0
BBX 10 14 2 -3
BITMAP
1A00
1200
1200
9240
9240
9240
9240
9240
F3C0
1200
2200
2200
4200
8200
ENDCHAR
STARTCHAR 4E32
ENCODING 20018
SWIDTH 1071 0
DWIDTH 15 0
BBX 11 14 2 -2
BITMAP
0400
0400
7FC0
4440
4440
7FC0
0400
FFE0
8420
8420
FFE0
8420
0400
0400
ENDCHAR
STARTCHAR 4E33
ENCODING 20019
SWIDTH 1071 0
DWIDTH 15 0
BBX 11 14 2 -2
BITMAP
1200
1200
7FC0
5240
5240
7FC0
1200
FFE0
9220
9220
FFE0
2200
2200
4200
ENDCHAR
STARTCHAR 4E34
ENCODING 20020
SWIDTH 1000 0
DWIDTH 14 0
BBX 11 13 2 -1
BITMAP
2200
2400
A7E0
A800
A900
B0C0
A040
AFE0
A920
A920
2920
2FE0
2820
ENDCHAR
STARTCHAR 4E35
ENCODING 20021
SWIDTH 1000 0
DWIDTH 14 0
BBX 12 14 1 -2
BITMAP
0900
4920
2940
2980
FFF0
0080
1080
1900
7FE0
0400
FFF0
0400
0400
0400
ENDCHAR
STARTCHAR 4E36
ENCODING 20022
SWIDTH 1000 0
DWIDTH 14 0
BBX 4 5 5 2
BITMAP
80
40
20
30
10
ENDCHAR
STARTCHAR 4E37
ENCODING 20023
SWIDTH 1000 0
DWIDTH 14 0
BBX 7 4 4 3
BITMAP
02
84
44
48
ENDCHAR
STARTCHAR 4E38
ENCODING 20024
SWIDTH 1000 0
DWIDTH 14 0
BBX 12 14 1 -2
BITMAP
0800
0800
0800
7F80
0880
0880
6880
1880
1880
1480
2080
2090
C0E0
8000
ENDCHAR
STARTCHAR 4E39
ENCODING 20025
SWIDTH 928 0
DWIDTH 13 0
BBX 13 13 0 -2
BITMAP
1FC0
1040
1440
1240
1140
1040
FFF8
1040
1040
1040
3040
2040
60C0
ENDCHAR
STARTCHAR 4E3A
ENCODING 20026
SWIDTH 1000 0
DWIDTH 14 0
BBX 11 13 1 -2
BITMAP
0400
2400
1400
0400
FFE0
0420
0420
0A20
0920
1040
1040
2040
C1C0
ENDCHAR
STARTCHAR 4E3B
ENCODING 20027
SWIDTH 928 0
DWIDTH 13 0
BBX 11 13 1 -1
BITMAP
0800
0400
0400
FFE0
0400
0400
0400
7F80
0400
0400
0400
0400
FFE0
ENDCHAR
STARTCHAR 4E3C
ENCODING 20028
SWIDTH 1000 0
DWIDTH 14 0
BBX 12 14 1 -2
BITMAP
1880
1080
1080
7FE0
1080
1280
1280
1080
FFF0
1080
2080
2080
4080
4080
ENDCHAR
STARTCHAR 4E3D
ENCODING 20029
SWIDTH 1000 0
DWIDTH 14 0
BBX 12 12 1 -2
BITMAP
FFF0
0000
7DF0
4510
4510
4590
5550
4D50
4510
4510
4510
4D70
ENDCHAR
STARTCHAR 4E3E
ENCODING 20030
SWIDTH 928 0
DWIDTH 13 0
BBX 13 14 0 -3
BITMAP
0400
2440
1240
1080
7FF0
0880
1240
2230
DFC8
0200
7FF0
0200
0200
0200
ENDCHAR
STARTCHAR 4E3F
ENCODING 20031
SWIDTH 1000 0
DWIDTH 14 0
BBX 6 12 3 -1
BITMAP
04
04
04
04
04
04
08
08
10
20
C0
80
ENDCHAR
STARTCHAR 4E40
ENCODING 20032
SWIDTH 1000 0
DWIDTH 14 0
BBX 11 11 2 -1
BITMAP
3800
C400
0400
0400
0400
0200
0200
0100
0080
0040
0020
ENDCHAR
STARTCHAR 4E41
ENCODING 20033
SWIDTH 1000 0
DWIDTH 14 0
BBX 11 11 2 -1
BITMAP
FFC0
0040
0040
0040
0040
0040
0040
0040
0040
0020
0020
ENDCHAR
STARTCHAR 4E42
ENCODING 20034
SWIDTH 1000 0
DWIDTH 14 0
BBX 12 11 1 -2
BITMAP
2040
1040
1080
0880
0900
0500
0200
0500
18C0
3060
C010
ENDCHAR
STARTCHAR 4E43
ENCODING 20035
SWIDTH 1000 0
DWIDTH 14 0
BBX 12 12 1 -2
BITMAP
7FC0
0840
0880
0880
0880
08F0
0810
1010
1010
3010
2020
C0E0
ENDCHAR
STARTCHAR 4E44
ENCODING 20036
SWIDTH 1000 0
DWIDTH 14 0
BBX 9 11 2 -2
BITMAP
0080
0080
0100
3100
1A00
0E00
0600
0700
0900
9080
E000
ENDCHAR
STARTCHAR 4E45
ENCODING 20037
SWIDTH 1000 0
DWIDTH 14 0
BBX 11 13 2 -3
BITMAP
0800
1000
1000
3F80
2100
4100
C200
8200
0600
0D00
1900
30C0
C060
ENDCHAR
STARTCHAR 4E46
ENCODING 20038
SWIDTH 1000 0
DWIDTH 14 0
BBX 11 13 2 -1
BITMAP
0200
6200
4200
4200
4200
4200
5D00
E500
0500
0880
10C0
2060
4000
ENDCHAR
STARTCHAR 4E47
ENCODING 20039
SWIDTH 1000 0
DWIDTH 14 0
BBX 13 12 1 -2
BITMAP
0060
7F80
0400
0400
0400
05F0
FE00
0400
0400
0400
0408
07F0
ENDCHAR
STARTCHAR 4E48
ENCODING 20040
SWIDTH 1000 0
DWIDTH 14 0
BBX 12 12 0 -1
BITMAP
0400
0400
08C0
1080
1100
2300
C200
0400
0840
1020
3FF0
0010
ENDCHAR
STARTCHAR 4E49
ENCODING 20041
SWIDTH 1000 0
DWIDTH 14 0
BBX 12 13 1 -3
BITMAP
0400
0400
2240
2040
1080
1080
0900
0700
0200
0500
1880
6060
C030
ENDCHAR
STARTCHAR 4E4A
ENCODING 20042
SWIDTH 928 0
DWIDTH 13 0
BBX 11 6 1 2
BITMAP
0020
FFC0
0040
6080
2100
1100
ENDCHAR
STARTCHAR 4E4B
ENCODING 20043
SWIDTH 928 0
DWIDTH 13 0
BBX 11 13 1 -1
BITMAP
0800
0400
0000
FFC0
0080
0100
0200
0400
0800
3000
6000
9800
8FE0
ENDCHAR
STARTCHAR 4E4C
ENCODING 20044
SWIDTH 1000 0
DWIDTH 14 0
BBX 12 14 1 -1
BITMAP
0400
0800
3FC0
2040
2040
21C0
2000
3FF0
0010
0010
FFD0
0010
0010
00E0
ENDCHAR
STARTCHAR 4E4D
ENCODING 20045
SWIDTH 1000 0
DWIDTH 14 0
BBX 13 13 0 -2
BITMAP
0800
1000
1FF8
2400
6400
C7E0
0400
0400
07F8
0400
0400
0400
0400
ENDCHAR
STARTCHAR 4E4E
ENCODING 20046
SWIDTH 1000 0
DWIDTH 14 0
BBX 13 13 1 -2
BITMAP
0060
3F80
0200
2220
2240
1240
0200
FFF8
0200
0200
0200
0200
0E00
ENDCHAR
STARTCHAR 4E4F
ENCODING 20047
SWIDTH 1000 0
DWIDTH 14 0
BBX 11 12 2 -2
BITMAP
01C0
FE00
0800
0400
FF80
0180
0300
0400
1800
6000
9000
0FE0
ENDCHAR
STARTCHAR 4E50
ENCODING 20048
SWIDTH 1000 0
DWIDTH 14 0
BBX 12 13 1 -2
BITMAP
0040
3FE0
2000
2200
4200
4200
7FF0
0200
12C0
2220
4210
8200
0600
ENDCHAR
STARTCHAR 4E51
ENCODING 20049
SWIDTH 1000 0
DWIDTH 14 0
BBX 13 13 1 -2
BITMAP
00E0
7F00
0220
0A40
1380
2300
4280
0A40
1A40
1220
6218
C200
0200
ENDCHAR
STARTCHAR 4E52
ENCODING 20050
SWIDTH 1000 0
DWIDTH 14 0
BBX 13 13 1 -3
BITMAP
0040
3FC0
2000
2000
3FE0
2080
2080
2080
FFF8
0000
1800
2000
C000
ENDCHAR
STARTCHAR 4E53
ENCODING 20051
SWIDTH 1000 0
DWIDTH 14 0
BBX 13 13 1 -3
BITMAP
0060
3FE0
2000
2000
3FE0
2080
2080
2080
FFF8
0080
00C0
0060
0030
ENDCHAR
STARTCHAR 4E54
ENCODING 20052
SWIDTH 1000 0
DWIDTH 14 0
BBX 12 13 1 -3
BITMAP
0040
3F80
0400
0400
FFF0
0880
3040
D8B0
9080
1080
1080
3080
6080
ENDCHAR
STARTCHAR 4E55
ENCODING 20053
SWIDTH 1000 0
DWIDTH 14 0
BBX 12 13 1 -3
BITMAP
0060
7F80
5FE0
4100
4100
7FF0
4100
5FE0
5120
5120
5120
9160
8100
ENDCHAR
STARTCHAR 4E56
ENCODING 20054
SWIDTH 1000 0
DWIDTH 14 0
BBX 12 13 1 -3
BITMAP
00C0
7F00
FFF0
0400
1480
14A0
F4A0
14C0
3490
54F0
0400
0400
0400
ENDCHAR
STARTCHAR 4E57
ENCODING 20055
SWIDTH 1071 0
DWIDTH 15 0
BBX 14 13 1 -3
BITMAP
0020
3FC0
7FF8
1260
1260
FFFC
1260
1260
7FF8
0A80
1260
E21C
0200
ENDCHAR
STARTCHAR 4E58
ENCODING 20056
SWIDTH 1000 0
DWIDTH 14 0
BBX 12 13 1 -3
BITMAP
00C0
7F00
FFF0
0400
1480
F4E0
1490
F4F0
1F00
3480
C470
8410
0400
ENDCHAR
STARTCHAR 4E59
ENCODING 20057
SWIDTH 1000 0
DWIDTH 14 0
BBX 11 11 2 0
BITMAP
FF80
0100
0600
0C00
1800
1000
2000
4000
8020
8020
FFC0
ENDCHAR
STARTCHAR 4E5A
ENCODING 20058
SWIDTH 1000 0
DWIDTH 14 0
BBX 7 12 5 0
BITMAP
80
80
80
80
80
80
80
80
80
80
82
FC
ENDCHAR
STARTCHAR 4E5B
ENCODING 20059
SWIDTH 1000 0
DWIDTH 14 0
BBX 11 3 2 6
BITMAP
FFE0
0020
0040
ENDCHAR
STARTCHAR 4E5C
ENCODING 20060
SWIDTH 1000 0
DWIDTH 14 0
BBX 12 13 1 -1
BITMAP
1000
1000
10C0
1F40
F040
1040
1040
1040
1040
1080
1010
1010
0FE0
ENDCHAR
STARTCHAR 4E5D
ENCODING 20061
SWIDTH 1000 0
DWIDTH 14 0
BBX 12 13 1 -2
BITMAP
0C00
0800
0800
0800
FF80
0880
0880
0880
1880
1080
3080
6090
C0F0
ENDCHAR
STARTCHAR 4E5E
ENCODING 20062
SWIDTH 928 0
DWIDTH 13 0
BBX 11 13 1 -1
BITMAP
1000
2000
3FE0
4000
C000
BFC0
0180
0600
0800
1000
2000
4020
3FE0
ENDCHAR
STARTCHAR 4E5F
ENCODING 20063
SWIDTH 1000 0
DWIDTH 14 0
BBX 13 13 1 -1
BITMAP
0200
0200
2200
22E0
3F20
E220
2220
2220
22E0
2200
2008
2010
1FE0
ENDCHAR
STARTCHAR 4E60
ENCODING 20064
SWIDTH 1000 0
DWIDTH 14 0
BBX 10 12 2 -1
BITMAP
FFC0
0040
0040
3040
0840
0040
0140
0E40
F040
8040
0040
03C0
ENDCHAR
STARTCHAR 4E61
ENCODING 20065
SWIDTH 1000 0
DWIDTH 14 0
BBX 10 13 2 -2
BITMAP
0C00
1000
1180
6100
7E00
0840
1080
7F80
0100
0100
0200
1C00
E000
ENDCHAR
STARTCHAR 4E62
ENCODING 20066
SWIDTH 1071 0
DWIDTH 15 0
BBX 12 13 2 -1
BITMAP
2300
2200
2200
AA00
AA00
AA00
AA00
AA00
AA00
AA00
FA00
0A10
03E0
ENDCHAR
STARTCHAR 4E63
ENCODING 20067
SWIDTH 1000 0
DWIDTH 14 0
BBX 12 13 1 -1
BITMAP
1100
2100
2100
4D00
4900
F100
1100
2900
4900
4900
F510
0510
01E0
ENDCHAR
STARTCHAR 4E64
ENCODING 20068
SWIDTH 1000 0
DWIDTH 14 0
BBX 12 12 1 -2
BITMAP
FFF0
0400
0500
04C0
0420
0400
7FE0
0180
0600
1800
2010
3FE0
ENDCHAR
STARTCHAR 4E65
ENCODING 20069
SWIDTH 1071 0
DWIDTH 15 0
BBX 11 13 2 -1
BITMAP
01E0
FE00
40C0
2080
1100
FFC0
0180
0200
0C00
3000
4000
8020
FFE0
ENDCHAR
STARTCHAR 4E66
ENCODING 20070
SWIDTH 1071 0
DWIDTH 15 0
BBX 12 14 1 -2
BITMAP
0440
0460
0410
7FE0
0440
0440
0440
FFF0
0410
0410
0410
0460
0400
0400
ENDCHAR
STARTCHAR 4E67
ENCODING 20071
SWIDTH 1000 0
DWIDTH 14 0
BBX 12 13 1 -1
BITMAP
2080
1C80
2080
1E80
FFF0
0080
0080
7FC0
0300
0C00
3010
4010
7FE0
ENDCHAR
STARTCHAR 4E68
ENCODING 20072
SWIDTH 1071 0
DWIDTH 15 0
BBX 13 13 1 -1
BITMAP
1080
2080
2C80
4480
FE80
0080
0080
7E80
4280
4280
7E88
4288
42F0
ENDCHAR
STARTCHAR 4E69
ENCODING 20073
SWIDTH 1000 0
DWIDTH 14 0
BBX 12 13 1 -1
BITMAP
2180
2100
2100
3D00
2100
2100
FD00
8500
8500
8500
FD00
8510
00F0
ENDCHAR
STARTCHAR 4E6A
ENCODING 20074
SWIDTH 1000 0
DWIDTH 14 0
BBX 12 12 1 -2
BITMAP
F800
0FE0
14A0
14A0
14A0
27E0
24A0
24A0
47E0
4000
4010
3FE0
ENDCHAR
STARTCHAR 4E6B
ENCODING 20075
SWIDTH 1000 0
DWIDTH 14 0
BBX 11 13 1 -1
BITMAP
3000
21E0
FD20
2520
2520
4520
99E0
7FC0
0300
0400
1800
6020
7FE0
ENDCHAR
STARTCHAR 4E6C
ENCODING 20076
SWIDTH 1071 0
DWIDTH 15 0
BBX 11 12 2 -1
BITMAP
FFC0
8000
FF80
8080
FF80
8000
FFE0
FFC0
0600
3820
C020
FFE0
ENDCHAR
STARTCHAR 4E6D
ENCODING 20077
SWIDTH 1000 0
DWIDTH 14 0
BBX 12 12 1 -2
BITMAP
FFF0
1000
3FC0
6040
E040
BFC0
0000
7FC0
0600
1800
6030
7FE0
ENDCHAR
STARTCHAR 4E6E
ENCODING 20078
SWIDTH 1000 0
DWIDTH 14 0
BBX 12 13 1 -2
BITMAP
0400
79F0
4510
4510
5D10
6D70
1900
E000
3FE0
0200
1C00
6010
7FE0
ENDCHAR
STARTCHAR 4E6F
ENCODING 20079
SWIDTH 1071 0
DWIDTH 15 0
BBX 13 12 1 0
BITMAP
7FE0
0200
32C0
FFF8
0200
0200
0E00
7FC0
0300
0C00
7010
7FE0
ENDCHAR
STARTCHAR 4E70
ENCODING 20080
SWIDTH 1000 0
DWIDTH 14 0
BBX 12 12 1 -3
BITMAP
7FF0
0020
1120
0D00
2100
1100
0900
FFF0
0200
0580
1860
E030
ENDCHAR
STARTCHAR 4E71
ENCODING 20081
SWIDTH 1071 0
DWIDTH 15 0
BBX 13 13 1 -1
BITMAP
0280
FC80
1080
1080
FF80
1080
1080
7E80
4280
4280
4288
7E88
42F8
ENDCHAR
STARTCHAR 4E72
ENCODING 20082
SWIDTH 1000 0
DWIDTH 14 0
BBX 12 13 1 -1
BITMAP
C400
6FE0
0920
1120
2280
4440
9830
9000
7FC0
0300
1C00
6010
7FE0
ENDCHAR
STARTCHAR 4E73
ENCODING 20083
SWIDTH 928 0
DWIDTH 13 0
BBX 13 13 0 -1
BITMAP
0640
7840
1340
4A40
2440
7E40
0440
0840
0F40
F840
0840
0848
1870
ENDCHAR
STARTCHAR 4E74
ENCODING 20084
SWIDTH 1000 0
DWIDTH 14 0
BBX 12 13 1 -1
BITMAP
1000
13F0
FE00
1FF0
F240
1240
7440
0000
7FC0
0300
0C00
7010
7FE0
ENDCHAR
STARTCHAR 4E75
ENCODING 20085
SWIDTH 1071 0
DWIDTH 15 0
BBX 13 14 1 -2
BITMAP
0080
1080
1080
7E80
0480
2880
FE80
1080
1080
7F80
1080
1080
1088
10F0
ENDCHAR
STARTCHAR 4E76
ENCODING 20086
SWIDTH 1000 0
DWIDTH 14 0
BBX 12 13 1 -1
BITMAP
0440
FFF0
0400
7FC0
7FC0
4440
7FC0
4440
7FC0
0300
1C20
6020
7FC0
ENDCHAR
STARTCHAR 4E77
ENCODING 20087
SWIDTH 1000 0
DWIDTH 14 0
BBX 11 13 2 -1
BITMAP
8200
C200
0A40
9220
1200
4180
8E00
3000
FF80
0400
3800
C020
FFC0
ENDCHAR
STARTCHAR 4E78
ENCODING 20088
SWIDTH 1000 0
DWIDTH 14 0
BBX 11 13 2 -1
BITMAP
2000
23C0
A240
A2C0
BA40
EFE0
AB40
AAC0
ABE0
B840
A0C0
8000
FFE0
ENDCHAR
STARTCHAR 4E79
ENCODING 20089
SWIDTH 1000 0
DWIDTH 14 0
BBX 12 13 1 -1
BITMAP
1080
FE80
1080
7C80
4480
7C80
4480
7C80
1080
FE80
1090
1090
10E0
ENDCHAR
STARTCHAR 4E7A
ENCODING 20090
SWIDTH 1000 0
DWIDTH 14 0
BBX 12 12 1 -1
BITMAP
7FF0
7A00
4BF0
4A40
7A40
4640
8C40
7FC0
0600
1800
6010
7FE0
ENDCHAR
STARTCHAR 4E7B
ENCODING 20091
SWIDTH 1000 0
DWIDTH 14 0
BBX 12 13 1 -2
BITMAP
2080
1080
FD40
2230
3C80
4400
4480
9840
7FC0
0300
1C00
6010
7FE0
ENDCHAR
STARTCHAR 4E7C
ENCODING 20092
SWIDTH 1000 0
DWIDTH 14 0
BBX 11 12 2 -1
BITMAP
4600
1FC0
C200
1F80
4200
BFE0
0000
FF00
0400
3800
C060
FFC0
ENDCHAR
STARTCHAR 4E7D
ENCODING 20093
SWIDTH 1000 0
DWIDTH 14 0
BBX 12 14 1 -2
BITMAP
0400
0400
7F40
FFE0
0400
3FC0
7FC0
3FC0
0000
FF80
0E00
3030
4020
7FC0
ENDCHAR
STARTCHAR 4E7E
ENCODING 20094
SWIDTH 1071 0
DWIDTH 15 0
BBX 13 13 1 -2
BITMAP
1180
7D00
11F8
7E00
4400
7FE0
4440
7C80
1100
FD00
1218
1218
11F0
ENDCHAR
STARTCHAR 4E7F
ENCODING 20095
SWIDTH 1071 0
DWIDTH 15 0
BBX 12 13 2 -1
BITMAP
0E80
F080
A280
9480
6880
6480
F880
2480
FE80
1280
5480
9290
30E0
ENDCHAR
STARTCHAR 4E80
ENCODING 20096
SWIDTH 1000 0
DWIDTH 14 0
BBX 11 13 2 -2
BITMAP
1000
3F00
FF80
4480
7F80
7F80
0400
FFC0
FFC0
8440
FFE0
0420
07E0
ENDCHAR
STARTCHAR 4E81
ENCODING 20097
SWIDTH 1071 0
DWIDTH 15 0
BBX 13 14 1 -2
BITMAP
1080
1080
7CF8
7D00
4600
7FF0
4430
7C40
7CC0
1080
FD08
1108
10F0
1000
ENDCHAR
STARTCHAR 4E82
ENCODING 20098
SWIDTH 1000 0
DWIDTH 14 0
BBX 13 13 1 -1
BITMAP
06C0
F880
5480
FC80
2880
FE80
AA80
BA80
BA80
AA80
9A80
A288
8EF0
ENDCHAR
STARTCHAR 4E83
ENCODING 20099
SWIDTH 928 0
DWIDTH 13 0
BBX 13 13 0 -1
BITMAP
0840
2A40
0840
7F40
1C40
6840
6A40
3F40
5240
9A40
2F40
2248
4270
ENDCHAR
STARTCHAR 4E84
ENCODING 20100
SWIDTH 1000 0
DWIDTH 14 0
BBX 12 13 1 -1
BITMAP
1080
1080
FE80
7E80
FE80
8280
BC80
7E80
4280
7E80
0480
2890
D4E0
ENDCHAR
STARTCHAR 4E85
ENCODING 20101
SWIDTH 1000 0
DWIDTH 14 0
BBX 3 13 5 -1
BITMAP
20
20
20
20
20
20
20
20
20
20
20
20
E0
ENDCHAR
STARTCHAR 4E86
ENCODING 20102
SWIDTH 1000 0
DWIDTH 14 0
BBX 10 12 2 -1
BITMAP
FFC0
0080
0100
0600
0400
0400
0400
0400
0400
0400
0400
1C00
ENDCHAR
STARTCHAR 4E87
ENCODING 20103
SWIDTH 1000 0
DWIDTH 14 0
BBX 10 13 2 -1
BITMAP
3000
2000
7FC0
4040
8440
0400
0400
0400
0400
0400
0400
0400
1C00
ENDCHAR
STARTCHAR 4E88
ENCODING 20104
SWIDTH 1071 0
DWIDTH 15 0
BBX 13 13 1 -1
BITMAP
3FE0
0040
0980
0700
0300
FFF8
0210
0210
0200
0200
0200
0200
0E00
ENDCHAR
STARTCHAR 4E89
ENCODING 20105
SWIDTH 1000 0
DWIDTH 14 0
BBX 13 13 1 -1
BITMAP
0800
1F80
3100
7FE0
0220
0220
FFF8
0220
3FE0
0200
0200
0200
0600
ENDCHAR
STARTCHAR 4E8A
ENCODING 20106
SWIDTH 928 0
DWIDTH 13 0
BBX 13 14 0 -2
BITMAP
0200
0200
7FF8
2260
1280
7FE0
0220
FFF8
0220
7FE0
0220
0200
0200
0E00
ENDCHAR
STARTCHAR 4E8B
ENCODING 20107
SWIDTH 928 0
DWIDTH 13 0
BBX 13 14 0 -2
BITMAP
0200
0200
7FF8
3FE0
2220
3FE0
0200
7FE0
0220
FFF8
7FE0
0200
0200
0E00
ENDCHAR
STARTCHAR 4E8C
ENCODING 20108
SWIDTH 1000 0
DWIDTH 14 0
BBX 12 10 1 -1
BITMAP
7FE0
0000
0000
0000
0000
0000
0000
0000
0000
FFF0
ENDCHAR
STARTCHAR 4E8D
ENCODING 20109
SWIDTH 1000 0
DWIDTH 14 0
BBX 12 12 1 -2
BITMAP
3FC0
0000
0000
FFF0
0200
0200
0200
0200
0200
0200
0200
0E00
ENDCHAR
STARTCHAR 4E8E
ENCODING 20110
SWIDTH 1000 0
DWIDTH 14 0
BBX 12 12 1 -2
BITMAP
3FE0
0200
0200
0200
0200
FFF0
0200
0200
0200
0200
0200
0600
ENDCHAR
STARTCHAR 4E8F
ENCODING 20111
SWIDTH 1000 0
DWIDTH 14 0
BBX 12 12 1 -2
BITMAP
3FE0
0000
0000
FFF0
0800
1000
1FE0
0020
0020
0020
0040
0380
ENDCHAR
STARTCHAR 4E90
ENCODING 20112
SWIDTH 1000 0
DWIDTH 14 0
BBX 12 12 1 -2
BITMAP
3FE0
0400
0800
FFF0
0800
1000
1FE0
0020
0020
0020
0040
03C0
ENDCHAR
STARTCHAR 4E91
ENCODING 20113
SWIDTH 1000 0
DWIDTH 14 0
BBX 12 12 1 -2
BITMAP
7FC0
0000
0000
0000
FFF0
0C00
0800
1100
2080
4040
7FE0
0020
ENDCHAR
STARTCHAR 4E92
ENCODING 20114
SWIDTH 1000 0
DWIDTH 14 0
BBX 12 11 1 -1
BITMAP
7FF0
0800
0800
0FC0
1040
1040
1040
1FC0
0040
0040
FFF0
ENDCHAR
STARTCHAR 4E93
ENCODING 20115
SWIDTH 1071 0
DWIDTH 15 0
BBX 13 12 1 -2
BITMAP
3FE0
0000
0000
FFF8
0840
0840
0840
0840
0840
1040
2040
0040
ENDCHAR
STARTCHAR 4E94
ENCODING 20116
SWIDTH 1000 0
DWIDTH 14 0
BBX 12 11 1 -1
BITMAP
7FE0
0400
0400
0400
3FC0
0840
0840
0840
0840
0840
FFF0
ENDCHAR
STARTCHAR 4E95
ENCODING 20117
SWIDTH 1000 0
DWIDTH 14 0
BBX 12 13 1 -2
BITMAP
0880
0880
0880
7FE0
0880
0880
0880
FFF0
0880
1880
1080
2080
4080
ENDCHAR
STARTCHAR 4E96
ENCODING 20118
SWIDTH 1000 0
DWIDTH 14 0
BBX 12 11 1 -1
BITMAP
3FE0
0000
0000
FFF0
0000
0000
3FE0
0000
0000
0000
FFF0
ENDCHAR
STARTCHAR 4E97
ENCODING 20119
SWIDTH 1000 0
DWIDTH 14 0
BBX 12 12 1 0
BITMAP
0200
0200
4220
4220
4220
7FE0
0000
0000
7FE0
0000
0000
FFF0
ENDCHAR
STARTCHAR 4E98
ENCODING 20120
SWIDTH 1000 0
DWIDTH 14 0
BBX 12 11 1 -2
BITMAP
7FF0
0000
3FE0
2020
2020
3FE0
2020
2020
3FE0
0000
FFF0
ENDCHAR
STARTCHAR 4E99
ENCODING 20121
SWIDTH 1000 0
DWIDTH 14 0
BBX 12 11 1 -1
BITMAP
7FF0
0800
1000
1FE0
1020
2640
2140
2C40
0340
0040
FFF0
ENDCHAR
STARTCHAR 4E9A
ENCODING 20122
SWIDTH 1000 0
DWIDTH 14 0
BBX 12 11 1 -1
BITMAP
7FF0
0900
0900
4910
4930
2920
2940
0940
0900
0900
FFF0
ENDCHAR
STARTCHAR 4E9B
ENCODING 20123
SWIDTH 1000 0
DWIDTH 14 0
BBX 12 13 1 -1
BITMAP
1100
1100
5130
5D40
5180
5100
5D00
71F0
0000
3FE0
0000
0000
FFF0
ENDCHAR
STARTCHAR 4E9C
ENCODING 20124
SWIDTH 1000 0
DWIDTH 14 0
BBX 12 11 1 -1
BITMAP
FFE0
0900
0900
7FE0
4920
4920
7FE0
0900
0900
0900
FFF0
ENDCHAR
STARTCHAR 4E9D
ENCODING 20125
SWIDTH 1000 0
DWIDTH 14 0
BBX 12 13 1 -1
BITMAP
0400
0900
1080
3FC0
20A0
3100
4A20
FBE0
0000
3FE0
0000
0000
FFF0
ENDCHAR
STARTCHAR 4E9E
ENCODING 20126
SWIDTH 1000 0
DWIDTH 14 0
BBX 12 12 1 -1
BITMAP
FFE0
0900
0900
0900
79E0
4020
4020
79E0
0900
0900
0900
FFF0
ENDCHAR
STARTCHAR 4E9F
ENCODING 20127
SWIDTH 1000 0
DWIDTH 14 0
BBX 12 12 1 -2
BITMAP
7FE0
0080
0300
7BE0
4A20
4AA0
4A40
7A60
4B90
0600
0000
FFF0
ENDCHAR
STARTCHAR 4EA0
ENCODING 20128
SWIDTH 1000 0
DWIDTH 14 0
BBX 12 6 1 4
BITMAP
0800
0400
0200
0200
0000
FFF0
ENDCHAR
STARTCHAR 4EA1
ENCODING 20129
SWIDTH 1000 0
DWIDTH 14 0
BBX 12 12 1 -1
BITMAP
0400
0200
0200
FFF0
2000
2000
2000
2000
2000
2000
2000
3FE0
ENDCHAR
STARTCHAR 4EA2
ENCODING 20130
SWIDTH 1000 0
DWIDTH 14 0
BBX 12 13 1 -3
BITMAP
0800
0400
0000
FFF0
0000
1F00
1100
1100
1100
1100
3100
6110
C1F0
ENDCHAR
STARTCHAR 4EA3
ENCODING 20131
SWIDTH 1000 0
DWIDTH 14 0
BBX 11 13 2 -1
BITMAP
0400
0400
FFE0
1100
1100
1100
1100
1100
1100
2100
6100
C100
0100
ENDCHAR
STARTCHAR 4EA4
ENCODING 20132
SWIDTH 1000 0
DWIDTH 14 0
BBX 12 13 1 -2
BITMAP
0C00
0000
FFF0
0000
2080
4040
C0A0
1100
0B00
0600
0B00
30C0
C030
ENDCHAR
STARTCHAR 4EA5
ENCODING 20133
SWIDTH 1000 0
DWIDTH 14 0
BBX 12 12 1 -1
BITMAP
0C00
0200
FFF0
0C00
1080
7F00
0240
0CC0
7180
0300
0C80
7060
ENDCHAR
STARTCHAR 4EA6
ENCODING 20134
SWIDTH 1000 0
DWIDTH 14 0
BBX 12 13 1 -2
BITMAP
0800
0400
0000
FFE0
0900
0900
2940
4920
4920
9910
1100
2100
C300
ENDCHAR
STARTCHAR 4EA7
ENCODING 20135
SWIDTH 1000 0
DWIDTH 14 0
BBX 12 13 1 -1
BITMAP
0200
7FF0
0000
0880
0880
7FF0
4000
4000
4000
4000
4000
8000
8000
ENDCHAR
STARTCHAR 4EA8
ENCODING 20136
SWIDTH 1000 0
DWIDTH 14 0
BBX 12 14 1 -3
BITMAP
0400
0400
FFF0
3FC0
2040
2040
3FC0
0000
7FE0
0180
0200
0200
0200
0E00
ENDCHAR
STARTCHAR 4EA9
ENCODING 20137
SWIDTH 1071 0
DWIDTH 15 0
BBX 13 14 1 -2
BITMAP
0400
0200
FFF8
0000
0000
3FE0
2220
2220
3FE0
2220
2220
3FE0
2020
2020
ENDCHAR
STARTCHAR 4EAA
ENCODING 20138
SWIDTH 1071 0
DWIDTH 15 0
BBX 12 13 2 -3
BITMAP
0400
0400
FFE0
0900
29C0
4920
9100
2300
FF80
0080
0080
0040
0030
ENDCHAR
STARTCHAR 4EAB
ENCODING 20139
SWIDTH 1000 0
DWIDTH 14 0
BBX 13 13 1 -2
BITMAP
0200
7FF0
1FE0
1020
1020
1FE0
3FE0
0080
0300
FFF8
0200
0200
0600
ENDCHAR
STARTCHAR 4EAC
ENCODING 20140
SWIDTH 1000 0
DWIDTH 14 0
BBX 12 14 1 -1
BITMAP
0400
0200
FFF0
0000
3FC0
2040
2040
2040
3FC0
0200
22C0
4220
8200
0E00
ENDCHAR
STARTCHAR 4EAD
ENCODING 20141
SWIDTH 1000 0
DWIDTH 14 0
BBX 12 13 1 -1
BITMAP
0400
FFF0
3FC0
2040
3FC0
0000
FFF0
8010
BFD0
0400
0400
0400
0C00
ENDCHAR
STARTCHAR 4EAE
ENCODING 20142
SWIDTH 928 0
DWIDTH 13 0
BBX 11 13 1 -2
BITMAP
0400
FFE0
0000
3F80
2080
3F80
FFE0
8020
9F20
1100
1100
2120
E1E0
ENDCHAR
STARTCHAR 4EAF
ENCODING 20143
SWIDTH 1000 0
DWIDTH 14 0
BBX 12 14 1 -2
BITMAP
0400
0400
FFF0
0000
3FC0
2040
2040
3FC0
7FE0
4020
7FE0
4020
7FE0
4020
ENDCHAR
STARTCHAR 4EB0
ENCODING 20144
SWIDTH 1000 0
DWIDTH 14 0
BBX 12 14 1 -2
BITMAP
0400
0200
FFF0
0000
3FC0
2040
3FC0
2040
3FC0
0280
2240
6220
C220
0E00
ENDCHAR
STARTCHAR 4EB1
ENCODING 20145
SWIDTH 1000 0
DWIDTH 14 0
BBX 12 13 1 -2
BITMAP
0400
FFF0
1000
27E0
2420
6420
67E0
A420
2420
27E0
2000
2FF0
2000
ENDCHAR
STARTCHAR 4EB2
ENCODING 20146
SWIDTH 1000 0
DWIDTH 14 0
BBX 11 13 2 -1
BITMAP
0400
FFC0
0080
2100
1100
FFE0
0400
7FC0
0400
2480
4440
8400
1C00
ENDCHAR
STARTCHAR 4EB3
ENCODING 20147
SWIDTH 928 0
DWIDTH 13 0
BBX 11 13 1 -1
BITMAP
0400
FFE0
3F80
2080
3F80
0000
FFE0
8020
BF20
05C0
7E20
0420
07E0
ENDCHAR
STARTCHAR 4EB4
ENCODING 20148
SWIDTH 1000 0
DWIDTH 14 0
BBX 12 14 1 -2
BITMAP
0400
FFF0
3FC0
2040
3FC0
FFF0
BFD0
0400
7FE0
0800
7F00
1110
E0F0
8000
ENDCHAR
STARTCHAR 4EB5
ENCODING 20149
SWIDTH 1000 0
DWIDTH 14 0
BBX 13 13 1 -2
BITMAP
0400
FFF0
2180
FFE0
2140
FF40
23C8
6430
0840
3280
5100
98C0
1030
ENDCHAR
STARTCHAR 4EB6
ENCODING 20150
SWIDTH 1000 0
DWIDTH 14 0
BBX 12 14 1 -2
BITMAP
0400
0400
FFF0
7FE0
4020
5FA0
5FA0
7FE0
3FC0
2040
3FC0
3FC0
0000
FFF0
ENDCHAR
STARTCHAR 4EB7
ENCODING 20151
SWIDTH 928 0
DWIDTH 13 0
BBX 12 13 0 -2
BITMAP
0200
7FF0
0840
7FF0
4480
5FE0
5FF0
44A0
5FE0
4CC0
54A0
A490
0480
ENDCHAR
STARTCHAR 4EB8
ENCODING 20152
SWIDTH 1000 0
DWIDTH 14 0
BBX 13 13 1 -2
BITMAP
1120
6BF0
7A50
4A50
4A50
7BF0
7E50
13F0
1C40
F3F8
1040
1040
7040
ENDCHAR
STARTCHAR 4EB9
ENCODING 20153
SWIDTH 1000 0
DWIDTH 14 0
BBX 12 13 1 -2
BITMAP
0400
FFF0
6FE0
4F20
6FE0
4F20
FFF0
8010
3FC0
3FC0
3FC0
2040
FFF0
ENDCHAR
STARTCHAR 4EBA
ENCODING 20154
SWIDTH 1000 0
DWIDTH 14 0
BBX 11 12 2 -1
BITMAP
0400
0400
0400
0400
0400
0400
0A00
0A00
1100
2080
6040
8020
ENDCHAR
STARTCHAR 4EBB
ENCODING 20155
SWIDTH 1000 0
DWIDTH 14 0
BBX 7 13 2 -2
BITMAP
06
04
08
18
18
28
C8
08
08
08
08
08
08
ENDCHAR
STARTCHAR 4EBC
ENCODING 20156
SWIDTH 1000 0
DWIDTH 14 0
BBX 12 12 1 0
BITMAP
0400
0400
0400
0400
0A00
0900
1180
30C0
6020
8000
0000
FFF0
ENDCHAR
STARTCHAR 4EBD
ENCODING 20157
SWIDTH 1000 0
DWIDTH 14 0
BBX 12 12 1 0
BITMAP
0200
0600
0900
1880
3060
C030
0000
0000
0000
1C00
0380
0040
ENDCHAR
STARTCHAR 4EBE
ENCODING 20158
SWIDTH 1000 0
DWIDTH 14 0
BBX 11 12 2 -1
BITMAP
8200
8200
8200
8400
8600
8600
8900
8880
9040
E060
8000
FFE0
ENDCHAR
STARTCHAR 4EBF
ENCODING 20159
SWIDTH 1071 0
DWIDTH 15 0
BBX 13 14 1 -3
BITMAP
1800
1000
17F0
2020
6040
6040
A080
2100
2200
2200
2408
2408
27F8
2000
ENDCHAR
STARTCHAR 4EC0
ENCODING 20160
SWIDTH 1071 0
DWIDTH 15 0
BBX 13 13 1 -1
BITMAP
1080
2080
2080
6080
EFF8
A080
2080
2080
2080
2080
2080
2080
2080
ENDCHAR
STARTCHAR 4EC1
ENCODING 20161
SWIDTH 1071 0
DWIDTH 15 0
BBX 13 13 1 -1
BITMAP
1000
2000
27F0
6000
6000
A000
A000
2000
2000
2000
2FF8
2000
2000
ENDCHAR
STARTCHAR 4EC2
ENCODING 20162
SWIDTH 1071 0
DWIDTH 15 0
BBX 12 13 1 -1
BITMAP
1100
1100
2100
27F0
6110
A110
A110
2110
2110
2210
2210
2410
2860
ENDCHAR
STARTCHAR 4EC3
ENCODING 20163
SWIDTH 1000 0
DWIDTH 14 0
BBX 12 13 1 -2
BITMAP
1000
2FF0
2040
6040
6040
A040
2040
2040
2040
2040
2040
2040
21C0
ENDCHAR
STARTCHAR 4EC4
ENCODING 20164
SWIDTH 1000 0
DWIDTH 14 0
BBX 12 12 1 -2
BITMAP
7FF0
4000
4200
4200
4200
4200
4500
4500
4480
8840
9020
A010
ENDCHAR
STARTCHAR 4EC5
ENCODING 20165
SWIDTH 1071 0
DWIDTH 15 0
BBX 13 13 1 -3
BITMAP
1800
17F0
2210
2220
6220
A120
2140
2140
2080
20C0
2320
2630
2808
ENDCHAR
STARTCHAR 4EC6
ENCODING 20166
SWIDTH 928 0
DWIDTH 13 0
BBX 12 13 1 -1
BITMAP
1100
2100
2100
6100
6180
A140
2120
2110
2100
2100
2100
2100
2100
ENDCHAR
STARTCHAR 4EC7
ENCODING 20167
SWIDTH 1071 0
DWIDTH 15 0
BBX 13 13 1 -1
BITMAP
1100
1100
2100
2100
6FE0
A120
2120
2120
2120
2220
2620
2C28
2838
ENDCHAR
STARTCHAR 4EC8
ENCODING 20168
SWIDTH 928 0
DWIDTH 13 0
BBX 12 13 0 -1
BITMAP
1000
2340
2240
2240
6240
A240
2240
2260
2420
2420
2430
2810
2000
ENDCHAR
STARTCHAR 4EC9
ENCODING 20169
SWIDTH 1071 0
DWIDTH 15 0
BBX 13 13 1 -2
BITMAP
1000
13E0
2220
2220
6220
A220
2220
2220
2220
2220
2420
2C28
2838
ENDCHAR
STARTCHAR 4ECA
ENCODING 20170
SWIDTH 1000 0
DWIDTH 14 0
BBX 12 13 1 -2
BITMAP
0600
0600
0900
1080
2460
C210
0000
3FC0
0080
0080
0100
0300
0600
ENDCHAR
STARTCHAR 4ECB
ENCODING 20171
SWIDTH 1000 0
DWIDTH 14 0
BBX 12 13 1 -2
BITMAP
0600
0600
0900
1080
2060
D090
1080
1080
1080
1080
1080
2080
4080
ENDCHAR
STARTCHAR 4ECC
ENCODING 20172
SWIDTH 1000 0
DWIDTH 14 0
BBX 11 12 2 -1
BITMAP
0400
0800
0C00
0B00
3080
C460
0400
0C00
0A00
1100
20C0
C020
ENDCHAR
STARTCHAR 4ECD
ENCODING 20173
SWIDTH 1000 0
DWIDTH 14 0
BBX 12 13 1 -1
BITMAP
1000
2FE0
2220
2240
6240
6240
A270
2210
2410
2410
2410
2810
2060
ENDCHAR
STARTCHAR 4ECE
ENCODING 20174
SWIDTH 1000 0
DWIDTH 14 0
BBX 12 12 1 -1
BITMAP
2080
2080
2080
2080
2080
3080
3080
4940
4540
C220
8620
0C10
ENDCHAR
STARTCHAR 4ECF
ENCODING 20175
SWIDTH 1000 0
DWIDTH 14 0
BBX 12 13 1 -1
BITMAP
1000
2180
2100
2100
6200
A200
A240
2440
2420
2820
2820
2FF0
2010
ENDCHAR
STARTCHAR 4ED0
ENCODING 20176
SWIDTH 1000 0
DWIDTH 14 0
BBX 13 14 1 -2
BITMAP
0200
0200
0500
0880
3260
E218
0200
7FF0
0200
0200
0200
0200
0200
0200
ENDCHAR
STARTCHAR 4ED1
ENCODING 20177
SWIDTH 1000 0
DWIDTH 14 0
BBX 13 13 1 -1
BITMAP
0400
0600
0900
10C0
2070
D058
90C0
1300
1C00
1000
1010
1030
0FE0
ENDCHAR
STARTCHAR 4ED2
ENCODING 20178
SWIDTH 1000 0
DWIDTH 14 0
BBX 12 12 1 -1
BITMAP
0200
0600
0900
1880
2060
C410
0300
0080
0000
1800
0600
0180
ENDCHAR
STARTCHAR 4ED3
ENCODING 20179
SWIDTH 1000 0
DWIDTH 14 0
BBX 11 13 2 -1
BITMAP
0400
0A00
1900
3080
C060
BFA0
2080
2080
2080
2300
2020
2020
3FC0
ENDCHAR
STARTCHAR 4ED4
ENCODING 20180
SWIDTH 1000 0
DWIDTH 14 0
BBX 13 13 0 -1
BITMAP
1800
17F0
2020
2040
6080
E080
2FF8
2080
2080
2080
2080
2080
2380
ENDCHAR
STARTCHAR 4ED5
ENCODING 20181
SWIDTH 1071 0
DWIDTH 15 0
BBX 13 14 1 -2
BITMAP
1880
1080
1080
2080
2080
6FF8
A080
2080
2080
2080
2080
2080
27F0
2000
ENDCHAR
STARTCHAR 4ED6
ENCODING 20182
SWIDTH 1000 0
DWIDTH 14 0
BBX 12 14 1 -2
BITMAP
2100
2100
4900
4900
C9E0
FF20
4920
4920
4920
4960
4810
4810
4830
47E0
ENDCHAR
STARTCHAR 4ED7
ENCODING 20183
SWIDTH 1071 0
DWIDTH 15 0
BBX 13 13 1 -1
BITMAP
1080
1080
2080
2FF8
6080
E880
A480
2480
2300
2100
22C0
2430
2808
ENDCHAR
STARTCHAR 4ED8
ENCODING 20184
SWIDTH 1071 0
DWIDTH 15 0
BBX 13 13 1 -1
BITMAP
1020
1020
2020
2FF8
6020
A420
2220
2120
2120
2020
2020
2020
20E0
ENDCHAR
STARTCHAR 4ED9
ENCODING 20185
SWIDTH 1000 0
DWIDTH 14 0
BBX 12 13 1 -1
BITMAP
1080
2080
2080
2080
6890
E890
A890
2890
2890
2890
2890
2FF0
2010
ENDCHAR
STARTCHAR 4EDA
ENCODING 20186
SWIDTH 928 0
DWIDTH 13 0
BBX 12 14 1 -3
BITMAP
0400
0400
0A00
1100
2080
C470
0400
4440
4440
4440
4440
4440
7FC0
0040
ENDCHAR
STARTCHAR 4EDB
ENCODING 20187
SWIDTH 1071 0
DWIDTH 15 0
BBX 13 13 1 -1
BITMAP
1020
2FC0
2100
6100
E100
A178
2F80
2100
2100
2100
2108
21F0
2000
ENDCHAR
STARTCHAR 4EDC
ENCODING 20188
SWIDTH 1000 0
DWIDTH 14 0
BBX 12 13 1 -1
BITMAP
1000
27F0
2080
6080
6080
A080
2080
2080
2080
2080
2080
2FF0
2000
ENDCHAR
STARTCHAR 4EDD
ENCODING 20189
SWIDTH 1000 0
DWIDTH 14 0
BBX 12 13 1 -2
BITMAP
0200
0500
0500
08C0
3060
C010
1FE0
0200
0200
0200
0200
0200
7FF0
ENDCHAR
STARTCHAR 4EDE
ENCODING 20190
SWIDTH 1000 0
DWIDTH 14 0
BBX 12 13 1 -1
BITMAP
1000
27F0
2090
2090
6490
A490
A490
2890
2110
2110
2210
2410
2860
ENDCHAR
STARTCHAR 4EDF
ENCODING 20191
SWIDTH 1071 0
DWIDTH 15 0
BBX 13 14 1 -3
BITMAP
1000
1030
27C0
2080
6080
A080
2FF8
2080
2080
2080
2080
2080
2080
2080
ENDCHAR
STARTCHAR 4EE0
ENCODING 20192
SWIDTH 1000 0
DWIDTH 14 0
BBX 12 13 1 -2
BITMAP
1000
17F0
2080
2080
6080
A080
2FF0
2080
2080
2080
2080
2080
2080
ENDCHAR
STARTCHAR 4EE1
ENCODING 20193
SWIDTH 1000 0
DWIDTH 14 0
BBX 13 13 0 -2
BITMAP
1100
2200
27F8
2400
6800
A7F0
2020
20C0
2100
2200
2408
2408
27F0
ENDCHAR
STARTCHAR 4EE2
ENCODING 20194
SWIDTH 1000 0
DWIDTH 14 0
BBX 12 13 1 -1
BITMAP
1200
2400
27F0
2410
6810
AA10
A210
2110
2190
2010
2010
2010
20E0
ENDCHAR
STARTCHAR 4EE3
ENCODING 20195
SWIDTH 1000 0
DWIDTH 14 0
BBX 12 13 1 -1
BITMAP
1280
22C0
2240
2200
6270
6380
AD00
2100
2100
2100
2090
2050
2030
ENDCHAR
STARTCHAR 4EE4
ENCODING 20196
SWIDTH 928 0
DWIDTH 13 0
BBX 12 14 1 -3
BITMAP
0200
0600
0A00
1100
24C0
C230
0000
7FC0
0080
0180
3300
0E00
0200
0100
ENDCHAR
STARTCHAR 4EE5
ENCODING 20197
SWIDTH 1000 0
DWIDTH 14 0
BBX 12 12 1 -2
BITMAP
1840
4840
4440
4240
4040
4080
4880
5080
6140
6220
C410
1800
ENDCHAR
STARTCHAR 4EE6
ENCODING 20198
SWIDTH 1000 0
DWIDTH 14 0
BBX 13 13 0 -1
BITMAP
1080
2080
2080
2480
64A0
A4A0
2490
2890
2888
3088
2080
2080
2380
ENDCHAR
STARTCHAR 4EE7
ENCODING 20199
SWIDTH 1000 0
DWIDTH 14 0
BBX 12 13 1 -2
BITMAP
0400
0400
07C0
0400
0400
FFF0
0400
0400
0600
0900
1180
2040
C030
ENDCHAR
STARTCHAR 4EE8
ENCODING 20200
SWIDTH 1000 0
DWIDTH 14 0
BBX 13 13 0 -2
BITMAP
1000
1000
2FF0
2000
6000
E000
27E0
2000
2000
2000
2000
2FF8
2000
ENDCHAR
STARTCHAR 4EE9
ENCODING 20201
SWIDTH 1071 0
DWIDTH 15 0
BBX 13 13 1 -1
BITMAP
1100
1100
2100
2100
61E0
E100
A100
2100
2100
2100
2100
2FF8
2000
ENDCHAR
STARTCHAR 4EEA
ENCODING 20202
SWIDTH 1071 0
DWIDTH 15 0
BBX 13 14 1 -3
BITMAP
1900
1100
1090
2490
2420
6220
E220
2220
2140
2140
2080
2140
2230
2C08
ENDCHAR
STARTCHAR 4EEB
ENCODING 20203
SWIDTH 1000 0
DWIDTH 14 0
BBX 12 13 1 -1
BITMAP
1080
2100
2100
2220
6240
A440
2880
2080
2140
2220
2420
2FF0
2010
ENDCHAR
STARTCHAR 4EEC
ENCODING 20204
SWIDTH 1000 0
DWIDTH 14 0
BBX 12 14 1 -3
BITMAP
1000
1200
20F0
2410
6410
6410
A410
2410
2410
2410
2410
2410
2410
2430
ENDCHAR
STARTCHAR 4EED
ENCODING 20205
SWIDTH 1000 0
DWIDTH 14 0
BBX 13 13 0 -1
BITMAP
1000
27F0
2110
6110
6D10
A510
2310
2110
22D0
2278
2220
2420
28E0
ENDCHAR
STARTCHAR 4EEE
ENCODING 20206
SWIDTH 928 0
DWIDTH 13 0
BBX 12 13 0 -2
BITMAP
1030
27F0
2400
2400
67E0
A620
2520
2520
2540
24C0
28C0
2920
2210
ENDCHAR
STARTCHAR 4EEF
ENCODING 20207
SWIDTH 1000 0
DWIDTH 14 0
BBX 13 14 1 -2
BITMAP
1880
1080
2280
22A0
6490
6488
A480
2090
20A0
2020
2040
2080
2700
2C00
ENDCHAR
STARTCHAR 4EF0
ENCODING 20208
SWIDTH 1000 0
DWIDTH 14 0
BBX 12 13 1 -2
BITMAP
1100
26F0
2490
6490
6490
A490
2490
2490
2590
2690
24B0
2080
2080
ENDCHAR
STARTCHAR 4EF1
ENCODING 20209
SWIDTH 1000 0
DWIDTH 14 0
BBX 13 13 0 -1
BITMAP
1100
2180
2240
6460
ED30
3888
2000
2FF0
2020
2040
20C0
2080
2100
ENDCHAR
STARTCHAR 4EF2
ENCODING 20210
SWIDTH 1000 0
DWIDTH 14 0
BBX 12 14 1 -2
BITMAP
1080
2080
2080
27F0
6490
6490
A490
2490
27F0
2490
2080
2080
2080
2080
ENDCHAR
STARTCHAR 4EF3
ENCODING 20211
SWIDTH 1071 0
DWIDTH 15 0
BBX 13 14 1 -2
BITMAP
1440
2440
2440
2440
6458
6760
A440
2440
2440
2440
2440
2548
2748
2C78
ENDCHAR
STARTCHAR 4EF4
ENCODING 20212
SWIDTH 1071 0
DWIDTH 15 0
BBX 12 13 1 -2
BITMAP
1000
17F0
2410
2410
67F0
A410
2410
27F0
2410
2410
2410
2810
2870
ENDCHAR
STARTCHAR 4EF5
ENCODING 20213
SWIDTH 1071 0
DWIDTH 15 0
BBX 13 13 1 -1
BITMAP
1200
2400
27F0
6480
6880
A880
2080
2FF8
2080
2080
2080
2080
2080
ENDCHAR
STARTCHAR 4EF6
ENCODING 20214
SWIDTH 1071 0
DWIDTH 15 0
BBX 13 13 1 -2
BITMAP
1080
2480
2480
27F0
6880
A880
2080
2FF8
2080
2080
2080
2080
2080
ENDCHAR
STARTCHAR 4EF7
ENCODING 20215
SWIDTH 1071 0
DWIDTH 15 0
BBX 13 13 1 -2
BITMAP
1180
2180
2240
6620
6C18
A220
2220
2220
2220
2220
2620
2420
2820
ENDCHAR
STARTCHAR 4EF8
ENCODING 20216
SWIDTH 1071 0
DWIDTH 15 0
BBX 13 14 1 -3
BITMAP
1000
1070
2780
2080
6080
6080
AFF8
20C0
2140
2140
2120
2210
2418
2800
ENDCHAR
STARTCHAR 4EF9
ENCODING 20217
SWIDTH 1000 0
DWIDTH 14 0
BBX 13 13 0 -1
BITMAP
1080
1080
2FF0
2080
6080
A7F0
2080
2080
2080
2FF8
2080
2080
2080
ENDCHAR
STARTCHAR 4EFA
ENCODING 20218
SWIDTH 1000 0
DWIDTH 14 0
BBX 12 13 1 -2
BITMAP
0200
0600
0500
0880
3060
C030
3FE0
2000
2000
3FE0
2000
2000
3FE0
ENDCHAR
STARTCHAR 4EFB
ENCODING 20219
SWIDTH 1000 0
DWIDTH 14 0
BBX 13 13 1 -1
BITMAP
1000
10F0
2780
2080
6080
E080
AFF8
2080
2080
2080
2080
2FF0
2000
ENDCHAR
STARTCHAR 4EFC
ENCODING 20220
SWIDTH 1000 0
DWIDTH 14 0
BBX 13 13 0 -2
BITMAP
1000
27F0
2080
6080
E080
27F0
2080
2080
2080
2080
2080
2FF8
2000
ENDCHAR
STARTCHAR 4EFD
ENCODING 20221
SWIDTH 1000 0
DWIDTH 14 0
BBX 13 14 1 -2
BITMAP
1040
2340
2240
2220
6420
E810
AFE8
2120
2120
2120
2220
2620
3CE0
2000
ENDCHAR
STARTCHAR 4EFE
ENCODING 20222
SWIDTH 1000 0
DWIDTH 14 0
BBX 13 12 0 0
BITMAP
2FF8
2200
6200
63F0
A220
2420
2420
27E0
2020
2020
3FF8
2000
ENDCHAR
STARTCHAR 4EFF
ENCODING 20223
SWIDTH 1071 0
DWIDTH 15 0
BBX 13 13 1 -1
BITMAP
1100
2100
2FF8
6200
6200
A200
A3F0
2210
2210
2220
2420
2420
28E0
ENDCHAR
STARTCHAR 4F00
ENCODING 20224
SWIDTH 1000 0
DWIDTH 14 0
BBX 12 13 1 -1
BITMAP
1000
1280
2280
2440
6440
6820
A910
2100
2200
2280
2440
2FE0
2020
ENDCHAR
STARTCHAR 4F01
ENCODING 20225
SWIDTH 1000 0
DWIDTH 14 0
BBX 11 13 2 -2
BITMAP
0400
0C00
1200
2100
6680
8460
2400
2780
2400
2400
2400
2400
FFE0
ENDCHAR
STARTCHAR 4F02
ENCODING 20226
SWIDTH 1071 0
DWIDTH 15 0
BBX 13 14 1 -2
BITMAP
1080
1080
2FF8
2080
6080
A7F0
2490
2490
2490
2490
24F0
2080
2080
2080
ENDCHAR
STARTCHAR 4F03
ENCODING 20227
SWIDTH 1071 0
DWIDTH 15 0
BBX 13 14 1 -2
BITMAP
1000
17E0
2020
2240
6180
6040
AFF8
2090
2090
2080
2080
2080
2080
2180
ENDCHAR
STARTCHAR 4F04
ENCODING 20228
SWIDTH 1000 0
DWIDTH 14 0
BBX 13 13 0 -2
BITMAP
1000
1FF0
2090
2090
67F0
E480
2480
27F8
2088
2088
2090
20B0
2080
ENDCHAR
STARTCHAR 4F05
ENCODING 20229
SWIDTH 1000 0
DWIDTH 14 0
BBX 12 13 1 -1
BITMAP
2100
4100
5FE0
C100
C920
4920
4920
4FE0
4F20
4100
4110
4110
41E0
ENDCHAR
STARTCHAR 4F06
ENCODING 20230
SWIDTH 1000 0
DWIDTH 14 0
BBX 12 13 1 -1
BITMAP
1200
2400
27F0
6950
6A50
A290
2290
2490
2890
2110
2230
2430
20E0
ENDCHAR
STARTCHAR 4F07
ENCODING 20231
SWIDTH 1000 0
DWIDTH 14 0
BBX 13 13 1 -2
BITMAP
1000
13C0
2240
2240
6478
E000
27E0
2220
2240
2180
2180
2260
2C10
ENDCHAR
STARTCHAR 4F08
ENCODING 20232
SWIDTH 1000 0
DWIDTH 14 0
BBX 12 13 1 -1
BITMAP
1100
2100
2080
2280
6200
E220
2A10
2A10
3210
3200
2200
2220
23C0
ENDCHAR
STARTCHAR 4F09
ENCODING 20233
SWIDTH 1000 0
DWIDTH 14 0
BBX 13 14 0 -2
BITMAP
1100
2080
2FF8
2000
6000
E3E0
2220
2220
2220
2220
2220
2428
2C38
2000
ENDCHAR
STARTCHAR 4F0A
ENCODING 20234
SWIDTH 1000 0
DWIDTH 14 0
BBX 14 13 0 -2
BITMAP
1000
27F0
2110
6110
6FFC
A110
2110
27F0
2210
2200
2400
2C00
2800
ENDCHAR
STARTCHAR 4F0B
ENCODING 20235
SWIDTH 928 0
DWIDTH 13 0
BBX 13 13 0 -2
BITMAP
1000
2FE0
2220
2240
6240
E270
2220
2320
24A0
24C0
24C0
29A0
2618
ENDCHAR
STARTCHAR 4F0C
ENCODING 20236
SWIDTH 1071 0
DWIDTH 15 0
BBX 13 13 1 -2
BITMAP
1000
27F8
2400
65F0
E510
A510
2510
2570
2500
2900
2908
29F0
2000
ENDCHAR
STARTCHAR 4F0D
ENCODING 20237
SWIDTH 928 0
DWIDTH 13 0
BBX 13 14 0 -2
BITMAP
1000
1000
1FF0
2100
2200
6200
A7E0
2220
2220
2220
2220
2420
2FF8
2000
ENDCHAR
STARTCHAR 4F0E
ENCODING 20238
SWIDTH 1000 0
DWIDTH 14 0
BBX 12 13 1 -2
BITMAP
1080
2080
2FF0
6080
6080
AFF0
2420
2220
2140
20C0
20C0
2330
2C10
ENDCHAR
STARTCHAR 4F0F
ENCODING 20239
SWIDTH 1000 0
DWIDTH 14 0
BBX 11 13 2 -1
BITMAP
2200
4200
4240
4200
DFE0
C300
4300
4500
4480
4880
4840
5020
6000
ENDCHAR
STARTCHAR 4F10
ENCODING 20240
SWIDTH 1000 0
DWIDTH 14 0
BBX 13 13 1 -1
BITMAP
1140
2120
2100
2130
63C0
6D20
A120
2140
20C0
2080
2340
2E48
2030
ENDCHAR
STARTCHAR 4F11
ENCODING 20241
SWIDTH 1071 0
DWIDTH 15 0
BBX 13 13 1 -2
BITMAP
1080
1080
2080
2FF8
61C0
A2C0
22A0
24A0
2490
2888
3088
2080
2080
ENDCHAR
STARTCHAR 4F12
ENCODING 20242
SWIDTH 1000 0
DWIDTH 14 0
BBX 12 13 1 -2
BITMAP
1000
27F0
2400
2400
6400
E7F0
A440
2440
2440
2440
2840
2840
3040
ENDCHAR
STARTCHAR 4F13
ENCODING 20243
SWIDTH 1000 0
DWIDTH 14 0
BBX 13 13 0 -2
BITMAP
1800
17F8
2080
2080
6180
E1A0
22A0
2290
2488
2C88
2080
2080
2080
ENDCHAR
STARTCHAR 4F14
ENCODING 20244
SWIDTH 1000 0
DWIDTH 14 0
BBX 13 14 0 -2
BITMAP
1000
17F0
2810
2810
2010
63C0
6240
A240
2240
2240
2640
2448
2C70
2800
ENDCHAR
STARTCHAR 4F15
ENCODING 20245
SWIDTH 1000 0
DWIDTH 14 0
BBX 13 14 0 -2
BITMAP
1080
1080
2080
27F0
6080
6080
A080
2FF8
2080
20C0
2140
2220
2418
2800
ENDCHAR
STARTCHAR 4F16
ENCODING 20246
SWIDTH 1000 0
DWIDTH 14 0
BBX 13 14 0 -2
BITMAP
1100
1100
2100
2FF8
6200
6200
E3F0
2210
2520
2520
2CC0
28C0
3130
2608
ENDCHAR
STARTCHAR 4F17
ENCODING 20247
SWIDTH 1000 0
DWIDTH 14 0
BBX 12 13 1 -1
BITMAP
0600
0600
0900
1080
6060
9080
1080
1080
1980
2D40
6560
C230
0400
ENDCHAR
STARTCHAR 4F18
ENCODING 20248
SWIDTH 928 0
DWIDTH 13 0
BBX 13 14 0 -2
BITMAP
1300
2240
2220
2220
2200
7FF0
E280
2280
2280
2480
2480
2C88
2890
30F0
ENDCHAR
STARTCHAR 4F19
ENCODING 20249
SWIDTH 1071 0
DWIDTH 15 0
BBX 13 13 1 -1
BITMAP
1080
2080
2080
2298
6490
E4A0
2CA0
2140
2140
2120
2230
2C18
2808
ENDCHAR
STARTCHAR 4F1A
ENCODING 20250
SWIDTH 1000 0
DWIDTH 14 0
BBX 13 14 0 -1
BITMAP
0300
0300
0480
08C0
3060
FF98
0000
0000
7FF0
0600
0880
1040
3FE0
0020
ENDCHAR
STARTCHAR 4F1B
ENCODING 20251
SWIDTH 928 0
DWIDTH 13 0
BBX 12 13 0 -2
BITMAP
1000
2FF0
2800
6A20
6940
A940
2880
2940
2920
2E00
2800
2FF0
2000
ENDCHAR
STARTCHAR 4F1C
ENCODING 20252
SWIDTH 928 0
DWIDTH 13 0
BBX 12 13 1 -1
BITMAP
2200
4200
5FC0
C240
C440
5C70
5100
4100
5FE0
4100
4100
4100
4100
ENDCHAR
STARTCHAR 4F1D
ENCODING 20253
SWIDTH 1071 0
DWIDTH 15 0
BBX 13 13 1 -1
BITMAP
1000
17F0
2000
2000
6000
AFF8
A080
2100
2140
2220
2410
2FF0
2008
ENDCHAR
STARTCHAR 4F1E
ENCODING 20254
SWIDTH 1000 0
DWIDTH 14 0
BBX 13 14 1 -3
BITMAP
0200
0600
0500
08C0
3230
C248
1240
0A80
0200
7FF0
0200
0200
0200
0200
ENDCHAR
STARTCHAR 4F1F
ENCODING 20255
SWIDTH 1071 0
DWIDTH 15 0
BBX 13 13 1 -2
BITMAP
1080
1080
2FF8
6080
67F0
A080
2080
2FF8
2088
2088
20B0
2080
2080
ENDCHAR
STARTCHAR 4F20
ENCODING 20256
SWIDTH 1071 0
DWIDTH 15 0
BBX 13 13 1 -2
BITMAP
1080
3080
2FF0
2100
6100
EFF8
2200
23F0
2030
2040
2340
20C0
2020
ENDCHAR
STARTCHAR 4F21
ENCODING 20257
SWIDTH 1000 0
DWIDTH 14 0
BBX 13 13 1 -3
BITMAP
1180
1100
2FF0
2200
6280
E480
2FF0
2080
2080
2FF8
2080
2080
2080
ENDCHAR
STARTCHAR 4F22
ENCODING 20258
SWIDTH 1000 0
DWIDTH 14 0
BBX 12 13 1 -1
BITMAP
1000
2FF0
2040
2640
6440
6440
AFF0
2140
2140
2240
2640
2840
20C0
ENDCHAR
STARTCHAR 4F23
ENCODING 20259
SWIDTH 928 0
DWIDTH 13 0
BBX 13 13 0 -2
BITMAP
1000
27E0
2420
24A0
64A0
E4A0
24A0
24E0
2560
2140
2248
2648
3870
ENDCHAR
STARTCHAR 4F24
ENCODING 20260
SWIDTH 1071 0
DWIDTH 15 0
BBX 13 13 1 -2
BITMAP
1200
1400
27F8
2500
6900
A900
2FF0
2110
2210
2210
2210
2410
2870
ENDCHAR
STARTCHAR 4F25
ENCODING 20261
SWIDTH 1000 0
DWIDTH 14 0
BBX 12 13 1 -2
BITMAP
1210
1220
2260
22C0
6200
AFF0
A280
2240
2240
2260
2220
2390
2200
ENDCHAR
STARTCHAR 4F26
ENCODING 20262
SWIDTH 928 0
DWIDTH 13 0
BBX 13 13 0 -2
BITMAP
1080
2180
2140
2220
6410
AA18
2220
22C0
2300
2200
2210
2210
23E0
ENDCHAR
STARTCHAR 4F27
ENCODING 20263
SWIDTH 1071 0
DWIDTH 15 0
BBX 13 14 1 -2
BITMAP
1180
2180
2280
2240
6420
6818
B7E8
2420
2420
2420
24C0
2400
2410
27F0
ENDCHAR
STARTCHAR 4F28
ENCODING 20264
SWIDTH 1000 0
DWIDTH 14 0
BBX 12 13 0 -1
BITMAP
1200
2400
27F0
2810
6810
E310
2190
2050
2190
2610
2010
2010
21E0
ENDCHAR
STARTCHAR 4F29
ENCODING 20265
SWIDTH 1000 0
DWIDTH 14 0
BBX 12 14 1 -3
BITMAP
1200
1100
2000
2FF0
6040
6440
A440
2240
2280
2180
2180
2240
2C30
2810
ENDCHAR
STARTCHAR 4F2A
ENCODING 20266
SWIDTH 1000 0
DWIDTH 14 0
BBX 12 13 1 -1
BITMAP
1180
1900
2500
2100
6FF0
A110
2110
22D0
2250
2210
2410
2810
2870
ENDCHAR
STARTCHAR 4F2B
ENCODING 20267
SWIDTH 1071 0
DWIDTH 15 0
BBX 13 13 1 -1
BITMAP
1300
1080
2000
2FF0
6810
A810
2000
2000
2000
2000
2FF8
2000
2000
ENDCHAR
STARTCHAR 4F2C
ENCODING 20268
SWIDTH 1000 0
DWIDTH 14 0
BBX 13 13 0 -1
BITMAP
1000
27F0
2410
2410
6410
A7F0
2490
2480
2440
2440
2820
2818
2008
ENDCHAR
STARTCHAR 4F2D
ENCODING 20269
SWIDTH 928 0
DWIDTH 13 0
BBX 12 13 0 -1
BITMAP
1300
1100
2FF0
2100
6220
A440
2F80
2080
2100
2220
2420
2FF0
2010
ENDCHAR
STARTCHAR 4F2E
ENCODING 20270
SWIDTH 1000 0
DWIDTH 14 0
BBX 12 14 1 -2
BITMAP
1400
1400
24F0
2F90
6990
6990
AB90
2AA0
2A60
2460
2740
28A0
2910
2200
ENDCHAR
STARTCHAR 4F2F
ENCODING 20271
SWIDTH 1071 0
DWIDTH 15 0
BBX 12 13 1 -1
BITMAP
1080
2100
27F0
2410
6410
6410
A410
A7F0
2410
2410
2410
27F0
2410
ENDCHAR
STARTCHAR 4F30
ENCODING 20272
SWIDTH 1071 0
DWIDTH 15 0
BBX 13 13 1 -2
BITMAP
1080
2080
2080
2FF8
6080
6080
A080
27F0
2410
2410
2410
27F0
2410
ENDCHAR
STARTCHAR 4F31
ENCODING 20273
SWIDTH 1000 0
DWIDTH 14 0
BBX 13 14 1 -2
BITMAP
0080
1080
2180
2140
6620
6898
A080
2480
24A0
28A0
2890
3088
2080
2380
ENDCHAR
STARTCHAR 4F32
ENCODING 20274
SWIDTH 1000 0
DWIDTH 14 0
BBX 12 13 1 -1
BITMAP
1000
27F0
2410
2410
67F0
A400
A500
2510
25E0
2500
2900
2900
31F0
ENDCHAR
STARTCHAR 4F33
ENCODING 20275
SWIDTH 1000 0
DWIDTH 14 0
BBX 12 13 1 -1
BITMAP
1120
2520
2520
6520
FFF0
A520
2520
2520
2520
25E0
2400
27F0
2000
ENDCHAR
STARTCHAR 4F34
ENCODING 20276
SWIDTH 1000 0
DWIDTH 14 0
BBX 13 13 0 -2
BITMAP
1080
1890
24A0
22A0
6080
EFF0
2080
2080
2FF8
2080
2080
2080
2080
ENDCHAR
STARTCHAR 4F35
ENCODING 20277
SWIDTH 1000 0
DWIDTH 14 0
BBX 12 14 1 -2
BITMAP
1000
27F0
2550
2550
6550
6550
A550
2550
2650
2670
2410
27F0
2410
2000
ENDCHAR
STARTCHAR 4F36
ENCODING 20278
SWIDTH 1000 0
DWIDTH 14 0
BBX 13 13 0 -2
BITMAP
1180
2180
2280
6240
6530
A888
2000
2FF0
2020
2040
2280
2180
2040
ENDCHAR
STARTCHAR 4F37
ENCODING 20279
SWIDTH 1000 0
DWIDTH 14 0
BBX 12 14 0 -2
BITMAP
1080
2080
2080
27F0
6890
6890
A890
27F0
2890
2890
2890
27F0
2810
2000
ENDCHAR
STARTCHAR 4F38
ENCODING 20280
SWIDTH 1000 0
DWIDTH 14 0
BBX 12 13 1 -2
BITMAP
1080
2080
27F0
6890
6890
A7F0
2890
2890
27F0
2090
2080
2080
2080
ENDCHAR
STARTCHAR 4F39
ENCODING 20281
SWIDTH 1000 0
DWIDTH 14 0
BBX 12 14 1 -2
BITMAP
1000
27E0
2420
2420
6420
67E0
A420
2420
27E0
2420
2420
2420
2FF0
2000
ENDCHAR
STARTCHAR 4F3A
ENCODING 20282
SWIDTH 1000 0
DWIDTH 14 0
BBX 12 13 1 -2
BITMAP
1000
2FF0
2010
2FF0
6010
A010
A7D0
2450
2450
27D0
2450
2010
2030
ENDCHAR
STARTCHAR 4F3B
ENCODING 20283
SWIDTH 1000 0
DWIDTH 14 0
BBX 13 14 0 -2
BITMAP
1000
17F8
2080
2490
6490
62A0
A2A0
A080
2FF8
2080
2080
2080
2080
2080
ENDCHAR
STARTCHAR 4F3C
ENCODING 20284
SWIDTH 1000 0
DWIDTH 14 0
BBX 13 13 1 -2
BITMAP
1000
2120
24A0
64A0
6420
A420
2420
2520
2520
2660
2C50
2998
2300
ENDCHAR
STARTCHAR 4F3D
ENCODING 20285
SWIDTH 928 0
DWIDTH 13 0
BBX 11 13 1 -1
BITMAP
2800
4800
48E0
7EA0
CAA0
CAA0
4AA0
4AA0
4AA0
4AA0
52E0
52A0
4480
ENDCHAR
STARTCHAR 4F3E
ENCODING 20286
SWIDTH 1000 0
DWIDTH 14 0
BBX 12 13 1 -1
BITMAP
1000
2FF0
2080
6080
6180
A1A0
A2A0
2490
2880
2080
2080
2000
2FF0
ENDCHAR
STARTCHAR 4F3F
ENCODING 20287
SWIDTH 1000 0
DWIDTH 14 0
BBX 12 13 1 -1
BITMAP
1000
27E0
2420
6420
6420
A420
A7E0
2420
2000
2340
2420
2810
2800
ENDCHAR
STARTCHAR 4F40
ENCODING 20288
SWIDTH 1000 0
DWIDTH 14 0
BBX 12 13 1 -2
BITMAP
1000
17F0
2410
2410
6410
67F0
A400
27F0
2410
2410
2410
27F0
2410
ENDCHAR
STARTCHAR 4F41
ENCODING 20289
SWIDTH 1000 0
DWIDTH 14 0
BBX 12 13 1 -2
BITMAP
1180
2300
2240
6420
6FF0
A810
2000
27E0
2420
2420
2420
27E0
2420
ENDCHAR
STARTCHAR 4F42
ENCODING 20290
SWIDTH 1000 0
DWIDTH 14 0
BBX 13 14 1 -2
BITMAP
1000
2FF0
2080
2080
6080
6480
A4F0
2480
2480
2480
2480
2480
3FF8
2000
ENDCHAR
STARTCHAR 4F43
ENCODING 20291
SWIDTH 1000 0
DWIDTH 14 0
BBX 12 13 1 -2
BITMAP
1000
27F0
2490
6490
6490
A7F0
2490
2490
2490
2490
27F0
2410
2410
ENDCHAR
STARTCHAR 4F44
ENCODING 20292
SWIDTH 1000 0
DWIDTH 14 0
BBX 12 14 1 -2
BITMAP
2420
2420
2420
3FF0
6420
6420
A420
2420
27E0
2420
2420
27E0
2420
2420
ENDCHAR
STARTCHAR 4F45
ENCODING 20293
SWIDTH 1000 0
DWIDTH 14 0
BBX 12 13 1 -1
BITMAP
1080
2080
27F0
2080
6080
AFF0
21C0
22C0
22A0
24A0
2890
3880
2080
ENDCHAR
STARTCHAR 4F46
ENCODING 20294
SWIDTH 1000 0
DWIDTH 14 0
BBX 13 13 1 -2
BITMAP
1000
17F0
2410
6410
67F0
A410
2410
2410
27F0
2000
2000
2FF8
2000
ENDCHAR
STARTCHAR 4F47
ENCODING 20295
SWIDTH 1000 0
DWIDTH 14 0
BBX 12 14 1 -3
BITMAP
1100
2080
2FF0
2810
6810
6000
AFF0
2080
2080
2080
2080
2080
2080
2180
ENDCHAR
STARTCHAR 4F48
ENCODING 20296
SWIDTH 1000 0
DWIDTH 14 0
BBX 13 13 0 -1
BITMAP
1100
2200
2FF8
6280
6480
A7F0
2C90
3490
2490
2490
24B0
2080
2080
ENDCHAR
STARTCHAR 4F49
ENCODING 20297
SWIDTH 1000 0
DWIDTH 14 0
BBX 13 13 1 -1
BITMAP
1880
1080
27F0
2080
6080
A7F8
2100
2100
2140
2220
2420
2FF0
2008
ENDCHAR
STARTCHAR 4F4A
ENCODING 20298
SWIDTH 1000 0
DWIDTH 14 0
BBX 12 13 1 -1
BITMAP
1080
27F0
2490
64A0
6480
A7E0
A620
2520
2540
2CC0
28C0
2930
2210
ENDCHAR
STARTCHAR 4F4B
ENCODING 20299
SWIDTH 1000 0
DWIDTH 14 0
BBX 12 13 1 -2
BITMAP
1000
27F0
2110
6110
6210
AC60
2000
27F0
2410
2410
2410
27F0
2410
ENDCHAR
STARTCHAR 4F4C
ENCODING 20300
SWIDTH 928 0
DWIDTH 13 0
BBX 13 13 0 -1
BITMAP
1240
2240
2A40
2A50
6B50
AA60
2A40
2A40
2A40
2A40
2AC0
2F48
3870
ENDCHAR
STARTCHAR 4F4D
ENCODING 20301
SWIDTH 1071 0
DWIDTH 15 0
BBX 13 14 1 -2
BITMAP
1100
1100
2100
2FF0
2000
6020
A420
2420
2240
2240
2240
2080
2FF8
2000
ENDCHAR
STARTCHAR 4F4E
ENCODING 20302
SWIDTH 1000 0
DWIDTH 14 0
BBX 13 13 0 -2
BITMAP
1020
27C0
2480
6480
6480
A7F8
2480
2480
2480
2540
2728
2C98
2000
ENDCHAR
STARTCHAR 4F4F
ENCODING 20303
SWIDTH 1000 0
DWIDTH 14 0
BBX 12 14 1 -2
BITMAP
1000
1180
2080
2FF0
6080
A080
2080
27F0
2080
2080
2080
2080
2FF0
2000
ENDCHAR
STARTCHAR 4F50
ENCODING 20304
SWIDTH 1071 0
DWIDTH 15 0
BBX 13 14 1 -2
BITMAP
1000
1100
2100
2200
2FF8
6200
A200
2200
25F0
2480
2880
3880
2080
27F8
ENDCHAR
STARTCHAR 4F51
ENCODING 20305
SWIDTH 1071 0
DWIDTH 15 0
BBX 13 15 1 -3
BITMAP
1000
1080
1100
2100
2FF8
6200
A200
2200
27F0
2A10
3210
2210
23F0
2210
2200
ENDCHAR
STARTCHAR 4F52
ENCODING 20306
SWIDTH 1000 0
DWIDTH 14 0
BBX 13 13 0 -1
BITMAP
1080
2080
27F0
2490
6490
6490
A490
2FF8
2140
2140
2220
2410
2808
ENDCHAR
STARTCHAR 4F53
ENCODING 20307
SWIDTH 1000 0
DWIDTH 14 0
BBX 13 13 0 -2
BITMAP
1080
1080
2080
2FF8
62C0
E2C0
22A0
24A0
2C90
2FE8
2080
2080
2080
ENDCHAR
STARTCHAR 4F54
ENCODING 20308
SWIDTH 1000 0
DWIDTH 14 0
BBX 12 14 1 -2
BITMAP
1100
1100
2100
21F0
6100
6100
A100
27F0
2410
2410
2410
2410
27F0
2410
ENDCHAR
STARTCHAR 4F55
ENCODING 20309
SWIDTH 1071 0
DWIDTH 15 0
BBX 13 13 1 -1
BITMAP
1000
2FF8
2020
2020
67A0
A4A0
24A0
24A0
27A0
24A0
2420
2020
2060
ENDCHAR
STARTCHAR 4F56
ENCODING 20310
SWIDTH 1000 0
DWIDTH 14 0
BBX 13 13 0 -1
BITMAP
1300
2110
20A0
2220
6220
AA40
2A50
2A88
2308
2210
2610
3BE0
2000
ENDCHAR
STARTCHAR 4F57
ENCODING 20311
SWIDTH 1000 0
DWIDTH 14 0
BBX 12 13 1 -2
BITMAP
1100
1100
2FF0
2810
6200
A200
2270
2380
2200
2200
2200
2210
21E0
ENDCHAR
STARTCHAR 4F58
ENCODING 20312
SWIDTH 1000 0
DWIDTH 14 0
BBX 12 14 1 -2
BITMAP
0200
0600
0D00
1080
6060
DFD0
0000
0000
7FE0
0200
1240
6220
8200
0E00
ENDCHAR
STARTCHAR 4F59
ENCODING 20313
SWIDTH 1000 0
DWIDTH 14 0
BBX 12 14 1 -2
BITMAP
0200
0600
0D00
18C0
3060
5FD0
0200
0200
3FE0
0200
12C0
2230
C210
0600
ENDCHAR
STARTCHAR 4F5A
ENCODING 20314
SWIDTH 1000 0
DWIDTH 14 0
BBX 13 14 0 -2
BITMAP
1080
1680
2480
27F0
6880
E880
2080
2FF8
2080
2140
2140
2220
2410
2808
ENDCHAR
STARTCHAR 4F5B
ENCODING 20315
SWIDTH 1071 0
DWIDTH 15 0
BBX 13 13 1 -2
BITMAP
1240
2240
2FF0
6250
6FF0
AA40
2A40
2FF8
2248
2250
2250
2470
2C40
ENDCHAR
STARTCHAR 4F5C
ENCODING 20316
SWIDTH 1000 0
DWIDTH 14 0
BBX 13 14 1 -2
BITMAP
1100
2100
2200
63F8
6500
A900
21F0
2100
2100
21F8
2100
2100
2100
2100
ENDCHAR
STARTCHAR 4F5D
ENCODING 20317
SWIDTH 1000 0
DWIDTH 14 0
BBX 12 13 0 -1
BITMAP
1200
2400
27F0
2410
6810
6FD0
A450
2450
2450
27D0
2450
2010
2070
ENDCHAR
STARTCHAR 4F5E
ENCODING 20318
SWIDTH 1000 0
DWIDTH 14 0
BBX 13 13 0 -2
BITMAP
1000
27F0
2FF0
6000
A100
2200
2FF8
2420
2440
2340
21C0
2630
2800
ENDCHAR
STARTCHAR 4F5F
ENCODING 20319
SWIDTH 928 0
DWIDTH 13 0
BBX 13 13 0 -2
BITMAP
1200
27E0
2420
6A40
6180
A180
2240
3C38
2180
2040
2600
2180
2040
ENDCHAR
STARTCHAR 4F60
ENCODING 20320
SWIDTH 1000 0
DWIDTH 14 0
BBX 12 13 1 -2
BITMAP
2600
4400
4FF0
C820
D120
5100
4100
4D40
4920
5110
4110
4100
4700
ENDCHAR
STARTCHAR 4F61
ENCODING 20321
SWIDTH 1000 0
DWIDTH 14 0
BBX 12 13 1 -2
BITMAP
2100
4300
4280
4440
D930
C100
4920
4920
4920
4920
4920
4FE0
4020
ENDCHAR
STARTCHAR 4F62
ENCODING 20322
SWIDTH 1000 0
DWIDTH 14 0
BBX 13 14 0 -2
BITMAP
1000
27F8
2400
2400
6400
67F0
A410
2410
27F0
2400
2400
2400
27F8
2000
ENDCHAR
STARTCHAR 4F63
ENCODING 20323
SWIDTH 1000 0
DWIDTH 14 0
BBX 12 13 0 -1
BITMAP
1000
27F0
2490
6490
67F0
A490
2490
27F0
2490
2490
2C90
2890
2030
ENDCHAR
STARTCHAR 4F64
ENCODING 20324
SWIDTH 1000 0
DWIDTH 14 0
BBX 13 13 0 -2
BITMAP
1000
2FF8
2200
2200
63E0
E220
2420
2520
24E0
2420
2420
27A8
2038
ENDCHAR
STARTCHAR 4F65
ENCODING 20325
SWIDTH 928 0
DWIDTH 13 0
BBX 13 13 0 -3
BITMAP
0200
0600
0900
1880
3060
DFD8
0000
2420
2240
1240
0A80
0100
7FF0
ENDCHAR
STARTCHAR 4F66
ENCODING 20326
SWIDTH 1000 0
DWIDTH 14 0
BBX 12 14 1 -2
BITMAP
1000
1000
2FF0
2100
2200
6200
A3F0
A610
2E10
2A10
2210
23F0
2210
2210
ENDCHAR
STARTCHAR 4F67
ENCODING 20327
SWIDTH 1000 0
DWIDTH 14 0
BBX 13 14 1 -2
BITMAP
1100
1100
2100
21F0
6100
6100
AFF8
2100
2140
2160
2130
2110
2100
2100
ENDCHAR
STARTCHAR 4F68
ENCODING 20328
SWIDTH 1071 0
DWIDTH 15 0
BBX 13 13 1 -1
BITMAP
1200
2400
27F0
2810
6FD0
A450
2450
2450
27D0
2410
2460
2408
27F0
ENDCHAR
STARTCHAR 4F69
ENCODING 20329
SWIDTH 1000 0
DWIDTH 14 0
BBX 14 13 0 -1
BITMAP
1000
2FF0
2810
2FD0
6890
ABD0
2AD0
2AD0
2AD0
2AD0
2AD0
2894
3088
ENDCHAR
STARTCHAR 4F6A
ENCODING 20330
SWIDTH 928 0
DWIDTH 13 0
BBX 12 13 0 -2
BITMAP
1000
27F0
2410
2410
65D0
A550
2550
2550
25D0
2410
2410
27F0
2410
ENDCHAR
STARTCHAR 4F6B
ENCODING 20331
SWIDTH 928 0
DWIDTH 13 0
BBX 12 14 0 -2
BITMAP
1200
27E0
2420
2A40
6940
E180
2360
2C30
27E0
2420
2420
27E0
2420
2400
ENDCHAR
STARTCHAR 4F6C
ENCODING 20332
SWIDTH 1000 0
DWIDTH 14 0
BBX 13 14 0 -2
BITMAP
1100
1110
2110
2FD0
2120
6140
7FF8
A100
2200
2630
3BC0
2200
2208
23F0
ENDCHAR
STARTCHAR 4F6D
ENCODING 20333
SWIDTH 1000 0
DWIDTH 14 0
BBX 12 13 1 -2
BITMAP
3600
27C0
4C40
5280
C100
CEF0
5110
4FE0
4900
4900
4FF0
4100
4100
ENDCHAR
STARTCHAR 4F6E
ENCODING 20334
SWIDTH 928 0
DWIDTH 13 0
BBX 13 13 0 -1
BITMAP
1180
2180
2240
6220
6430
ABF8
2000
2000
27E0
2420
2420
27E0
2420
ENDCHAR
STARTCHAR 4F6F
ENCODING 20335
SWIDTH 1000 0
DWIDTH 14 0
BBX 13 14 0 -3
BITMAP
1000
1220
2040
2FF8
6080
E080
A7F0
2080
2080
2FF8
2080
2080
2080
2080
ENDCHAR
STARTCHAR 4F70
ENCODING 20336
SWIDTH 1000 0
DWIDTH 14 0
BBX 12 14 1 -2
BITMAP
1000
2FF0
2080
2100
67F0
E410
A410
2410
27F0
2410
2410
27F0
2410
2000
ENDCHAR
STARTCHAR 4F71
ENCODING 20337
SWIDTH 928 0
DWIDTH 13 0
BBX 11 13 1 -2
BITMAP
0600
0C00
1200
2180
DF60
8000
7FC0
0400
2400
27C0
2400
2400
FFE0
ENDCHAR
STARTCHAR 4F72
ENCODING 20338
SWIDTH 1000 0
DWIDTH 14 0
BBX 12 14 1 -2
BITMAP
1100
1200
23F0
2620
6C40
A940
A180
2100
23F0
2E10
2210
2210
23F0
2210
ENDCHAR
STARTCHAR 4F73
ENCODING 20339
SWIDTH 1000 0
DWIDTH 14 0
BBX 13 13 0 -1
BITMAP
1080
2080
27F0
2080
6080
AFF0
2080
2080
27F0
2080
2080
2FF8
2000
ENDCHAR
STARTCHAR 4F74
ENCODING 20340
SWIDTH 1000 0
DWIDTH 14 0
BBX 13 13 1 -2
BITMAP
1000
2FF0
2420
2420
67E0
A420
2420
27E0
2420
3FF8
2020
2020
2020
ENDCHAR
STARTCHAR 4F75
ENCODING 20341
SWIDTH 1000 0
DWIDTH 14 0
BBX 13 13 0 -2
BITMAP
1420
1220
2040
2FF8
6220
6220
A220
2FF8
2220
2220
2220
2420
2820
ENDCHAR
STARTCHAR 4F76
ENCODING 20342
SWIDTH 1071 0
DWIDTH 15 0
BBX 13 13 1 -2
BITMAP
1080
1080
2FF8
2080
6080
AFF0
2000
2000
27F0
2410
2410
27F0
2410
ENDCHAR
STARTCHAR 4F77
ENCODING 20343
SWIDTH 1071 0
DWIDTH 15 0
BBX 13 14 1 -4
BITMAP
1000
17F0
2410
2410
67F0
6410
A7F0
2480
2498
24B0
2440
24A0
2718
2400
ENDCHAR
STARTCHAR 4F78
ENCODING 20344
SWIDTH 1000 0
DWIDTH 14 0
BBX 12 13 1 -2
BITMAP
1860
1780
2080
2080
6FF0
E080
A080
27E0
2420
2420
2420
27E0
2420
ENDCHAR
STARTCHAR 4F79
ENCODING 20345
SWIDTH 1000 0
DWIDTH 14 0
BBX 13 14 0 -2
BITMAP
1100
1200
23E0
2460
2C40
6FF8
A400
25F0
2510
2510
2570
2908
2908
21F0
ENDCHAR
ENDFONT
